G04 #@! TF.GenerationSoftware,KiCad,Pcbnew,7.0.8*
G04 #@! TF.CreationDate,2024-03-15T14:24:27-04:00*
G04 #@! TF.ProjectId,genesis-umd,67656e65-7369-4732-9d75-6d642e6b6963,3.1*
G04 #@! TF.SameCoordinates,Original*
G04 #@! TF.FileFunction,Legend,Top*
G04 #@! TF.FilePolarity,Positive*
%FSLAX46Y46*%
G04 Gerber Fmt 4.6, Leading zero omitted, Abs format (unit mm)*
G04 Created by KiCad (PCBNEW 7.0.8) date 2024-03-15 14:24:27*
%MOMM*%
%LPD*%
G01*
G04 APERTURE LIST*
%ADD10C,0.203200*%
%ADD11C,0.010000*%
%ADD12C,0.254000*%
G04 APERTURE END LIST*
D10*
X149832817Y-144990837D02*
X150256150Y-144990837D01*
X149748150Y-145244837D02*
X150044484Y-144355837D01*
X150044484Y-144355837D02*
X150340817Y-145244837D01*
X150552484Y-144355837D02*
X151102817Y-144355837D01*
X151102817Y-144355837D02*
X150806484Y-144694504D01*
X150806484Y-144694504D02*
X150933484Y-144694504D01*
X150933484Y-144694504D02*
X151018150Y-144736837D01*
X151018150Y-144736837D02*
X151060484Y-144779170D01*
X151060484Y-144779170D02*
X151102817Y-144863837D01*
X151102817Y-144863837D02*
X151102817Y-145075504D01*
X151102817Y-145075504D02*
X151060484Y-145160170D01*
X151060484Y-145160170D02*
X151018150Y-145202504D01*
X151018150Y-145202504D02*
X150933484Y-145244837D01*
X150933484Y-145244837D02*
X150679484Y-145244837D01*
X150679484Y-145244837D02*
X150594817Y-145202504D01*
X150594817Y-145202504D02*
X150552484Y-145160170D01*
X151441484Y-144440504D02*
X151483817Y-144398170D01*
X151483817Y-144398170D02*
X151568484Y-144355837D01*
X151568484Y-144355837D02*
X151780151Y-144355837D01*
X151780151Y-144355837D02*
X151864817Y-144398170D01*
X151864817Y-144398170D02*
X151907151Y-144440504D01*
X151907151Y-144440504D02*
X151949484Y-144525170D01*
X151949484Y-144525170D02*
X151949484Y-144609837D01*
X151949484Y-144609837D02*
X151907151Y-144736837D01*
X151907151Y-144736837D02*
X151399151Y-145244837D01*
X151399151Y-145244837D02*
X151949484Y-145244837D01*
X138004884Y-144728370D02*
X138131884Y-144770704D01*
X138131884Y-144770704D02*
X138174217Y-144813037D01*
X138174217Y-144813037D02*
X138216550Y-144897704D01*
X138216550Y-144897704D02*
X138216550Y-145024704D01*
X138216550Y-145024704D02*
X138174217Y-145109370D01*
X138174217Y-145109370D02*
X138131884Y-145151704D01*
X138131884Y-145151704D02*
X138047217Y-145194037D01*
X138047217Y-145194037D02*
X137708550Y-145194037D01*
X137708550Y-145194037D02*
X137708550Y-144305037D01*
X137708550Y-144305037D02*
X138004884Y-144305037D01*
X138004884Y-144305037D02*
X138089550Y-144347370D01*
X138089550Y-144347370D02*
X138131884Y-144389704D01*
X138131884Y-144389704D02*
X138174217Y-144474370D01*
X138174217Y-144474370D02*
X138174217Y-144559037D01*
X138174217Y-144559037D02*
X138131884Y-144643704D01*
X138131884Y-144643704D02*
X138089550Y-144686037D01*
X138089550Y-144686037D02*
X138004884Y-144728370D01*
X138004884Y-144728370D02*
X137708550Y-144728370D01*
X138512884Y-144305037D02*
X139063217Y-144305037D01*
X139063217Y-144305037D02*
X138766884Y-144643704D01*
X138766884Y-144643704D02*
X138893884Y-144643704D01*
X138893884Y-144643704D02*
X138978550Y-144686037D01*
X138978550Y-144686037D02*
X139020884Y-144728370D01*
X139020884Y-144728370D02*
X139063217Y-144813037D01*
X139063217Y-144813037D02*
X139063217Y-145024704D01*
X139063217Y-145024704D02*
X139020884Y-145109370D01*
X139020884Y-145109370D02*
X138978550Y-145151704D01*
X138978550Y-145151704D02*
X138893884Y-145194037D01*
X138893884Y-145194037D02*
X138639884Y-145194037D01*
X138639884Y-145194037D02*
X138555217Y-145151704D01*
X138555217Y-145151704D02*
X138512884Y-145109370D01*
X139401884Y-144389704D02*
X139444217Y-144347370D01*
X139444217Y-144347370D02*
X139528884Y-144305037D01*
X139528884Y-144305037D02*
X139740551Y-144305037D01*
X139740551Y-144305037D02*
X139825217Y-144347370D01*
X139825217Y-144347370D02*
X139867551Y-144389704D01*
X139867551Y-144389704D02*
X139909884Y-144474370D01*
X139909884Y-144474370D02*
X139909884Y-144559037D01*
X139909884Y-144559037D02*
X139867551Y-144686037D01*
X139867551Y-144686037D02*
X139359551Y-145194037D01*
X139359551Y-145194037D02*
X139909884Y-145194037D01*
X150010617Y-66250837D02*
X150433950Y-66250837D01*
X149925950Y-66504837D02*
X150222284Y-65615837D01*
X150222284Y-65615837D02*
X150518617Y-66504837D01*
X151280617Y-66504837D02*
X150772617Y-66504837D01*
X151026617Y-66504837D02*
X151026617Y-65615837D01*
X151026617Y-65615837D02*
X150941950Y-65742837D01*
X150941950Y-65742837D02*
X150857284Y-65827504D01*
X150857284Y-65827504D02*
X150772617Y-65869837D01*
X138563684Y-66039170D02*
X138690684Y-66081504D01*
X138690684Y-66081504D02*
X138733017Y-66123837D01*
X138733017Y-66123837D02*
X138775350Y-66208504D01*
X138775350Y-66208504D02*
X138775350Y-66335504D01*
X138775350Y-66335504D02*
X138733017Y-66420170D01*
X138733017Y-66420170D02*
X138690684Y-66462504D01*
X138690684Y-66462504D02*
X138606017Y-66504837D01*
X138606017Y-66504837D02*
X138267350Y-66504837D01*
X138267350Y-66504837D02*
X138267350Y-65615837D01*
X138267350Y-65615837D02*
X138563684Y-65615837D01*
X138563684Y-65615837D02*
X138648350Y-65658170D01*
X138648350Y-65658170D02*
X138690684Y-65700504D01*
X138690684Y-65700504D02*
X138733017Y-65785170D01*
X138733017Y-65785170D02*
X138733017Y-65869837D01*
X138733017Y-65869837D02*
X138690684Y-65954504D01*
X138690684Y-65954504D02*
X138648350Y-65996837D01*
X138648350Y-65996837D02*
X138563684Y-66039170D01*
X138563684Y-66039170D02*
X138267350Y-66039170D01*
X139622017Y-66504837D02*
X139114017Y-66504837D01*
X139368017Y-66504837D02*
X139368017Y-65615837D01*
X139368017Y-65615837D02*
X139283350Y-65742837D01*
X139283350Y-65742837D02*
X139198684Y-65827504D01*
X139198684Y-65827504D02*
X139114017Y-65869837D01*
X131888035Y-107632498D02*
X131930369Y-107674831D01*
X131930369Y-107674831D02*
X131972702Y-107801831D01*
X131972702Y-107801831D02*
X131972702Y-107886498D01*
X131972702Y-107886498D02*
X131930369Y-108013498D01*
X131930369Y-108013498D02*
X131845702Y-108098165D01*
X131845702Y-108098165D02*
X131761035Y-108140498D01*
X131761035Y-108140498D02*
X131591702Y-108182831D01*
X131591702Y-108182831D02*
X131464702Y-108182831D01*
X131464702Y-108182831D02*
X131295369Y-108140498D01*
X131295369Y-108140498D02*
X131210702Y-108098165D01*
X131210702Y-108098165D02*
X131126035Y-108013498D01*
X131126035Y-108013498D02*
X131083702Y-107886498D01*
X131083702Y-107886498D02*
X131083702Y-107801831D01*
X131083702Y-107801831D02*
X131126035Y-107674831D01*
X131126035Y-107674831D02*
X131168369Y-107632498D01*
X131083702Y-107082165D02*
X131083702Y-106912831D01*
X131083702Y-106912831D02*
X131126035Y-106828165D01*
X131126035Y-106828165D02*
X131210702Y-106743498D01*
X131210702Y-106743498D02*
X131380035Y-106701165D01*
X131380035Y-106701165D02*
X131676369Y-106701165D01*
X131676369Y-106701165D02*
X131845702Y-106743498D01*
X131845702Y-106743498D02*
X131930369Y-106828165D01*
X131930369Y-106828165D02*
X131972702Y-106912831D01*
X131972702Y-106912831D02*
X131972702Y-107082165D01*
X131972702Y-107082165D02*
X131930369Y-107166831D01*
X131930369Y-107166831D02*
X131845702Y-107251498D01*
X131845702Y-107251498D02*
X131676369Y-107293831D01*
X131676369Y-107293831D02*
X131380035Y-107293831D01*
X131380035Y-107293831D02*
X131210702Y-107251498D01*
X131210702Y-107251498D02*
X131126035Y-107166831D01*
X131126035Y-107166831D02*
X131083702Y-107082165D01*
X131972702Y-106320165D02*
X131083702Y-106320165D01*
X131083702Y-106320165D02*
X131718702Y-106023832D01*
X131718702Y-106023832D02*
X131083702Y-105727498D01*
X131083702Y-105727498D02*
X131972702Y-105727498D01*
X131972702Y-105304165D02*
X131083702Y-105304165D01*
X131083702Y-105304165D02*
X131083702Y-104965498D01*
X131083702Y-104965498D02*
X131126035Y-104880832D01*
X131126035Y-104880832D02*
X131168369Y-104838498D01*
X131168369Y-104838498D02*
X131253035Y-104796165D01*
X131253035Y-104796165D02*
X131380035Y-104796165D01*
X131380035Y-104796165D02*
X131464702Y-104838498D01*
X131464702Y-104838498D02*
X131507035Y-104880832D01*
X131507035Y-104880832D02*
X131549369Y-104965498D01*
X131549369Y-104965498D02*
X131549369Y-105304165D01*
X131083702Y-104245832D02*
X131083702Y-104076498D01*
X131083702Y-104076498D02*
X131126035Y-103991832D01*
X131126035Y-103991832D02*
X131210702Y-103907165D01*
X131210702Y-103907165D02*
X131380035Y-103864832D01*
X131380035Y-103864832D02*
X131676369Y-103864832D01*
X131676369Y-103864832D02*
X131845702Y-103907165D01*
X131845702Y-103907165D02*
X131930369Y-103991832D01*
X131930369Y-103991832D02*
X131972702Y-104076498D01*
X131972702Y-104076498D02*
X131972702Y-104245832D01*
X131972702Y-104245832D02*
X131930369Y-104330498D01*
X131930369Y-104330498D02*
X131845702Y-104415165D01*
X131845702Y-104415165D02*
X131676369Y-104457498D01*
X131676369Y-104457498D02*
X131380035Y-104457498D01*
X131380035Y-104457498D02*
X131210702Y-104415165D01*
X131210702Y-104415165D02*
X131126035Y-104330498D01*
X131126035Y-104330498D02*
X131083702Y-104245832D01*
X131972702Y-103483832D02*
X131083702Y-103483832D01*
X131083702Y-103483832D02*
X131972702Y-102975832D01*
X131972702Y-102975832D02*
X131083702Y-102975832D01*
X131507035Y-102552499D02*
X131507035Y-102256166D01*
X131972702Y-102129166D02*
X131972702Y-102552499D01*
X131972702Y-102552499D02*
X131083702Y-102552499D01*
X131083702Y-102552499D02*
X131083702Y-102129166D01*
X131972702Y-101748166D02*
X131083702Y-101748166D01*
X131083702Y-101748166D02*
X131972702Y-101240166D01*
X131972702Y-101240166D02*
X131083702Y-101240166D01*
X131083702Y-100943833D02*
X131083702Y-100435833D01*
X131972702Y-100689833D02*
X131083702Y-100689833D01*
X131930369Y-100181833D02*
X131972702Y-100054833D01*
X131972702Y-100054833D02*
X131972702Y-99843167D01*
X131972702Y-99843167D02*
X131930369Y-99758500D01*
X131930369Y-99758500D02*
X131888035Y-99716167D01*
X131888035Y-99716167D02*
X131803369Y-99673833D01*
X131803369Y-99673833D02*
X131718702Y-99673833D01*
X131718702Y-99673833D02*
X131634035Y-99716167D01*
X131634035Y-99716167D02*
X131591702Y-99758500D01*
X131591702Y-99758500D02*
X131549369Y-99843167D01*
X131549369Y-99843167D02*
X131507035Y-100012500D01*
X131507035Y-100012500D02*
X131464702Y-100097167D01*
X131464702Y-100097167D02*
X131422369Y-100139500D01*
X131422369Y-100139500D02*
X131337702Y-100181833D01*
X131337702Y-100181833D02*
X131253035Y-100181833D01*
X131253035Y-100181833D02*
X131168369Y-100139500D01*
X131168369Y-100139500D02*
X131126035Y-100097167D01*
X131126035Y-100097167D02*
X131083702Y-100012500D01*
X131083702Y-100012500D02*
X131083702Y-99800833D01*
X131083702Y-99800833D02*
X131126035Y-99673833D01*
X131041369Y-98657833D02*
X132184369Y-99419833D01*
X131972702Y-97938167D02*
X131972702Y-98361500D01*
X131972702Y-98361500D02*
X131083702Y-98361500D01*
X131718702Y-97684166D02*
X131718702Y-97260833D01*
X131972702Y-97768833D02*
X131083702Y-97472500D01*
X131083702Y-97472500D02*
X131972702Y-97176166D01*
X131507035Y-96583500D02*
X131549369Y-96456500D01*
X131549369Y-96456500D02*
X131591702Y-96414166D01*
X131591702Y-96414166D02*
X131676369Y-96371833D01*
X131676369Y-96371833D02*
X131803369Y-96371833D01*
X131803369Y-96371833D02*
X131888035Y-96414166D01*
X131888035Y-96414166D02*
X131930369Y-96456500D01*
X131930369Y-96456500D02*
X131972702Y-96541166D01*
X131972702Y-96541166D02*
X131972702Y-96879833D01*
X131972702Y-96879833D02*
X131083702Y-96879833D01*
X131083702Y-96879833D02*
X131083702Y-96583500D01*
X131083702Y-96583500D02*
X131126035Y-96498833D01*
X131126035Y-96498833D02*
X131168369Y-96456500D01*
X131168369Y-96456500D02*
X131253035Y-96414166D01*
X131253035Y-96414166D02*
X131337702Y-96414166D01*
X131337702Y-96414166D02*
X131422369Y-96456500D01*
X131422369Y-96456500D02*
X131464702Y-96498833D01*
X131464702Y-96498833D02*
X131507035Y-96583500D01*
X131507035Y-96583500D02*
X131507035Y-96879833D01*
X131507035Y-95990833D02*
X131507035Y-95694500D01*
X131972702Y-95567500D02*
X131972702Y-95990833D01*
X131972702Y-95990833D02*
X131083702Y-95990833D01*
X131083702Y-95990833D02*
X131083702Y-95567500D01*
X131972702Y-94763167D02*
X131972702Y-95186500D01*
X131972702Y-95186500D02*
X131083702Y-95186500D01*
X131930369Y-93831833D02*
X131972702Y-93704833D01*
X131972702Y-93704833D02*
X131972702Y-93493167D01*
X131972702Y-93493167D02*
X131930369Y-93408500D01*
X131930369Y-93408500D02*
X131888035Y-93366167D01*
X131888035Y-93366167D02*
X131803369Y-93323833D01*
X131803369Y-93323833D02*
X131718702Y-93323833D01*
X131718702Y-93323833D02*
X131634035Y-93366167D01*
X131634035Y-93366167D02*
X131591702Y-93408500D01*
X131591702Y-93408500D02*
X131549369Y-93493167D01*
X131549369Y-93493167D02*
X131507035Y-93662500D01*
X131507035Y-93662500D02*
X131464702Y-93747167D01*
X131464702Y-93747167D02*
X131422369Y-93789500D01*
X131422369Y-93789500D02*
X131337702Y-93831833D01*
X131337702Y-93831833D02*
X131253035Y-93831833D01*
X131253035Y-93831833D02*
X131168369Y-93789500D01*
X131168369Y-93789500D02*
X131126035Y-93747167D01*
X131126035Y-93747167D02*
X131083702Y-93662500D01*
X131083702Y-93662500D02*
X131083702Y-93450833D01*
X131083702Y-93450833D02*
X131126035Y-93323833D01*
X131972702Y-92942833D02*
X131083702Y-92942833D01*
X131972702Y-92519500D02*
X131083702Y-92519500D01*
X131083702Y-92519500D02*
X131083702Y-92307833D01*
X131083702Y-92307833D02*
X131126035Y-92180833D01*
X131126035Y-92180833D02*
X131210702Y-92096167D01*
X131210702Y-92096167D02*
X131295369Y-92053833D01*
X131295369Y-92053833D02*
X131464702Y-92011500D01*
X131464702Y-92011500D02*
X131591702Y-92011500D01*
X131591702Y-92011500D02*
X131761035Y-92053833D01*
X131761035Y-92053833D02*
X131845702Y-92096167D01*
X131845702Y-92096167D02*
X131930369Y-92180833D01*
X131930369Y-92180833D02*
X131972702Y-92307833D01*
X131972702Y-92307833D02*
X131972702Y-92519500D01*
X131507035Y-91630500D02*
X131507035Y-91334167D01*
X131972702Y-91207167D02*
X131972702Y-91630500D01*
X131972702Y-91630500D02*
X131083702Y-91630500D01*
X131083702Y-91630500D02*
X131083702Y-91207167D01*
X147074467Y-60852702D02*
X147074467Y-59963702D01*
X147074467Y-60810369D02*
X146989801Y-60852702D01*
X146989801Y-60852702D02*
X146820467Y-60852702D01*
X146820467Y-60852702D02*
X146735801Y-60810369D01*
X146735801Y-60810369D02*
X146693467Y-60768035D01*
X146693467Y-60768035D02*
X146651134Y-60683369D01*
X146651134Y-60683369D02*
X146651134Y-60429369D01*
X146651134Y-60429369D02*
X146693467Y-60344702D01*
X146693467Y-60344702D02*
X146735801Y-60302369D01*
X146735801Y-60302369D02*
X146820467Y-60260035D01*
X146820467Y-60260035D02*
X146989801Y-60260035D01*
X146989801Y-60260035D02*
X147074467Y-60302369D01*
X147497800Y-60852702D02*
X147497800Y-59963702D01*
X147497800Y-60302369D02*
X147582467Y-60260035D01*
X147582467Y-60260035D02*
X147751800Y-60260035D01*
X147751800Y-60260035D02*
X147836467Y-60302369D01*
X147836467Y-60302369D02*
X147878800Y-60344702D01*
X147878800Y-60344702D02*
X147921134Y-60429369D01*
X147921134Y-60429369D02*
X147921134Y-60683369D01*
X147921134Y-60683369D02*
X147878800Y-60768035D01*
X147878800Y-60768035D02*
X147836467Y-60810369D01*
X147836467Y-60810369D02*
X147751800Y-60852702D01*
X147751800Y-60852702D02*
X147582467Y-60852702D01*
X147582467Y-60852702D02*
X147497800Y-60810369D01*
X148979466Y-60387035D02*
X149275800Y-60387035D01*
X149402800Y-60852702D02*
X148979466Y-60852702D01*
X148979466Y-60852702D02*
X148979466Y-59963702D01*
X148979466Y-59963702D02*
X149402800Y-59963702D01*
X149910799Y-60852702D02*
X149826133Y-60810369D01*
X149826133Y-60810369D02*
X149783799Y-60725702D01*
X149783799Y-60725702D02*
X149783799Y-59963702D01*
X150588133Y-60810369D02*
X150503466Y-60852702D01*
X150503466Y-60852702D02*
X150334133Y-60852702D01*
X150334133Y-60852702D02*
X150249466Y-60810369D01*
X150249466Y-60810369D02*
X150207133Y-60725702D01*
X150207133Y-60725702D02*
X150207133Y-60387035D01*
X150207133Y-60387035D02*
X150249466Y-60302369D01*
X150249466Y-60302369D02*
X150334133Y-60260035D01*
X150334133Y-60260035D02*
X150503466Y-60260035D01*
X150503466Y-60260035D02*
X150588133Y-60302369D01*
X150588133Y-60302369D02*
X150630466Y-60387035D01*
X150630466Y-60387035D02*
X150630466Y-60471702D01*
X150630466Y-60471702D02*
X150207133Y-60556369D01*
X151392466Y-60810369D02*
X151307800Y-60852702D01*
X151307800Y-60852702D02*
X151138466Y-60852702D01*
X151138466Y-60852702D02*
X151053800Y-60810369D01*
X151053800Y-60810369D02*
X151011466Y-60768035D01*
X151011466Y-60768035D02*
X150969133Y-60683369D01*
X150969133Y-60683369D02*
X150969133Y-60429369D01*
X150969133Y-60429369D02*
X151011466Y-60344702D01*
X151011466Y-60344702D02*
X151053800Y-60302369D01*
X151053800Y-60302369D02*
X151138466Y-60260035D01*
X151138466Y-60260035D02*
X151307800Y-60260035D01*
X151307800Y-60260035D02*
X151392466Y-60302369D01*
X151646466Y-60260035D02*
X151985133Y-60260035D01*
X151773466Y-59963702D02*
X151773466Y-60725702D01*
X151773466Y-60725702D02*
X151815800Y-60810369D01*
X151815800Y-60810369D02*
X151900466Y-60852702D01*
X151900466Y-60852702D02*
X151985133Y-60852702D01*
X152281466Y-60852702D02*
X152281466Y-60260035D01*
X152281466Y-60429369D02*
X152323800Y-60344702D01*
X152323800Y-60344702D02*
X152366133Y-60302369D01*
X152366133Y-60302369D02*
X152450800Y-60260035D01*
X152450800Y-60260035D02*
X152535466Y-60260035D01*
X152958799Y-60852702D02*
X152874133Y-60810369D01*
X152874133Y-60810369D02*
X152831799Y-60768035D01*
X152831799Y-60768035D02*
X152789466Y-60683369D01*
X152789466Y-60683369D02*
X152789466Y-60429369D01*
X152789466Y-60429369D02*
X152831799Y-60344702D01*
X152831799Y-60344702D02*
X152874133Y-60302369D01*
X152874133Y-60302369D02*
X152958799Y-60260035D01*
X152958799Y-60260035D02*
X153085799Y-60260035D01*
X153085799Y-60260035D02*
X153170466Y-60302369D01*
X153170466Y-60302369D02*
X153212799Y-60344702D01*
X153212799Y-60344702D02*
X153255133Y-60429369D01*
X153255133Y-60429369D02*
X153255133Y-60683369D01*
X153255133Y-60683369D02*
X153212799Y-60768035D01*
X153212799Y-60768035D02*
X153170466Y-60810369D01*
X153170466Y-60810369D02*
X153085799Y-60852702D01*
X153085799Y-60852702D02*
X152958799Y-60852702D01*
X153636132Y-60260035D02*
X153636132Y-60852702D01*
X153636132Y-60344702D02*
X153678466Y-60302369D01*
X153678466Y-60302369D02*
X153763132Y-60260035D01*
X153763132Y-60260035D02*
X153890132Y-60260035D01*
X153890132Y-60260035D02*
X153974799Y-60302369D01*
X153974799Y-60302369D02*
X154017132Y-60387035D01*
X154017132Y-60387035D02*
X154017132Y-60852702D01*
X154440465Y-60852702D02*
X154440465Y-60260035D01*
X154440465Y-59963702D02*
X154398132Y-60006035D01*
X154398132Y-60006035D02*
X154440465Y-60048369D01*
X154440465Y-60048369D02*
X154482799Y-60006035D01*
X154482799Y-60006035D02*
X154440465Y-59963702D01*
X154440465Y-59963702D02*
X154440465Y-60048369D01*
X155244798Y-60810369D02*
X155160132Y-60852702D01*
X155160132Y-60852702D02*
X154990798Y-60852702D01*
X154990798Y-60852702D02*
X154906132Y-60810369D01*
X154906132Y-60810369D02*
X154863798Y-60768035D01*
X154863798Y-60768035D02*
X154821465Y-60683369D01*
X154821465Y-60683369D02*
X154821465Y-60429369D01*
X154821465Y-60429369D02*
X154863798Y-60344702D01*
X154863798Y-60344702D02*
X154906132Y-60302369D01*
X154906132Y-60302369D02*
X154990798Y-60260035D01*
X154990798Y-60260035D02*
X155160132Y-60260035D01*
X155160132Y-60260035D02*
X155244798Y-60302369D01*
X155583465Y-60810369D02*
X155668132Y-60852702D01*
X155668132Y-60852702D02*
X155837465Y-60852702D01*
X155837465Y-60852702D02*
X155922132Y-60810369D01*
X155922132Y-60810369D02*
X155964465Y-60725702D01*
X155964465Y-60725702D02*
X155964465Y-60683369D01*
X155964465Y-60683369D02*
X155922132Y-60598702D01*
X155922132Y-60598702D02*
X155837465Y-60556369D01*
X155837465Y-60556369D02*
X155710465Y-60556369D01*
X155710465Y-60556369D02*
X155625798Y-60514035D01*
X155625798Y-60514035D02*
X155583465Y-60429369D01*
X155583465Y-60429369D02*
X155583465Y-60387035D01*
X155583465Y-60387035D02*
X155625798Y-60302369D01*
X155625798Y-60302369D02*
X155710465Y-60260035D01*
X155710465Y-60260035D02*
X155837465Y-60260035D01*
X155837465Y-60260035D02*
X155922132Y-60302369D01*
X131176835Y-72119066D02*
X131134502Y-72203733D01*
X131134502Y-72203733D02*
X131134502Y-72330733D01*
X131134502Y-72330733D02*
X131176835Y-72457733D01*
X131176835Y-72457733D02*
X131261502Y-72542400D01*
X131261502Y-72542400D02*
X131346169Y-72584733D01*
X131346169Y-72584733D02*
X131515502Y-72627066D01*
X131515502Y-72627066D02*
X131642502Y-72627066D01*
X131642502Y-72627066D02*
X131811835Y-72584733D01*
X131811835Y-72584733D02*
X131896502Y-72542400D01*
X131896502Y-72542400D02*
X131981169Y-72457733D01*
X131981169Y-72457733D02*
X132023502Y-72330733D01*
X132023502Y-72330733D02*
X132023502Y-72246066D01*
X132023502Y-72246066D02*
X131981169Y-72119066D01*
X131981169Y-72119066D02*
X131938835Y-72076733D01*
X131938835Y-72076733D02*
X131642502Y-72076733D01*
X131642502Y-72076733D02*
X131642502Y-72246066D01*
X131981169Y-71357066D02*
X132023502Y-71441733D01*
X132023502Y-71441733D02*
X132023502Y-71611066D01*
X132023502Y-71611066D02*
X131981169Y-71695733D01*
X131981169Y-71695733D02*
X131896502Y-71738066D01*
X131896502Y-71738066D02*
X131557835Y-71738066D01*
X131557835Y-71738066D02*
X131473169Y-71695733D01*
X131473169Y-71695733D02*
X131430835Y-71611066D01*
X131430835Y-71611066D02*
X131430835Y-71441733D01*
X131430835Y-71441733D02*
X131473169Y-71357066D01*
X131473169Y-71357066D02*
X131557835Y-71314733D01*
X131557835Y-71314733D02*
X131642502Y-71314733D01*
X131642502Y-71314733D02*
X131727169Y-71738066D01*
X131430835Y-70933733D02*
X132023502Y-70933733D01*
X131515502Y-70933733D02*
X131473169Y-70891400D01*
X131473169Y-70891400D02*
X131430835Y-70806733D01*
X131430835Y-70806733D02*
X131430835Y-70679733D01*
X131430835Y-70679733D02*
X131473169Y-70595066D01*
X131473169Y-70595066D02*
X131557835Y-70552733D01*
X131557835Y-70552733D02*
X132023502Y-70552733D01*
X131981169Y-69790733D02*
X132023502Y-69875400D01*
X132023502Y-69875400D02*
X132023502Y-70044733D01*
X132023502Y-70044733D02*
X131981169Y-70129400D01*
X131981169Y-70129400D02*
X131896502Y-70171733D01*
X131896502Y-70171733D02*
X131557835Y-70171733D01*
X131557835Y-70171733D02*
X131473169Y-70129400D01*
X131473169Y-70129400D02*
X131430835Y-70044733D01*
X131430835Y-70044733D02*
X131430835Y-69875400D01*
X131430835Y-69875400D02*
X131473169Y-69790733D01*
X131473169Y-69790733D02*
X131557835Y-69748400D01*
X131557835Y-69748400D02*
X131642502Y-69748400D01*
X131642502Y-69748400D02*
X131727169Y-70171733D01*
X131981169Y-69409733D02*
X132023502Y-69325067D01*
X132023502Y-69325067D02*
X132023502Y-69155733D01*
X132023502Y-69155733D02*
X131981169Y-69071067D01*
X131981169Y-69071067D02*
X131896502Y-69028733D01*
X131896502Y-69028733D02*
X131854169Y-69028733D01*
X131854169Y-69028733D02*
X131769502Y-69071067D01*
X131769502Y-69071067D02*
X131727169Y-69155733D01*
X131727169Y-69155733D02*
X131727169Y-69282733D01*
X131727169Y-69282733D02*
X131684835Y-69367400D01*
X131684835Y-69367400D02*
X131600169Y-69409733D01*
X131600169Y-69409733D02*
X131557835Y-69409733D01*
X131557835Y-69409733D02*
X131473169Y-69367400D01*
X131473169Y-69367400D02*
X131430835Y-69282733D01*
X131430835Y-69282733D02*
X131430835Y-69155733D01*
X131430835Y-69155733D02*
X131473169Y-69071067D01*
X132023502Y-68647733D02*
X131430835Y-68647733D01*
X131134502Y-68647733D02*
X131176835Y-68690066D01*
X131176835Y-68690066D02*
X131219169Y-68647733D01*
X131219169Y-68647733D02*
X131176835Y-68605400D01*
X131176835Y-68605400D02*
X131134502Y-68647733D01*
X131134502Y-68647733D02*
X131219169Y-68647733D01*
X131981169Y-68266733D02*
X132023502Y-68182067D01*
X132023502Y-68182067D02*
X132023502Y-68012733D01*
X132023502Y-68012733D02*
X131981169Y-67928067D01*
X131981169Y-67928067D02*
X131896502Y-67885733D01*
X131896502Y-67885733D02*
X131854169Y-67885733D01*
X131854169Y-67885733D02*
X131769502Y-67928067D01*
X131769502Y-67928067D02*
X131727169Y-68012733D01*
X131727169Y-68012733D02*
X131727169Y-68139733D01*
X131727169Y-68139733D02*
X131684835Y-68224400D01*
X131684835Y-68224400D02*
X131600169Y-68266733D01*
X131600169Y-68266733D02*
X131557835Y-68266733D01*
X131557835Y-68266733D02*
X131473169Y-68224400D01*
X131473169Y-68224400D02*
X131430835Y-68139733D01*
X131430835Y-68139733D02*
X131430835Y-68012733D01*
X131430835Y-68012733D02*
X131473169Y-67928067D01*
X131430835Y-66912067D02*
X132023502Y-66700400D01*
X132023502Y-66700400D02*
X131430835Y-66488733D01*
X131134502Y-66234734D02*
X131134502Y-65684400D01*
X131134502Y-65684400D02*
X131473169Y-65980734D01*
X131473169Y-65980734D02*
X131473169Y-65853734D01*
X131473169Y-65853734D02*
X131515502Y-65769067D01*
X131515502Y-65769067D02*
X131557835Y-65726734D01*
X131557835Y-65726734D02*
X131642502Y-65684400D01*
X131642502Y-65684400D02*
X131854169Y-65684400D01*
X131854169Y-65684400D02*
X131938835Y-65726734D01*
X131938835Y-65726734D02*
X131981169Y-65769067D01*
X131981169Y-65769067D02*
X132023502Y-65853734D01*
X132023502Y-65853734D02*
X132023502Y-66107734D01*
X132023502Y-66107734D02*
X131981169Y-66192400D01*
X131981169Y-66192400D02*
X131938835Y-66234734D01*
X131938835Y-65303400D02*
X131981169Y-65261067D01*
X131981169Y-65261067D02*
X132023502Y-65303400D01*
X132023502Y-65303400D02*
X131981169Y-65345733D01*
X131981169Y-65345733D02*
X131938835Y-65303400D01*
X131938835Y-65303400D02*
X132023502Y-65303400D01*
X132023502Y-64414400D02*
X132023502Y-64922400D01*
X132023502Y-64668400D02*
X131134502Y-64668400D01*
X131134502Y-64668400D02*
X131261502Y-64753067D01*
X131261502Y-64753067D02*
X131346169Y-64837734D01*
X131346169Y-64837734D02*
X131388502Y-64922400D01*
X132023502Y-63356067D02*
X131134502Y-63356067D01*
X132023502Y-62932734D02*
X131134502Y-62932734D01*
X131134502Y-62932734D02*
X131134502Y-62721067D01*
X131134502Y-62721067D02*
X131176835Y-62594067D01*
X131176835Y-62594067D02*
X131261502Y-62509401D01*
X131261502Y-62509401D02*
X131346169Y-62467067D01*
X131346169Y-62467067D02*
X131515502Y-62424734D01*
X131515502Y-62424734D02*
X131642502Y-62424734D01*
X131642502Y-62424734D02*
X131811835Y-62467067D01*
X131811835Y-62467067D02*
X131896502Y-62509401D01*
X131896502Y-62509401D02*
X131981169Y-62594067D01*
X131981169Y-62594067D02*
X132023502Y-62721067D01*
X132023502Y-62721067D02*
X132023502Y-62932734D01*
X131557835Y-61366401D02*
X131557835Y-60689068D01*
X131811835Y-60689068D02*
X131811835Y-61366401D01*
X131134502Y-59419068D02*
X131134502Y-59334401D01*
X131134502Y-59334401D02*
X131176835Y-59249734D01*
X131176835Y-59249734D02*
X131219169Y-59207401D01*
X131219169Y-59207401D02*
X131303835Y-59165068D01*
X131303835Y-59165068D02*
X131473169Y-59122734D01*
X131473169Y-59122734D02*
X131684835Y-59122734D01*
X131684835Y-59122734D02*
X131854169Y-59165068D01*
X131854169Y-59165068D02*
X131938835Y-59207401D01*
X131938835Y-59207401D02*
X131981169Y-59249734D01*
X131981169Y-59249734D02*
X132023502Y-59334401D01*
X132023502Y-59334401D02*
X132023502Y-59419068D01*
X132023502Y-59419068D02*
X131981169Y-59503734D01*
X131981169Y-59503734D02*
X131938835Y-59546068D01*
X131938835Y-59546068D02*
X131854169Y-59588401D01*
X131854169Y-59588401D02*
X131684835Y-59630734D01*
X131684835Y-59630734D02*
X131473169Y-59630734D01*
X131473169Y-59630734D02*
X131303835Y-59588401D01*
X131303835Y-59588401D02*
X131219169Y-59546068D01*
X131219169Y-59546068D02*
X131176835Y-59503734D01*
X131176835Y-59503734D02*
X131134502Y-59419068D01*
X132023502Y-58826401D02*
X131430835Y-58360734D01*
X131430835Y-58826401D02*
X132023502Y-58360734D01*
X131134502Y-57852734D02*
X131134502Y-57768067D01*
X131134502Y-57768067D02*
X131176835Y-57683400D01*
X131176835Y-57683400D02*
X131219169Y-57641067D01*
X131219169Y-57641067D02*
X131303835Y-57598734D01*
X131303835Y-57598734D02*
X131473169Y-57556400D01*
X131473169Y-57556400D02*
X131684835Y-57556400D01*
X131684835Y-57556400D02*
X131854169Y-57598734D01*
X131854169Y-57598734D02*
X131938835Y-57641067D01*
X131938835Y-57641067D02*
X131981169Y-57683400D01*
X131981169Y-57683400D02*
X132023502Y-57768067D01*
X132023502Y-57768067D02*
X132023502Y-57852734D01*
X132023502Y-57852734D02*
X131981169Y-57937400D01*
X131981169Y-57937400D02*
X131938835Y-57979734D01*
X131938835Y-57979734D02*
X131854169Y-58022067D01*
X131854169Y-58022067D02*
X131684835Y-58064400D01*
X131684835Y-58064400D02*
X131473169Y-58064400D01*
X131473169Y-58064400D02*
X131303835Y-58022067D01*
X131303835Y-58022067D02*
X131219169Y-57979734D01*
X131219169Y-57979734D02*
X131176835Y-57937400D01*
X131176835Y-57937400D02*
X131134502Y-57852734D01*
X132023502Y-56709733D02*
X132023502Y-57217733D01*
X132023502Y-56963733D02*
X131134502Y-56963733D01*
X131134502Y-56963733D02*
X131261502Y-57048400D01*
X131261502Y-57048400D02*
X131346169Y-57133067D01*
X131346169Y-57133067D02*
X131388502Y-57217733D01*
X132048902Y-149415496D02*
X131159902Y-149415496D01*
X132048902Y-149034496D02*
X131583235Y-149034496D01*
X131583235Y-149034496D02*
X131498569Y-149076829D01*
X131498569Y-149076829D02*
X131456235Y-149161496D01*
X131456235Y-149161496D02*
X131456235Y-149288496D01*
X131456235Y-149288496D02*
X131498569Y-149373163D01*
X131498569Y-149373163D02*
X131540902Y-149415496D01*
X131456235Y-148738163D02*
X131456235Y-148399496D01*
X131159902Y-148611163D02*
X131921902Y-148611163D01*
X131921902Y-148611163D02*
X132006569Y-148568830D01*
X132006569Y-148568830D02*
X132048902Y-148484163D01*
X132048902Y-148484163D02*
X132048902Y-148399496D01*
X131456235Y-148230163D02*
X131456235Y-147891496D01*
X131159902Y-148103163D02*
X131921902Y-148103163D01*
X131921902Y-148103163D02*
X132006569Y-148060830D01*
X132006569Y-148060830D02*
X132048902Y-147976163D01*
X132048902Y-147976163D02*
X132048902Y-147891496D01*
X131456235Y-147595163D02*
X132345235Y-147595163D01*
X131498569Y-147595163D02*
X131456235Y-147510496D01*
X131456235Y-147510496D02*
X131456235Y-147341163D01*
X131456235Y-147341163D02*
X131498569Y-147256496D01*
X131498569Y-147256496D02*
X131540902Y-147214163D01*
X131540902Y-147214163D02*
X131625569Y-147171830D01*
X131625569Y-147171830D02*
X131879569Y-147171830D01*
X131879569Y-147171830D02*
X131964235Y-147214163D01*
X131964235Y-147214163D02*
X132006569Y-147256496D01*
X132006569Y-147256496D02*
X132048902Y-147341163D01*
X132048902Y-147341163D02*
X132048902Y-147510496D01*
X132048902Y-147510496D02*
X132006569Y-147595163D01*
X132006569Y-146833163D02*
X132048902Y-146748497D01*
X132048902Y-146748497D02*
X132048902Y-146579163D01*
X132048902Y-146579163D02*
X132006569Y-146494497D01*
X132006569Y-146494497D02*
X131921902Y-146452163D01*
X131921902Y-146452163D02*
X131879569Y-146452163D01*
X131879569Y-146452163D02*
X131794902Y-146494497D01*
X131794902Y-146494497D02*
X131752569Y-146579163D01*
X131752569Y-146579163D02*
X131752569Y-146706163D01*
X131752569Y-146706163D02*
X131710235Y-146790830D01*
X131710235Y-146790830D02*
X131625569Y-146833163D01*
X131625569Y-146833163D02*
X131583235Y-146833163D01*
X131583235Y-146833163D02*
X131498569Y-146790830D01*
X131498569Y-146790830D02*
X131456235Y-146706163D01*
X131456235Y-146706163D02*
X131456235Y-146579163D01*
X131456235Y-146579163D02*
X131498569Y-146494497D01*
X131964235Y-146071163D02*
X132006569Y-146028830D01*
X132006569Y-146028830D02*
X132048902Y-146071163D01*
X132048902Y-146071163D02*
X132006569Y-146113496D01*
X132006569Y-146113496D02*
X131964235Y-146071163D01*
X131964235Y-146071163D02*
X132048902Y-146071163D01*
X131498569Y-146071163D02*
X131540902Y-146028830D01*
X131540902Y-146028830D02*
X131583235Y-146071163D01*
X131583235Y-146071163D02*
X131540902Y-146113496D01*
X131540902Y-146113496D02*
X131498569Y-146071163D01*
X131498569Y-146071163D02*
X131583235Y-146071163D01*
X131117569Y-145012830D02*
X132260569Y-145774830D01*
X131117569Y-144081497D02*
X132260569Y-144843497D01*
X131456235Y-143404164D02*
X132175902Y-143404164D01*
X132175902Y-143404164D02*
X132260569Y-143446497D01*
X132260569Y-143446497D02*
X132302902Y-143488831D01*
X132302902Y-143488831D02*
X132345235Y-143573497D01*
X132345235Y-143573497D02*
X132345235Y-143700497D01*
X132345235Y-143700497D02*
X132302902Y-143785164D01*
X132006569Y-143404164D02*
X132048902Y-143488831D01*
X132048902Y-143488831D02*
X132048902Y-143658164D01*
X132048902Y-143658164D02*
X132006569Y-143742831D01*
X132006569Y-143742831D02*
X131964235Y-143785164D01*
X131964235Y-143785164D02*
X131879569Y-143827497D01*
X131879569Y-143827497D02*
X131625569Y-143827497D01*
X131625569Y-143827497D02*
X131540902Y-143785164D01*
X131540902Y-143785164D02*
X131498569Y-143742831D01*
X131498569Y-143742831D02*
X131456235Y-143658164D01*
X131456235Y-143658164D02*
X131456235Y-143488831D01*
X131456235Y-143488831D02*
X131498569Y-143404164D01*
X132048902Y-142980831D02*
X131456235Y-142980831D01*
X131159902Y-142980831D02*
X131202235Y-143023164D01*
X131202235Y-143023164D02*
X131244569Y-142980831D01*
X131244569Y-142980831D02*
X131202235Y-142938498D01*
X131202235Y-142938498D02*
X131159902Y-142980831D01*
X131159902Y-142980831D02*
X131244569Y-142980831D01*
X131456235Y-142684498D02*
X131456235Y-142345831D01*
X131159902Y-142557498D02*
X131921902Y-142557498D01*
X131921902Y-142557498D02*
X132006569Y-142515165D01*
X132006569Y-142515165D02*
X132048902Y-142430498D01*
X132048902Y-142430498D02*
X132048902Y-142345831D01*
X132048902Y-142049498D02*
X131159902Y-142049498D01*
X132048902Y-141668498D02*
X131583235Y-141668498D01*
X131583235Y-141668498D02*
X131498569Y-141710831D01*
X131498569Y-141710831D02*
X131456235Y-141795498D01*
X131456235Y-141795498D02*
X131456235Y-141922498D01*
X131456235Y-141922498D02*
X131498569Y-142007165D01*
X131498569Y-142007165D02*
X131540902Y-142049498D01*
X131456235Y-140864165D02*
X132048902Y-140864165D01*
X131456235Y-141245165D02*
X131921902Y-141245165D01*
X131921902Y-141245165D02*
X132006569Y-141202832D01*
X132006569Y-141202832D02*
X132048902Y-141118165D01*
X132048902Y-141118165D02*
X132048902Y-140991165D01*
X132048902Y-140991165D02*
X132006569Y-140906498D01*
X132006569Y-140906498D02*
X131964235Y-140864165D01*
X132048902Y-140440832D02*
X131159902Y-140440832D01*
X131498569Y-140440832D02*
X131456235Y-140356165D01*
X131456235Y-140356165D02*
X131456235Y-140186832D01*
X131456235Y-140186832D02*
X131498569Y-140102165D01*
X131498569Y-140102165D02*
X131540902Y-140059832D01*
X131540902Y-140059832D02*
X131625569Y-140017499D01*
X131625569Y-140017499D02*
X131879569Y-140017499D01*
X131879569Y-140017499D02*
X131964235Y-140059832D01*
X131964235Y-140059832D02*
X132006569Y-140102165D01*
X132006569Y-140102165D02*
X132048902Y-140186832D01*
X132048902Y-140186832D02*
X132048902Y-140356165D01*
X132048902Y-140356165D02*
X132006569Y-140440832D01*
X131964235Y-139636499D02*
X132006569Y-139594166D01*
X132006569Y-139594166D02*
X132048902Y-139636499D01*
X132048902Y-139636499D02*
X132006569Y-139678832D01*
X132006569Y-139678832D02*
X131964235Y-139636499D01*
X131964235Y-139636499D02*
X132048902Y-139636499D01*
X132006569Y-138832166D02*
X132048902Y-138916833D01*
X132048902Y-138916833D02*
X132048902Y-139086166D01*
X132048902Y-139086166D02*
X132006569Y-139170833D01*
X132006569Y-139170833D02*
X131964235Y-139213166D01*
X131964235Y-139213166D02*
X131879569Y-139255499D01*
X131879569Y-139255499D02*
X131625569Y-139255499D01*
X131625569Y-139255499D02*
X131540902Y-139213166D01*
X131540902Y-139213166D02*
X131498569Y-139170833D01*
X131498569Y-139170833D02*
X131456235Y-139086166D01*
X131456235Y-139086166D02*
X131456235Y-138916833D01*
X131456235Y-138916833D02*
X131498569Y-138832166D01*
X132048902Y-138324166D02*
X132006569Y-138408833D01*
X132006569Y-138408833D02*
X131964235Y-138451166D01*
X131964235Y-138451166D02*
X131879569Y-138493499D01*
X131879569Y-138493499D02*
X131625569Y-138493499D01*
X131625569Y-138493499D02*
X131540902Y-138451166D01*
X131540902Y-138451166D02*
X131498569Y-138408833D01*
X131498569Y-138408833D02*
X131456235Y-138324166D01*
X131456235Y-138324166D02*
X131456235Y-138197166D01*
X131456235Y-138197166D02*
X131498569Y-138112499D01*
X131498569Y-138112499D02*
X131540902Y-138070166D01*
X131540902Y-138070166D02*
X131625569Y-138027833D01*
X131625569Y-138027833D02*
X131879569Y-138027833D01*
X131879569Y-138027833D02*
X131964235Y-138070166D01*
X131964235Y-138070166D02*
X132006569Y-138112499D01*
X132006569Y-138112499D02*
X132048902Y-138197166D01*
X132048902Y-138197166D02*
X132048902Y-138324166D01*
X132048902Y-137646833D02*
X131456235Y-137646833D01*
X131540902Y-137646833D02*
X131498569Y-137604500D01*
X131498569Y-137604500D02*
X131456235Y-137519833D01*
X131456235Y-137519833D02*
X131456235Y-137392833D01*
X131456235Y-137392833D02*
X131498569Y-137308166D01*
X131498569Y-137308166D02*
X131583235Y-137265833D01*
X131583235Y-137265833D02*
X132048902Y-137265833D01*
X131583235Y-137265833D02*
X131498569Y-137223500D01*
X131498569Y-137223500D02*
X131456235Y-137138833D01*
X131456235Y-137138833D02*
X131456235Y-137011833D01*
X131456235Y-137011833D02*
X131498569Y-136927166D01*
X131498569Y-136927166D02*
X131583235Y-136884833D01*
X131583235Y-136884833D02*
X132048902Y-136884833D01*
X131117569Y-135826500D02*
X132260569Y-136588500D01*
X132048902Y-135149167D02*
X131159902Y-135149167D01*
X132006569Y-135149167D02*
X132048902Y-135233834D01*
X132048902Y-135233834D02*
X132048902Y-135403167D01*
X132048902Y-135403167D02*
X132006569Y-135487834D01*
X132006569Y-135487834D02*
X131964235Y-135530167D01*
X131964235Y-135530167D02*
X131879569Y-135572500D01*
X131879569Y-135572500D02*
X131625569Y-135572500D01*
X131625569Y-135572500D02*
X131540902Y-135530167D01*
X131540902Y-135530167D02*
X131498569Y-135487834D01*
X131498569Y-135487834D02*
X131456235Y-135403167D01*
X131456235Y-135403167D02*
X131456235Y-135233834D01*
X131456235Y-135233834D02*
X131498569Y-135149167D01*
X132048902Y-134725834D02*
X131159902Y-134725834D01*
X131498569Y-134725834D02*
X131456235Y-134641167D01*
X131456235Y-134641167D02*
X131456235Y-134471834D01*
X131456235Y-134471834D02*
X131498569Y-134387167D01*
X131498569Y-134387167D02*
X131540902Y-134344834D01*
X131540902Y-134344834D02*
X131625569Y-134302501D01*
X131625569Y-134302501D02*
X131879569Y-134302501D01*
X131879569Y-134302501D02*
X131964235Y-134344834D01*
X131964235Y-134344834D02*
X132006569Y-134387167D01*
X132006569Y-134387167D02*
X132048902Y-134471834D01*
X132048902Y-134471834D02*
X132048902Y-134641167D01*
X132048902Y-134641167D02*
X132006569Y-134725834D01*
X131710235Y-133921501D02*
X131710235Y-133244168D01*
X132006569Y-132482167D02*
X132048902Y-132566834D01*
X132048902Y-132566834D02*
X132048902Y-132736167D01*
X132048902Y-132736167D02*
X132006569Y-132820834D01*
X132006569Y-132820834D02*
X131921902Y-132863167D01*
X131921902Y-132863167D02*
X131583235Y-132863167D01*
X131583235Y-132863167D02*
X131498569Y-132820834D01*
X131498569Y-132820834D02*
X131456235Y-132736167D01*
X131456235Y-132736167D02*
X131456235Y-132566834D01*
X131456235Y-132566834D02*
X131498569Y-132482167D01*
X131498569Y-132482167D02*
X131583235Y-132439834D01*
X131583235Y-132439834D02*
X131667902Y-132439834D01*
X131667902Y-132439834D02*
X131752569Y-132863167D01*
X132048902Y-131931834D02*
X132006569Y-132016501D01*
X132006569Y-132016501D02*
X131921902Y-132058834D01*
X131921902Y-132058834D02*
X131159902Y-132058834D01*
X132006569Y-131254500D02*
X132048902Y-131339167D01*
X132048902Y-131339167D02*
X132048902Y-131508500D01*
X132048902Y-131508500D02*
X132006569Y-131593167D01*
X132006569Y-131593167D02*
X131921902Y-131635500D01*
X131921902Y-131635500D02*
X131583235Y-131635500D01*
X131583235Y-131635500D02*
X131498569Y-131593167D01*
X131498569Y-131593167D02*
X131456235Y-131508500D01*
X131456235Y-131508500D02*
X131456235Y-131339167D01*
X131456235Y-131339167D02*
X131498569Y-131254500D01*
X131498569Y-131254500D02*
X131583235Y-131212167D01*
X131583235Y-131212167D02*
X131667902Y-131212167D01*
X131667902Y-131212167D02*
X131752569Y-131635500D01*
X132006569Y-130450167D02*
X132048902Y-130534834D01*
X132048902Y-130534834D02*
X132048902Y-130704167D01*
X132048902Y-130704167D02*
X132006569Y-130788834D01*
X132006569Y-130788834D02*
X131964235Y-130831167D01*
X131964235Y-130831167D02*
X131879569Y-130873500D01*
X131879569Y-130873500D02*
X131625569Y-130873500D01*
X131625569Y-130873500D02*
X131540902Y-130831167D01*
X131540902Y-130831167D02*
X131498569Y-130788834D01*
X131498569Y-130788834D02*
X131456235Y-130704167D01*
X131456235Y-130704167D02*
X131456235Y-130534834D01*
X131456235Y-130534834D02*
X131498569Y-130450167D01*
X131456235Y-130196167D02*
X131456235Y-129857500D01*
X131159902Y-130069167D02*
X131921902Y-130069167D01*
X131921902Y-130069167D02*
X132006569Y-130026834D01*
X132006569Y-130026834D02*
X132048902Y-129942167D01*
X132048902Y-129942167D02*
X132048902Y-129857500D01*
X132048902Y-129561167D02*
X131456235Y-129561167D01*
X131625569Y-129561167D02*
X131540902Y-129518834D01*
X131540902Y-129518834D02*
X131498569Y-129476500D01*
X131498569Y-129476500D02*
X131456235Y-129391834D01*
X131456235Y-129391834D02*
X131456235Y-129307167D01*
X132048902Y-128883834D02*
X132006569Y-128968501D01*
X132006569Y-128968501D02*
X131964235Y-129010834D01*
X131964235Y-129010834D02*
X131879569Y-129053167D01*
X131879569Y-129053167D02*
X131625569Y-129053167D01*
X131625569Y-129053167D02*
X131540902Y-129010834D01*
X131540902Y-129010834D02*
X131498569Y-128968501D01*
X131498569Y-128968501D02*
X131456235Y-128883834D01*
X131456235Y-128883834D02*
X131456235Y-128756834D01*
X131456235Y-128756834D02*
X131498569Y-128672167D01*
X131498569Y-128672167D02*
X131540902Y-128629834D01*
X131540902Y-128629834D02*
X131625569Y-128587501D01*
X131625569Y-128587501D02*
X131879569Y-128587501D01*
X131879569Y-128587501D02*
X131964235Y-128629834D01*
X131964235Y-128629834D02*
X132006569Y-128672167D01*
X132006569Y-128672167D02*
X132048902Y-128756834D01*
X132048902Y-128756834D02*
X132048902Y-128883834D01*
X131456235Y-128206501D02*
X132048902Y-128206501D01*
X131540902Y-128206501D02*
X131498569Y-128164168D01*
X131498569Y-128164168D02*
X131456235Y-128079501D01*
X131456235Y-128079501D02*
X131456235Y-127952501D01*
X131456235Y-127952501D02*
X131498569Y-127867834D01*
X131498569Y-127867834D02*
X131583235Y-127825501D01*
X131583235Y-127825501D02*
X132048902Y-127825501D01*
X132048902Y-127402168D02*
X131456235Y-127402168D01*
X131159902Y-127402168D02*
X131202235Y-127444501D01*
X131202235Y-127444501D02*
X131244569Y-127402168D01*
X131244569Y-127402168D02*
X131202235Y-127359835D01*
X131202235Y-127359835D02*
X131159902Y-127402168D01*
X131159902Y-127402168D02*
X131244569Y-127402168D01*
X132006569Y-126597835D02*
X132048902Y-126682502D01*
X132048902Y-126682502D02*
X132048902Y-126851835D01*
X132048902Y-126851835D02*
X132006569Y-126936502D01*
X132006569Y-126936502D02*
X131964235Y-126978835D01*
X131964235Y-126978835D02*
X131879569Y-127021168D01*
X131879569Y-127021168D02*
X131625569Y-127021168D01*
X131625569Y-127021168D02*
X131540902Y-126978835D01*
X131540902Y-126978835D02*
X131498569Y-126936502D01*
X131498569Y-126936502D02*
X131456235Y-126851835D01*
X131456235Y-126851835D02*
X131456235Y-126682502D01*
X131456235Y-126682502D02*
X131498569Y-126597835D01*
X132006569Y-126259168D02*
X132048902Y-126174502D01*
X132048902Y-126174502D02*
X132048902Y-126005168D01*
X132048902Y-126005168D02*
X132006569Y-125920502D01*
X132006569Y-125920502D02*
X131921902Y-125878168D01*
X131921902Y-125878168D02*
X131879569Y-125878168D01*
X131879569Y-125878168D02*
X131794902Y-125920502D01*
X131794902Y-125920502D02*
X131752569Y-126005168D01*
X131752569Y-126005168D02*
X131752569Y-126132168D01*
X131752569Y-126132168D02*
X131710235Y-126216835D01*
X131710235Y-126216835D02*
X131625569Y-126259168D01*
X131625569Y-126259168D02*
X131583235Y-126259168D01*
X131583235Y-126259168D02*
X131498569Y-126216835D01*
X131498569Y-126216835D02*
X131456235Y-126132168D01*
X131456235Y-126132168D02*
X131456235Y-126005168D01*
X131456235Y-126005168D02*
X131498569Y-125920502D01*
X131117569Y-124862168D02*
X132260569Y-125624168D01*
X131159902Y-124565835D02*
X131879569Y-124565835D01*
X131879569Y-124565835D02*
X131964235Y-124523502D01*
X131964235Y-124523502D02*
X132006569Y-124481168D01*
X132006569Y-124481168D02*
X132048902Y-124396502D01*
X132048902Y-124396502D02*
X132048902Y-124227168D01*
X132048902Y-124227168D02*
X132006569Y-124142502D01*
X132006569Y-124142502D02*
X131964235Y-124100168D01*
X131964235Y-124100168D02*
X131879569Y-124057835D01*
X131879569Y-124057835D02*
X131159902Y-124057835D01*
X132048902Y-123634502D02*
X131159902Y-123634502D01*
X131159902Y-123634502D02*
X131794902Y-123338169D01*
X131794902Y-123338169D02*
X131159902Y-123041835D01*
X131159902Y-123041835D02*
X132048902Y-123041835D01*
X132048902Y-122618502D02*
X131159902Y-122618502D01*
X131159902Y-122618502D02*
X131159902Y-122406835D01*
X131159902Y-122406835D02*
X131202235Y-122279835D01*
X131202235Y-122279835D02*
X131286902Y-122195169D01*
X131286902Y-122195169D02*
X131371569Y-122152835D01*
X131371569Y-122152835D02*
X131540902Y-122110502D01*
X131540902Y-122110502D02*
X131667902Y-122110502D01*
X131667902Y-122110502D02*
X131837235Y-122152835D01*
X131837235Y-122152835D02*
X131921902Y-122195169D01*
X131921902Y-122195169D02*
X132006569Y-122279835D01*
X132006569Y-122279835D02*
X132048902Y-122406835D01*
X132048902Y-122406835D02*
X132048902Y-122618502D01*
X131456235Y-121814169D02*
X132048902Y-121602502D01*
X132048902Y-121602502D02*
X131456235Y-121390835D01*
X131159902Y-121136836D02*
X131159902Y-120586502D01*
X131159902Y-120586502D02*
X131498569Y-120882836D01*
X131498569Y-120882836D02*
X131498569Y-120755836D01*
X131498569Y-120755836D02*
X131540902Y-120671169D01*
X131540902Y-120671169D02*
X131583235Y-120628836D01*
X131583235Y-120628836D02*
X131667902Y-120586502D01*
X131667902Y-120586502D02*
X131879569Y-120586502D01*
X131879569Y-120586502D02*
X131964235Y-120628836D01*
X131964235Y-120628836D02*
X132006569Y-120671169D01*
X132006569Y-120671169D02*
X132048902Y-120755836D01*
X132048902Y-120755836D02*
X132048902Y-121009836D01*
X132048902Y-121009836D02*
X132006569Y-121094502D01*
X132006569Y-121094502D02*
X131964235Y-121136836D01*
X131710235Y-120205502D02*
X131710235Y-119528169D01*
X132048902Y-119104835D02*
X131159902Y-119104835D01*
X131710235Y-119020168D02*
X132048902Y-118766168D01*
X131456235Y-118766168D02*
X131794902Y-119104835D01*
X132048902Y-118385168D02*
X131456235Y-118385168D01*
X131159902Y-118385168D02*
X131202235Y-118427501D01*
X131202235Y-118427501D02*
X131244569Y-118385168D01*
X131244569Y-118385168D02*
X131202235Y-118342835D01*
X131202235Y-118342835D02*
X131159902Y-118385168D01*
X131159902Y-118385168D02*
X131244569Y-118385168D01*
X132006569Y-117580835D02*
X132048902Y-117665502D01*
X132048902Y-117665502D02*
X132048902Y-117834835D01*
X132048902Y-117834835D02*
X132006569Y-117919502D01*
X132006569Y-117919502D02*
X131964235Y-117961835D01*
X131964235Y-117961835D02*
X131879569Y-118004168D01*
X131879569Y-118004168D02*
X131625569Y-118004168D01*
X131625569Y-118004168D02*
X131540902Y-117961835D01*
X131540902Y-117961835D02*
X131498569Y-117919502D01*
X131498569Y-117919502D02*
X131456235Y-117834835D01*
X131456235Y-117834835D02*
X131456235Y-117665502D01*
X131456235Y-117665502D02*
X131498569Y-117580835D01*
X132048902Y-116818835D02*
X131583235Y-116818835D01*
X131583235Y-116818835D02*
X131498569Y-116861168D01*
X131498569Y-116861168D02*
X131456235Y-116945835D01*
X131456235Y-116945835D02*
X131456235Y-117115168D01*
X131456235Y-117115168D02*
X131498569Y-117199835D01*
X132006569Y-116818835D02*
X132048902Y-116903502D01*
X132048902Y-116903502D02*
X132048902Y-117115168D01*
X132048902Y-117115168D02*
X132006569Y-117199835D01*
X132006569Y-117199835D02*
X131921902Y-117242168D01*
X131921902Y-117242168D02*
X131837235Y-117242168D01*
X131837235Y-117242168D02*
X131752569Y-117199835D01*
X131752569Y-117199835D02*
X131710235Y-117115168D01*
X131710235Y-117115168D02*
X131710235Y-116903502D01*
X131710235Y-116903502D02*
X131667902Y-116818835D01*
X132048902Y-116014502D02*
X131159902Y-116014502D01*
X132006569Y-116014502D02*
X132048902Y-116099169D01*
X132048902Y-116099169D02*
X132048902Y-116268502D01*
X132048902Y-116268502D02*
X132006569Y-116353169D01*
X132006569Y-116353169D02*
X131964235Y-116395502D01*
X131964235Y-116395502D02*
X131879569Y-116437835D01*
X131879569Y-116437835D02*
X131625569Y-116437835D01*
X131625569Y-116437835D02*
X131540902Y-116395502D01*
X131540902Y-116395502D02*
X131498569Y-116353169D01*
X131498569Y-116353169D02*
X131456235Y-116268502D01*
X131456235Y-116268502D02*
X131456235Y-116099169D01*
X131456235Y-116099169D02*
X131498569Y-116014502D01*
X134174035Y-68982166D02*
X134216369Y-69024499D01*
X134216369Y-69024499D02*
X134258702Y-69151499D01*
X134258702Y-69151499D02*
X134258702Y-69236166D01*
X134258702Y-69236166D02*
X134216369Y-69363166D01*
X134216369Y-69363166D02*
X134131702Y-69447833D01*
X134131702Y-69447833D02*
X134047035Y-69490166D01*
X134047035Y-69490166D02*
X133877702Y-69532499D01*
X133877702Y-69532499D02*
X133750702Y-69532499D01*
X133750702Y-69532499D02*
X133581369Y-69490166D01*
X133581369Y-69490166D02*
X133496702Y-69447833D01*
X133496702Y-69447833D02*
X133412035Y-69363166D01*
X133412035Y-69363166D02*
X133369702Y-69236166D01*
X133369702Y-69236166D02*
X133369702Y-69151499D01*
X133369702Y-69151499D02*
X133412035Y-69024499D01*
X133412035Y-69024499D02*
X133454369Y-68982166D01*
X133369702Y-68431833D02*
X133369702Y-68262499D01*
X133369702Y-68262499D02*
X133412035Y-68177833D01*
X133412035Y-68177833D02*
X133496702Y-68093166D01*
X133496702Y-68093166D02*
X133666035Y-68050833D01*
X133666035Y-68050833D02*
X133962369Y-68050833D01*
X133962369Y-68050833D02*
X134131702Y-68093166D01*
X134131702Y-68093166D02*
X134216369Y-68177833D01*
X134216369Y-68177833D02*
X134258702Y-68262499D01*
X134258702Y-68262499D02*
X134258702Y-68431833D01*
X134258702Y-68431833D02*
X134216369Y-68516499D01*
X134216369Y-68516499D02*
X134131702Y-68601166D01*
X134131702Y-68601166D02*
X133962369Y-68643499D01*
X133962369Y-68643499D02*
X133666035Y-68643499D01*
X133666035Y-68643499D02*
X133496702Y-68601166D01*
X133496702Y-68601166D02*
X133412035Y-68516499D01*
X133412035Y-68516499D02*
X133369702Y-68431833D01*
X134258702Y-67669833D02*
X133369702Y-67669833D01*
X133369702Y-67669833D02*
X134258702Y-67161833D01*
X134258702Y-67161833D02*
X133369702Y-67161833D01*
X134258702Y-66272833D02*
X134258702Y-66780833D01*
X134258702Y-66526833D02*
X133369702Y-66526833D01*
X133369702Y-66526833D02*
X133496702Y-66611500D01*
X133496702Y-66611500D02*
X133581369Y-66696167D01*
X133581369Y-66696167D02*
X133623702Y-66780833D01*
X133369702Y-65722500D02*
X133369702Y-65637833D01*
X133369702Y-65637833D02*
X133412035Y-65553166D01*
X133412035Y-65553166D02*
X133454369Y-65510833D01*
X133454369Y-65510833D02*
X133539035Y-65468500D01*
X133539035Y-65468500D02*
X133708369Y-65426166D01*
X133708369Y-65426166D02*
X133920035Y-65426166D01*
X133920035Y-65426166D02*
X134089369Y-65468500D01*
X134089369Y-65468500D02*
X134174035Y-65510833D01*
X134174035Y-65510833D02*
X134216369Y-65553166D01*
X134216369Y-65553166D02*
X134258702Y-65637833D01*
X134258702Y-65637833D02*
X134258702Y-65722500D01*
X134258702Y-65722500D02*
X134216369Y-65807166D01*
X134216369Y-65807166D02*
X134174035Y-65849500D01*
X134174035Y-65849500D02*
X134089369Y-65891833D01*
X134089369Y-65891833D02*
X133920035Y-65934166D01*
X133920035Y-65934166D02*
X133708369Y-65934166D01*
X133708369Y-65934166D02*
X133539035Y-65891833D01*
X133539035Y-65891833D02*
X133454369Y-65849500D01*
X133454369Y-65849500D02*
X133412035Y-65807166D01*
X133412035Y-65807166D02*
X133369702Y-65722500D01*
X134258702Y-64579499D02*
X134258702Y-65087499D01*
X134258702Y-64833499D02*
X133369702Y-64833499D01*
X133369702Y-64833499D02*
X133496702Y-64918166D01*
X133496702Y-64918166D02*
X133581369Y-65002833D01*
X133581369Y-65002833D02*
X133623702Y-65087499D01*
D11*
X154968844Y-57254183D02*
X154968790Y-57362780D01*
X154968632Y-57466277D01*
X154968379Y-57563401D01*
X154968040Y-57652880D01*
X154967621Y-57733440D01*
X154967133Y-57803809D01*
X154966582Y-57862712D01*
X154965977Y-57908879D01*
X154965327Y-57941034D01*
X154964640Y-57957906D01*
X154964269Y-57960217D01*
X154957678Y-57953516D01*
X154955910Y-57949454D01*
X154935531Y-57892036D01*
X154919193Y-57847432D01*
X154905528Y-57812106D01*
X154893167Y-57782523D01*
X154880741Y-57755149D01*
X154880484Y-57754603D01*
X154806253Y-57615241D01*
X154719326Y-57484511D01*
X154621296Y-57364513D01*
X154513759Y-57257346D01*
X154482370Y-57230100D01*
X154352430Y-57130996D01*
X154216791Y-57047738D01*
X154074641Y-56979995D01*
X153925171Y-56927435D01*
X153767571Y-56889726D01*
X153601033Y-56866535D01*
X153594462Y-56865930D01*
X153452041Y-56861235D01*
X153306067Y-56871928D01*
X153159147Y-56897320D01*
X153013890Y-56936719D01*
X152872905Y-56989435D01*
X152738800Y-57054777D01*
X152629618Y-57121451D01*
X152590232Y-57149178D01*
X152547573Y-57180980D01*
X152505535Y-57213787D01*
X152468010Y-57244526D01*
X152438892Y-57270124D01*
X152428844Y-57279889D01*
X152420671Y-57288409D01*
X152413903Y-57294712D01*
X152408407Y-57297447D01*
X152404052Y-57295264D01*
X152400706Y-57286811D01*
X152398235Y-57270737D01*
X152396508Y-57245692D01*
X152395393Y-57210326D01*
X152394757Y-57163285D01*
X152394468Y-57103221D01*
X152394395Y-57028783D01*
X152394403Y-56938618D01*
X152394404Y-56928051D01*
X152394404Y-56548149D01*
X154968844Y-56548149D01*
X154968844Y-57254183D01*
G36*
X154968844Y-57254183D02*
G01*
X154968790Y-57362780D01*
X154968632Y-57466277D01*
X154968379Y-57563401D01*
X154968040Y-57652880D01*
X154967621Y-57733440D01*
X154967133Y-57803809D01*
X154966582Y-57862712D01*
X154965977Y-57908879D01*
X154965327Y-57941034D01*
X154964640Y-57957906D01*
X154964269Y-57960217D01*
X154957678Y-57953516D01*
X154955910Y-57949454D01*
X154935531Y-57892036D01*
X154919193Y-57847432D01*
X154905528Y-57812106D01*
X154893167Y-57782523D01*
X154880741Y-57755149D01*
X154880484Y-57754603D01*
X154806253Y-57615241D01*
X154719326Y-57484511D01*
X154621296Y-57364513D01*
X154513759Y-57257346D01*
X154482370Y-57230100D01*
X154352430Y-57130996D01*
X154216791Y-57047738D01*
X154074641Y-56979995D01*
X153925171Y-56927435D01*
X153767571Y-56889726D01*
X153601033Y-56866535D01*
X153594462Y-56865930D01*
X153452041Y-56861235D01*
X153306067Y-56871928D01*
X153159147Y-56897320D01*
X153013890Y-56936719D01*
X152872905Y-56989435D01*
X152738800Y-57054777D01*
X152629618Y-57121451D01*
X152590232Y-57149178D01*
X152547573Y-57180980D01*
X152505535Y-57213787D01*
X152468010Y-57244526D01*
X152438892Y-57270124D01*
X152428844Y-57279889D01*
X152420671Y-57288409D01*
X152413903Y-57294712D01*
X152408407Y-57297447D01*
X152404052Y-57295264D01*
X152400706Y-57286811D01*
X152398235Y-57270737D01*
X152396508Y-57245692D01*
X152395393Y-57210326D01*
X152394757Y-57163285D01*
X152394468Y-57103221D01*
X152394395Y-57028783D01*
X152394403Y-56938618D01*
X152394404Y-56928051D01*
X152394404Y-56548149D01*
X154968844Y-56548149D01*
X154968844Y-57254183D01*
G37*
X153544510Y-57311101D02*
X153591979Y-57312143D01*
X153629764Y-57314201D01*
X153661628Y-57317589D01*
X153691339Y-57322618D01*
X153722661Y-57329603D01*
X153728980Y-57331146D01*
X153812319Y-57354158D01*
X153886628Y-57380587D01*
X153960096Y-57413527D01*
X153997655Y-57432658D01*
X154112070Y-57502357D01*
X154215959Y-57584994D01*
X154308447Y-57679245D01*
X154388658Y-57783783D01*
X154455716Y-57897284D01*
X154508745Y-58018423D01*
X154546868Y-58145875D01*
X154569211Y-58278315D01*
X154571299Y-58300318D01*
X154574458Y-58436162D01*
X154561216Y-58569369D01*
X154532202Y-58698626D01*
X154488045Y-58822620D01*
X154429372Y-58940039D01*
X154356814Y-59049568D01*
X154270998Y-59149896D01*
X154172553Y-59239708D01*
X154094125Y-59297178D01*
X153986106Y-59361809D01*
X153876998Y-59411800D01*
X153761794Y-59449280D01*
X153703149Y-59463390D01*
X153672707Y-59468262D01*
X153630591Y-59472698D01*
X153580967Y-59476500D01*
X153527996Y-59479471D01*
X153475842Y-59481412D01*
X153428669Y-59482127D01*
X153390639Y-59481417D01*
X153367353Y-59479343D01*
X153347977Y-59476150D01*
X153318164Y-59471322D01*
X153285556Y-59466094D01*
X153176366Y-59440986D01*
X153065808Y-59401079D01*
X152957268Y-59348123D01*
X152854134Y-59283869D01*
X152759792Y-59210070D01*
X152721148Y-59174251D01*
X152629324Y-59072871D01*
X152552194Y-58962884D01*
X152489441Y-58843726D01*
X152440749Y-58714836D01*
X152420050Y-58640420D01*
X152409800Y-58586239D01*
X152402110Y-58520412D01*
X152397217Y-58448360D01*
X152395364Y-58375501D01*
X152396788Y-58307253D01*
X152401731Y-58249036D01*
X152402477Y-58243632D01*
X152430410Y-58107905D01*
X152473809Y-57979491D01*
X152532432Y-57858883D01*
X152606040Y-57746570D01*
X152694394Y-57643042D01*
X152697785Y-57639549D01*
X152796258Y-57548703D01*
X152900415Y-57473002D01*
X153012383Y-57411223D01*
X153134286Y-57362142D01*
X153227637Y-57334433D01*
X153261740Y-57325929D01*
X153291029Y-57319722D01*
X153319316Y-57315457D01*
X153350411Y-57312784D01*
X153388126Y-57311350D01*
X153436272Y-57310802D01*
X153483590Y-57310764D01*
X153544510Y-57311101D01*
G36*
X153544510Y-57311101D02*
G01*
X153591979Y-57312143D01*
X153629764Y-57314201D01*
X153661628Y-57317589D01*
X153691339Y-57322618D01*
X153722661Y-57329603D01*
X153728980Y-57331146D01*
X153812319Y-57354158D01*
X153886628Y-57380587D01*
X153960096Y-57413527D01*
X153997655Y-57432658D01*
X154112070Y-57502357D01*
X154215959Y-57584994D01*
X154308447Y-57679245D01*
X154388658Y-57783783D01*
X154455716Y-57897284D01*
X154508745Y-58018423D01*
X154546868Y-58145875D01*
X154569211Y-58278315D01*
X154571299Y-58300318D01*
X154574458Y-58436162D01*
X154561216Y-58569369D01*
X154532202Y-58698626D01*
X154488045Y-58822620D01*
X154429372Y-58940039D01*
X154356814Y-59049568D01*
X154270998Y-59149896D01*
X154172553Y-59239708D01*
X154094125Y-59297178D01*
X153986106Y-59361809D01*
X153876998Y-59411800D01*
X153761794Y-59449280D01*
X153703149Y-59463390D01*
X153672707Y-59468262D01*
X153630591Y-59472698D01*
X153580967Y-59476500D01*
X153527996Y-59479471D01*
X153475842Y-59481412D01*
X153428669Y-59482127D01*
X153390639Y-59481417D01*
X153367353Y-59479343D01*
X153347977Y-59476150D01*
X153318164Y-59471322D01*
X153285556Y-59466094D01*
X153176366Y-59440986D01*
X153065808Y-59401079D01*
X152957268Y-59348123D01*
X152854134Y-59283869D01*
X152759792Y-59210070D01*
X152721148Y-59174251D01*
X152629324Y-59072871D01*
X152552194Y-58962884D01*
X152489441Y-58843726D01*
X152440749Y-58714836D01*
X152420050Y-58640420D01*
X152409800Y-58586239D01*
X152402110Y-58520412D01*
X152397217Y-58448360D01*
X152395364Y-58375501D01*
X152396788Y-58307253D01*
X152401731Y-58249036D01*
X152402477Y-58243632D01*
X152430410Y-58107905D01*
X152473809Y-57979491D01*
X152532432Y-57858883D01*
X152606040Y-57746570D01*
X152694394Y-57643042D01*
X152697785Y-57639549D01*
X152796258Y-57548703D01*
X152900415Y-57473002D01*
X153012383Y-57411223D01*
X153134286Y-57362142D01*
X153227637Y-57334433D01*
X153261740Y-57325929D01*
X153291029Y-57319722D01*
X153319316Y-57315457D01*
X153350411Y-57312784D01*
X153388126Y-57311350D01*
X153436272Y-57310802D01*
X153483590Y-57310764D01*
X153544510Y-57311101D01*
G37*
X150058805Y-57311256D02*
X150185995Y-57332757D01*
X150308546Y-57368708D01*
X150425368Y-57418418D01*
X150535369Y-57481195D01*
X150637460Y-57556348D01*
X150730548Y-57643184D01*
X150813544Y-57741011D01*
X150885355Y-57849138D01*
X150944892Y-57966873D01*
X150991064Y-58093524D01*
X151017745Y-58201302D01*
X151023838Y-58245730D01*
X151027634Y-58302435D01*
X151029185Y-58366634D01*
X151028543Y-58433543D01*
X151025761Y-58498380D01*
X151020891Y-58556363D01*
X151013986Y-58602708D01*
X151013302Y-58605980D01*
X150975423Y-58741860D01*
X150921853Y-58871475D01*
X150853265Y-58993237D01*
X150841770Y-59010657D01*
X150806539Y-59057487D01*
X150761036Y-59109864D01*
X150709253Y-59163809D01*
X150655183Y-59215339D01*
X150602817Y-59260474D01*
X150556934Y-59294708D01*
X150439689Y-59363112D01*
X150315746Y-59416684D01*
X150186964Y-59455005D01*
X150055201Y-59477655D01*
X149922314Y-59484216D01*
X149790162Y-59474267D01*
X149772607Y-59471657D01*
X149678358Y-59452917D01*
X149589993Y-59426564D01*
X149500389Y-59390320D01*
X149462641Y-59372561D01*
X149345138Y-59306309D01*
X149239256Y-59228395D01*
X149145320Y-59140101D01*
X149063654Y-59042710D01*
X148994585Y-58937507D01*
X148938437Y-58825774D01*
X148895535Y-58708794D01*
X148866205Y-58587852D01*
X148850771Y-58464230D01*
X148849558Y-58339211D01*
X148862893Y-58214079D01*
X148891098Y-58090118D01*
X148934501Y-57968610D01*
X148993426Y-57850838D01*
X149053610Y-57757878D01*
X149134674Y-57659151D01*
X149228229Y-57569557D01*
X149331853Y-57490762D01*
X149443125Y-57424431D01*
X149559625Y-57372230D01*
X149660311Y-57340378D01*
X149794872Y-57314375D01*
X149928067Y-57304898D01*
X150058805Y-57311256D01*
G36*
X150058805Y-57311256D02*
G01*
X150185995Y-57332757D01*
X150308546Y-57368708D01*
X150425368Y-57418418D01*
X150535369Y-57481195D01*
X150637460Y-57556348D01*
X150730548Y-57643184D01*
X150813544Y-57741011D01*
X150885355Y-57849138D01*
X150944892Y-57966873D01*
X150991064Y-58093524D01*
X151017745Y-58201302D01*
X151023838Y-58245730D01*
X151027634Y-58302435D01*
X151029185Y-58366634D01*
X151028543Y-58433543D01*
X151025761Y-58498380D01*
X151020891Y-58556363D01*
X151013986Y-58602708D01*
X151013302Y-58605980D01*
X150975423Y-58741860D01*
X150921853Y-58871475D01*
X150853265Y-58993237D01*
X150841770Y-59010657D01*
X150806539Y-59057487D01*
X150761036Y-59109864D01*
X150709253Y-59163809D01*
X150655183Y-59215339D01*
X150602817Y-59260474D01*
X150556934Y-59294708D01*
X150439689Y-59363112D01*
X150315746Y-59416684D01*
X150186964Y-59455005D01*
X150055201Y-59477655D01*
X149922314Y-59484216D01*
X149790162Y-59474267D01*
X149772607Y-59471657D01*
X149678358Y-59452917D01*
X149589993Y-59426564D01*
X149500389Y-59390320D01*
X149462641Y-59372561D01*
X149345138Y-59306309D01*
X149239256Y-59228395D01*
X149145320Y-59140101D01*
X149063654Y-59042710D01*
X148994585Y-58937507D01*
X148938437Y-58825774D01*
X148895535Y-58708794D01*
X148866205Y-58587852D01*
X148850771Y-58464230D01*
X148849558Y-58339211D01*
X148862893Y-58214079D01*
X148891098Y-58090118D01*
X148934501Y-57968610D01*
X148993426Y-57850838D01*
X149053610Y-57757878D01*
X149134674Y-57659151D01*
X149228229Y-57569557D01*
X149331853Y-57490762D01*
X149443125Y-57424431D01*
X149559625Y-57372230D01*
X149660311Y-57340378D01*
X149794872Y-57314375D01*
X149928067Y-57304898D01*
X150058805Y-57311256D01*
G37*
X154963676Y-58838384D02*
X154964880Y-58862221D01*
X154965971Y-58899954D01*
X154966925Y-58949920D01*
X154967716Y-59010457D01*
X154968316Y-59079901D01*
X154968701Y-59156591D01*
X154968844Y-59238865D01*
X154968844Y-59656420D01*
X154667488Y-59656420D01*
X154597389Y-59656340D01*
X154533065Y-59656112D01*
X154476465Y-59655756D01*
X154429537Y-59655290D01*
X154394229Y-59654732D01*
X154372491Y-59654103D01*
X154366132Y-59653508D01*
X154372491Y-59647368D01*
X154389656Y-59633098D01*
X154414763Y-59613037D01*
X154435903Y-59596514D01*
X154540447Y-59506347D01*
X154638399Y-59403864D01*
X154727737Y-59291888D01*
X154806438Y-59173241D01*
X154872477Y-59050747D01*
X154923831Y-58927228D01*
X154931248Y-58905443D01*
X154942707Y-58872552D01*
X154952867Y-58846924D01*
X154960213Y-58832218D01*
X154962387Y-58830104D01*
X154963676Y-58838384D01*
G36*
X154963676Y-58838384D02*
G01*
X154964880Y-58862221D01*
X154965971Y-58899954D01*
X154966925Y-58949920D01*
X154967716Y-59010457D01*
X154968316Y-59079901D01*
X154968701Y-59156591D01*
X154968844Y-59238865D01*
X154968844Y-59656420D01*
X154667488Y-59656420D01*
X154597389Y-59656340D01*
X154533065Y-59656112D01*
X154476465Y-59655756D01*
X154429537Y-59655290D01*
X154394229Y-59654732D01*
X154372491Y-59654103D01*
X154366132Y-59653508D01*
X154372491Y-59647368D01*
X154389656Y-59633098D01*
X154414763Y-59613037D01*
X154435903Y-59596514D01*
X154540447Y-59506347D01*
X154638399Y-59403864D01*
X154727737Y-59291888D01*
X154806438Y-59173241D01*
X154872477Y-59050747D01*
X154923831Y-58927228D01*
X154931248Y-58905443D01*
X154942707Y-58872552D01*
X154952867Y-58846924D01*
X154960213Y-58832218D01*
X154962387Y-58830104D01*
X154963676Y-58838384D01*
G37*
X151946675Y-57498522D02*
X151946700Y-57655335D01*
X151946797Y-57795992D01*
X151946997Y-57921561D01*
X151947331Y-58033106D01*
X151947830Y-58131693D01*
X151948526Y-58218387D01*
X151949450Y-58294254D01*
X151950634Y-58360359D01*
X151952109Y-58417769D01*
X151953905Y-58467548D01*
X151956055Y-58510762D01*
X151958590Y-58548477D01*
X151961540Y-58581758D01*
X151964938Y-58611671D01*
X151968815Y-58639281D01*
X151973201Y-58665654D01*
X151978129Y-58691855D01*
X151982362Y-58712826D01*
X152014271Y-58835923D01*
X152058972Y-58961231D01*
X152114462Y-59084521D01*
X152178737Y-59201563D01*
X152249794Y-59308126D01*
X152286816Y-59355642D01*
X152322359Y-59396247D01*
X152366459Y-59442828D01*
X152414655Y-59490971D01*
X152462485Y-59536263D01*
X152505490Y-59574291D01*
X152519251Y-59585610D01*
X152547811Y-59608600D01*
X152572271Y-59628523D01*
X152588714Y-59642180D01*
X152592130Y-59645137D01*
X152591751Y-59646990D01*
X152585658Y-59648637D01*
X152572983Y-59650090D01*
X152552857Y-59651360D01*
X152524414Y-59652457D01*
X152486784Y-59653393D01*
X152439101Y-59654180D01*
X152380496Y-59654827D01*
X152310102Y-59655347D01*
X152227051Y-59655750D01*
X152130475Y-59656047D01*
X152019506Y-59656251D01*
X151893276Y-59656370D01*
X151750918Y-59656418D01*
X151711452Y-59656420D01*
X150818166Y-59656420D01*
X150903840Y-59587507D01*
X151023445Y-59480354D01*
X151130936Y-59361442D01*
X151225468Y-59232030D01*
X151306195Y-59093382D01*
X151372273Y-58946758D01*
X151413173Y-58827418D01*
X151421178Y-58800763D01*
X151428358Y-58776845D01*
X151434763Y-58754633D01*
X151440440Y-58733100D01*
X151445439Y-58711216D01*
X151449808Y-58687953D01*
X151453597Y-58662281D01*
X151456855Y-58633172D01*
X151459630Y-58599596D01*
X151461972Y-58560526D01*
X151463928Y-58514931D01*
X151465549Y-58461784D01*
X151466882Y-58400054D01*
X151467977Y-58328714D01*
X151468883Y-58246735D01*
X151469649Y-58153087D01*
X151470323Y-58046742D01*
X151470954Y-57926670D01*
X151471592Y-57791844D01*
X151472284Y-57641233D01*
X151472584Y-57577064D01*
X151477421Y-56552454D01*
X151946675Y-56547872D01*
X151946675Y-57498522D01*
G36*
X151946675Y-57498522D02*
G01*
X151946700Y-57655335D01*
X151946797Y-57795992D01*
X151946997Y-57921561D01*
X151947331Y-58033106D01*
X151947830Y-58131693D01*
X151948526Y-58218387D01*
X151949450Y-58294254D01*
X151950634Y-58360359D01*
X151952109Y-58417769D01*
X151953905Y-58467548D01*
X151956055Y-58510762D01*
X151958590Y-58548477D01*
X151961540Y-58581758D01*
X151964938Y-58611671D01*
X151968815Y-58639281D01*
X151973201Y-58665654D01*
X151978129Y-58691855D01*
X151982362Y-58712826D01*
X152014271Y-58835923D01*
X152058972Y-58961231D01*
X152114462Y-59084521D01*
X152178737Y-59201563D01*
X152249794Y-59308126D01*
X152286816Y-59355642D01*
X152322359Y-59396247D01*
X152366459Y-59442828D01*
X152414655Y-59490971D01*
X152462485Y-59536263D01*
X152505490Y-59574291D01*
X152519251Y-59585610D01*
X152547811Y-59608600D01*
X152572271Y-59628523D01*
X152588714Y-59642180D01*
X152592130Y-59645137D01*
X152591751Y-59646990D01*
X152585658Y-59648637D01*
X152572983Y-59650090D01*
X152552857Y-59651360D01*
X152524414Y-59652457D01*
X152486784Y-59653393D01*
X152439101Y-59654180D01*
X152380496Y-59654827D01*
X152310102Y-59655347D01*
X152227051Y-59655750D01*
X152130475Y-59656047D01*
X152019506Y-59656251D01*
X151893276Y-59656370D01*
X151750918Y-59656418D01*
X151711452Y-59656420D01*
X150818166Y-59656420D01*
X150903840Y-59587507D01*
X151023445Y-59480354D01*
X151130936Y-59361442D01*
X151225468Y-59232030D01*
X151306195Y-59093382D01*
X151372273Y-58946758D01*
X151413173Y-58827418D01*
X151421178Y-58800763D01*
X151428358Y-58776845D01*
X151434763Y-58754633D01*
X151440440Y-58733100D01*
X151445439Y-58711216D01*
X151449808Y-58687953D01*
X151453597Y-58662281D01*
X151456855Y-58633172D01*
X151459630Y-58599596D01*
X151461972Y-58560526D01*
X151463928Y-58514931D01*
X151465549Y-58461784D01*
X151466882Y-58400054D01*
X151467977Y-58328714D01*
X151468883Y-58246735D01*
X151469649Y-58153087D01*
X151470323Y-58046742D01*
X151470954Y-57926670D01*
X151471592Y-57791844D01*
X151472284Y-57641233D01*
X151472584Y-57577064D01*
X151477421Y-56552454D01*
X151946675Y-56547872D01*
X151946675Y-57498522D01*
G37*
X149219404Y-56550281D02*
X151029692Y-56552454D01*
X151031935Y-56929149D01*
X151032293Y-57007819D01*
X151032412Y-57080920D01*
X151032305Y-57146709D01*
X151031985Y-57203444D01*
X151031464Y-57249381D01*
X151030755Y-57282779D01*
X151029872Y-57301893D01*
X151029172Y-57305844D01*
X151020984Y-57300468D01*
X151003178Y-57286049D01*
X150978857Y-57265150D01*
X150964620Y-57252531D01*
X150853616Y-57163204D01*
X150730597Y-57082301D01*
X150599453Y-57011901D01*
X150464075Y-56954085D01*
X150328351Y-56910932D01*
X150323377Y-56909645D01*
X150215367Y-56886998D01*
X150099150Y-56871668D01*
X149979979Y-56863928D01*
X149863111Y-56864047D01*
X149753799Y-56872297D01*
X149712336Y-56878101D01*
X149551630Y-56912429D01*
X149397972Y-56961830D01*
X149252182Y-57025557D01*
X149115084Y-57102867D01*
X148987499Y-57193013D01*
X148870249Y-57295250D01*
X148764156Y-57408832D01*
X148670043Y-57533015D01*
X148588730Y-57667053D01*
X148521041Y-57810200D01*
X148467797Y-57961711D01*
X148451505Y-58021396D01*
X148433814Y-58098150D01*
X148421235Y-58169719D01*
X148413282Y-58241106D01*
X148409466Y-58317311D01*
X148409298Y-58403336D01*
X148410223Y-58444463D01*
X148417922Y-58574960D01*
X148433994Y-58694269D01*
X148459541Y-58806811D01*
X148495666Y-58917009D01*
X148543471Y-59029285D01*
X148569157Y-59081800D01*
X148645775Y-59217483D01*
X148732266Y-59340670D01*
X148830624Y-59453795D01*
X148942841Y-59559292D01*
X148996103Y-59603116D01*
X149063396Y-59656420D01*
X147409116Y-59656420D01*
X147409116Y-56548109D01*
X149219404Y-56550281D01*
G36*
X149219404Y-56550281D02*
G01*
X151029692Y-56552454D01*
X151031935Y-56929149D01*
X151032293Y-57007819D01*
X151032412Y-57080920D01*
X151032305Y-57146709D01*
X151031985Y-57203444D01*
X151031464Y-57249381D01*
X151030755Y-57282779D01*
X151029872Y-57301893D01*
X151029172Y-57305844D01*
X151020984Y-57300468D01*
X151003178Y-57286049D01*
X150978857Y-57265150D01*
X150964620Y-57252531D01*
X150853616Y-57163204D01*
X150730597Y-57082301D01*
X150599453Y-57011901D01*
X150464075Y-56954085D01*
X150328351Y-56910932D01*
X150323377Y-56909645D01*
X150215367Y-56886998D01*
X150099150Y-56871668D01*
X149979979Y-56863928D01*
X149863111Y-56864047D01*
X149753799Y-56872297D01*
X149712336Y-56878101D01*
X149551630Y-56912429D01*
X149397972Y-56961830D01*
X149252182Y-57025557D01*
X149115084Y-57102867D01*
X148987499Y-57193013D01*
X148870249Y-57295250D01*
X148764156Y-57408832D01*
X148670043Y-57533015D01*
X148588730Y-57667053D01*
X148521041Y-57810200D01*
X148467797Y-57961711D01*
X148451505Y-58021396D01*
X148433814Y-58098150D01*
X148421235Y-58169719D01*
X148413282Y-58241106D01*
X148409466Y-58317311D01*
X148409298Y-58403336D01*
X148410223Y-58444463D01*
X148417922Y-58574960D01*
X148433994Y-58694269D01*
X148459541Y-58806811D01*
X148495666Y-58917009D01*
X148543471Y-59029285D01*
X148569157Y-59081800D01*
X148645775Y-59217483D01*
X148732266Y-59340670D01*
X148830624Y-59453795D01*
X148942841Y-59559292D01*
X148996103Y-59603116D01*
X149063396Y-59656420D01*
X147409116Y-59656420D01*
X147409116Y-56548109D01*
X149219404Y-56550281D01*
G37*
D12*
X140335000Y-61595000D02*
X140335000Y-149225000D01*
X140335000Y-61595000D02*
X149225000Y-61595000D01*
X140335000Y-149225000D02*
X149225000Y-149225000D01*
X149225000Y-149225000D02*
X149225000Y-61595000D01*
X134620000Y-64770000D02*
X134620000Y-146050000D01*
X134620000Y-67310000D02*
X137160000Y-67310000D01*
X134620000Y-146050000D02*
X137160000Y-146050000D01*
X137160000Y-64770000D02*
X134620000Y-64770000D01*
X137160000Y-146050000D02*
X137160000Y-64770000D01*
X152400000Y-64770000D02*
X152400000Y-146050000D01*
X152400000Y-67310000D02*
X154940000Y-67310000D01*
X152400000Y-146050000D02*
X154940000Y-146050000D01*
X154940000Y-64770000D02*
X152400000Y-64770000D01*
X154940000Y-146050000D02*
X154940000Y-64770000D01*
M02*
