M48
; DRILL file {KiCad 7.0.8} date Sat Dec 16 13:01:52 2023
; FORMAT={3:3/ absolute / metric / suppress leading zeros}
; #@! TF.CreationDate,2023-12-16T13:01:52-05:00
; #@! TF.GenerationSoftware,Kicad,Pcbnew,7.0.8
; #@! TF.FileFunction,MixedPlating,1,2
FMAT,2
METRIC,TZ
; #@! TA.AperFunction,Plated,PTH,ViaDrill
T1C0.254
; #@! TA.AperFunction,Plated,PTH,ComponentDrill
T2C1.016
%
G90
G05
T1
X131242Y-92685
X131267Y-80010
X131623Y-85090
X131968Y-124450
X131978Y-90170
X131978Y-91440
X132334Y-148336
X132690Y-89789
X133452Y-129540
X134036Y-127000
X134518Y-112801
X137363Y-97790
X137897Y-110465
X138811Y-134239
X138811Y-137160
X138811Y-139700
X138836Y-116840
X139065Y-76200
X139065Y-78867
X139192Y-109220
X139548Y-106680
X140081Y-101600
X144018Y-95123
X144145Y-126238
X144399Y-91973
X144551Y-132080
X144602Y-134620
X144755Y-107950
X144780Y-81280
X144818Y-128270
X145093Y-84747
X145136Y-90145
X145136Y-104470
X145161Y-119380
X145161Y-129540
X145542Y-73025
X145567Y-103226
X145669Y-82423
X146710Y-59817
X149530Y-111760
X149885Y-109195
X150241Y-106680
X150597Y-104140
X150749Y-78740
X150749Y-81280
X151207Y-125452
X151511Y-63500
X154838Y-128270
X155575Y-95123
X155702Y-115951
T2
X135890Y-66040
X135890Y-68580
X135890Y-71120
X135890Y-73660
X135890Y-76200
X135890Y-78740
X135890Y-81280
X135890Y-83820
X135890Y-86360
X135890Y-88900
X135890Y-91440
X135890Y-93980
X135890Y-96520
X135890Y-99060
X135890Y-101600
X135890Y-104140
X135890Y-106680
X135890Y-109220
X135890Y-111760
X135890Y-114300
X135890Y-116840
X135890Y-119380
X135890Y-121920
X135890Y-124460
X135890Y-127000
X135890Y-129540
X135890Y-132080
X135890Y-134620
X135890Y-137160
X135890Y-139700
X135890Y-142240
X135890Y-144780
X142240Y-66040
X142240Y-68580
X142240Y-71120
X142240Y-73660
X142240Y-76200
X142240Y-78740
X142240Y-81280
X142240Y-83820
X142240Y-86360
X142240Y-88900
X142240Y-91440
X142240Y-93980
X142240Y-96520
X142240Y-99060
X142240Y-101600
X142240Y-104140
X142240Y-106680
X142240Y-109220
X142240Y-111760
X142240Y-114300
X142240Y-116840
X142240Y-119380
X142240Y-121920
X142240Y-124460
X142240Y-127000
X142240Y-129540
X142240Y-132080
X142240Y-134620
X142240Y-137160
X142240Y-139700
X142240Y-142240
X142240Y-144780
X147320Y-66040
X147320Y-68580
X147320Y-71120
X147320Y-73660
X147320Y-76200
X147320Y-78740
X147320Y-81280
X147320Y-83820
X147320Y-86360
X147320Y-88900
X147320Y-91440
X147320Y-93980
X147320Y-96520
X147320Y-99060
X147320Y-101600
X147320Y-104140
X147320Y-106680
X147320Y-109220
X147320Y-111760
X147320Y-114300
X147320Y-116840
X147320Y-119380
X147320Y-121920
X147320Y-124460
X147320Y-127000
X147320Y-129540
X147320Y-132080
X147320Y-134620
X147320Y-137160
X147320Y-139700
X147320Y-142240
X147320Y-144780
X153670Y-66040
X153670Y-68580
X153670Y-71120
X153670Y-73660
X153670Y-76200
X153670Y-78740
X153670Y-81280
X153670Y-83820
X153670Y-86360
X153670Y-88900
X153670Y-91440
X153670Y-93980
X153670Y-96520
X153670Y-99060
X153670Y-101600
X153670Y-104140
X153670Y-106680
X153670Y-109220
X153670Y-111760
X153670Y-114300
X153670Y-116840
X153670Y-119380
X153670Y-121920
X153670Y-124460
X153670Y-127000
X153670Y-129540
X153670Y-132080
X153670Y-134620
X153670Y-137160
X153670Y-139700
X153670Y-142240
X153670Y-144780
T0
M30
