G04 #@! TF.GenerationSoftware,KiCad,Pcbnew,7.0.8*
G04 #@! TF.CreationDate,2023-12-16T13:01:39-05:00*
G04 #@! TF.ProjectId,genesis-umd,67656e65-7369-4732-9d75-6d642e6b6963,3.0*
G04 #@! TF.SameCoordinates,Original*
G04 #@! TF.FileFunction,Legend,Top*
G04 #@! TF.FilePolarity,Positive*
%FSLAX46Y46*%
G04 Gerber Fmt 4.6, Leading zero omitted, Abs format (unit mm)*
G04 Created by KiCad (PCBNEW 7.0.8) date 2023-12-16 13:01:39*
%MOMM*%
%LPD*%
G01*
G04 APERTURE LIST*
%ADD10C,0.152400*%
%ADD11C,0.203200*%
%ADD12C,0.254000*%
%ADD13C,0.010000*%
G04 APERTURE END LIST*
D10*
X137752667Y-60982344D02*
X137752667Y-60093344D01*
X137752667Y-60940011D02*
X137668001Y-60982344D01*
X137668001Y-60982344D02*
X137498667Y-60982344D01*
X137498667Y-60982344D02*
X137414001Y-60940011D01*
X137414001Y-60940011D02*
X137371667Y-60897677D01*
X137371667Y-60897677D02*
X137329334Y-60813011D01*
X137329334Y-60813011D02*
X137329334Y-60559011D01*
X137329334Y-60559011D02*
X137371667Y-60474344D01*
X137371667Y-60474344D02*
X137414001Y-60432011D01*
X137414001Y-60432011D02*
X137498667Y-60389677D01*
X137498667Y-60389677D02*
X137668001Y-60389677D01*
X137668001Y-60389677D02*
X137752667Y-60432011D01*
X138176000Y-60982344D02*
X138176000Y-60093344D01*
X138176000Y-60432011D02*
X138260667Y-60389677D01*
X138260667Y-60389677D02*
X138430000Y-60389677D01*
X138430000Y-60389677D02*
X138514667Y-60432011D01*
X138514667Y-60432011D02*
X138557000Y-60474344D01*
X138557000Y-60474344D02*
X138599334Y-60559011D01*
X138599334Y-60559011D02*
X138599334Y-60813011D01*
X138599334Y-60813011D02*
X138557000Y-60897677D01*
X138557000Y-60897677D02*
X138514667Y-60940011D01*
X138514667Y-60940011D02*
X138430000Y-60982344D01*
X138430000Y-60982344D02*
X138260667Y-60982344D01*
X138260667Y-60982344D02*
X138176000Y-60940011D01*
X139657666Y-60516677D02*
X139954000Y-60516677D01*
X140081000Y-60982344D02*
X139657666Y-60982344D01*
X139657666Y-60982344D02*
X139657666Y-60093344D01*
X139657666Y-60093344D02*
X140081000Y-60093344D01*
X140588999Y-60982344D02*
X140504333Y-60940011D01*
X140504333Y-60940011D02*
X140461999Y-60855344D01*
X140461999Y-60855344D02*
X140461999Y-60093344D01*
X141266333Y-60940011D02*
X141181666Y-60982344D01*
X141181666Y-60982344D02*
X141012333Y-60982344D01*
X141012333Y-60982344D02*
X140927666Y-60940011D01*
X140927666Y-60940011D02*
X140885333Y-60855344D01*
X140885333Y-60855344D02*
X140885333Y-60516677D01*
X140885333Y-60516677D02*
X140927666Y-60432011D01*
X140927666Y-60432011D02*
X141012333Y-60389677D01*
X141012333Y-60389677D02*
X141181666Y-60389677D01*
X141181666Y-60389677D02*
X141266333Y-60432011D01*
X141266333Y-60432011D02*
X141308666Y-60516677D01*
X141308666Y-60516677D02*
X141308666Y-60601344D01*
X141308666Y-60601344D02*
X140885333Y-60686011D01*
X142070666Y-60940011D02*
X141986000Y-60982344D01*
X141986000Y-60982344D02*
X141816666Y-60982344D01*
X141816666Y-60982344D02*
X141732000Y-60940011D01*
X141732000Y-60940011D02*
X141689666Y-60897677D01*
X141689666Y-60897677D02*
X141647333Y-60813011D01*
X141647333Y-60813011D02*
X141647333Y-60559011D01*
X141647333Y-60559011D02*
X141689666Y-60474344D01*
X141689666Y-60474344D02*
X141732000Y-60432011D01*
X141732000Y-60432011D02*
X141816666Y-60389677D01*
X141816666Y-60389677D02*
X141986000Y-60389677D01*
X141986000Y-60389677D02*
X142070666Y-60432011D01*
X142324666Y-60389677D02*
X142663333Y-60389677D01*
X142451666Y-60093344D02*
X142451666Y-60855344D01*
X142451666Y-60855344D02*
X142494000Y-60940011D01*
X142494000Y-60940011D02*
X142578666Y-60982344D01*
X142578666Y-60982344D02*
X142663333Y-60982344D01*
X142959666Y-60982344D02*
X142959666Y-60389677D01*
X142959666Y-60559011D02*
X143002000Y-60474344D01*
X143002000Y-60474344D02*
X143044333Y-60432011D01*
X143044333Y-60432011D02*
X143129000Y-60389677D01*
X143129000Y-60389677D02*
X143213666Y-60389677D01*
X143636999Y-60982344D02*
X143552333Y-60940011D01*
X143552333Y-60940011D02*
X143509999Y-60897677D01*
X143509999Y-60897677D02*
X143467666Y-60813011D01*
X143467666Y-60813011D02*
X143467666Y-60559011D01*
X143467666Y-60559011D02*
X143509999Y-60474344D01*
X143509999Y-60474344D02*
X143552333Y-60432011D01*
X143552333Y-60432011D02*
X143636999Y-60389677D01*
X143636999Y-60389677D02*
X143763999Y-60389677D01*
X143763999Y-60389677D02*
X143848666Y-60432011D01*
X143848666Y-60432011D02*
X143890999Y-60474344D01*
X143890999Y-60474344D02*
X143933333Y-60559011D01*
X143933333Y-60559011D02*
X143933333Y-60813011D01*
X143933333Y-60813011D02*
X143890999Y-60897677D01*
X143890999Y-60897677D02*
X143848666Y-60940011D01*
X143848666Y-60940011D02*
X143763999Y-60982344D01*
X143763999Y-60982344D02*
X143636999Y-60982344D01*
X144314332Y-60389677D02*
X144314332Y-60982344D01*
X144314332Y-60474344D02*
X144356666Y-60432011D01*
X144356666Y-60432011D02*
X144441332Y-60389677D01*
X144441332Y-60389677D02*
X144568332Y-60389677D01*
X144568332Y-60389677D02*
X144652999Y-60432011D01*
X144652999Y-60432011D02*
X144695332Y-60516677D01*
X144695332Y-60516677D02*
X144695332Y-60982344D01*
X145118665Y-60982344D02*
X145118665Y-60389677D01*
X145118665Y-60093344D02*
X145076332Y-60135677D01*
X145076332Y-60135677D02*
X145118665Y-60178011D01*
X145118665Y-60178011D02*
X145160999Y-60135677D01*
X145160999Y-60135677D02*
X145118665Y-60093344D01*
X145118665Y-60093344D02*
X145118665Y-60178011D01*
X145922998Y-60940011D02*
X145838332Y-60982344D01*
X145838332Y-60982344D02*
X145668998Y-60982344D01*
X145668998Y-60982344D02*
X145584332Y-60940011D01*
X145584332Y-60940011D02*
X145541998Y-60897677D01*
X145541998Y-60897677D02*
X145499665Y-60813011D01*
X145499665Y-60813011D02*
X145499665Y-60559011D01*
X145499665Y-60559011D02*
X145541998Y-60474344D01*
X145541998Y-60474344D02*
X145584332Y-60432011D01*
X145584332Y-60432011D02*
X145668998Y-60389677D01*
X145668998Y-60389677D02*
X145838332Y-60389677D01*
X145838332Y-60389677D02*
X145922998Y-60432011D01*
X146261665Y-60940011D02*
X146346332Y-60982344D01*
X146346332Y-60982344D02*
X146515665Y-60982344D01*
X146515665Y-60982344D02*
X146600332Y-60940011D01*
X146600332Y-60940011D02*
X146642665Y-60855344D01*
X146642665Y-60855344D02*
X146642665Y-60813011D01*
X146642665Y-60813011D02*
X146600332Y-60728344D01*
X146600332Y-60728344D02*
X146515665Y-60686011D01*
X146515665Y-60686011D02*
X146388665Y-60686011D01*
X146388665Y-60686011D02*
X146303998Y-60643677D01*
X146303998Y-60643677D02*
X146261665Y-60559011D01*
X146261665Y-60559011D02*
X146261665Y-60516677D01*
X146261665Y-60516677D02*
X146303998Y-60432011D01*
X146303998Y-60432011D02*
X146388665Y-60389677D01*
X146388665Y-60389677D02*
X146515665Y-60389677D01*
X146515665Y-60389677D02*
X146600332Y-60432011D01*
X131255677Y-82761666D02*
X131213344Y-82846333D01*
X131213344Y-82846333D02*
X131213344Y-82973333D01*
X131213344Y-82973333D02*
X131255677Y-83100333D01*
X131255677Y-83100333D02*
X131340344Y-83185000D01*
X131340344Y-83185000D02*
X131425011Y-83227333D01*
X131425011Y-83227333D02*
X131594344Y-83269666D01*
X131594344Y-83269666D02*
X131721344Y-83269666D01*
X131721344Y-83269666D02*
X131890677Y-83227333D01*
X131890677Y-83227333D02*
X131975344Y-83185000D01*
X131975344Y-83185000D02*
X132060011Y-83100333D01*
X132060011Y-83100333D02*
X132102344Y-82973333D01*
X132102344Y-82973333D02*
X132102344Y-82888666D01*
X132102344Y-82888666D02*
X132060011Y-82761666D01*
X132060011Y-82761666D02*
X132017677Y-82719333D01*
X132017677Y-82719333D02*
X131721344Y-82719333D01*
X131721344Y-82719333D02*
X131721344Y-82888666D01*
X132060011Y-81999666D02*
X132102344Y-82084333D01*
X132102344Y-82084333D02*
X132102344Y-82253666D01*
X132102344Y-82253666D02*
X132060011Y-82338333D01*
X132060011Y-82338333D02*
X131975344Y-82380666D01*
X131975344Y-82380666D02*
X131636677Y-82380666D01*
X131636677Y-82380666D02*
X131552011Y-82338333D01*
X131552011Y-82338333D02*
X131509677Y-82253666D01*
X131509677Y-82253666D02*
X131509677Y-82084333D01*
X131509677Y-82084333D02*
X131552011Y-81999666D01*
X131552011Y-81999666D02*
X131636677Y-81957333D01*
X131636677Y-81957333D02*
X131721344Y-81957333D01*
X131721344Y-81957333D02*
X131806011Y-82380666D01*
X131509677Y-81576333D02*
X132102344Y-81576333D01*
X131594344Y-81576333D02*
X131552011Y-81534000D01*
X131552011Y-81534000D02*
X131509677Y-81449333D01*
X131509677Y-81449333D02*
X131509677Y-81322333D01*
X131509677Y-81322333D02*
X131552011Y-81237666D01*
X131552011Y-81237666D02*
X131636677Y-81195333D01*
X131636677Y-81195333D02*
X132102344Y-81195333D01*
X132060011Y-80433333D02*
X132102344Y-80518000D01*
X132102344Y-80518000D02*
X132102344Y-80687333D01*
X132102344Y-80687333D02*
X132060011Y-80772000D01*
X132060011Y-80772000D02*
X131975344Y-80814333D01*
X131975344Y-80814333D02*
X131636677Y-80814333D01*
X131636677Y-80814333D02*
X131552011Y-80772000D01*
X131552011Y-80772000D02*
X131509677Y-80687333D01*
X131509677Y-80687333D02*
X131509677Y-80518000D01*
X131509677Y-80518000D02*
X131552011Y-80433333D01*
X131552011Y-80433333D02*
X131636677Y-80391000D01*
X131636677Y-80391000D02*
X131721344Y-80391000D01*
X131721344Y-80391000D02*
X131806011Y-80814333D01*
X132060011Y-80052333D02*
X132102344Y-79967667D01*
X132102344Y-79967667D02*
X132102344Y-79798333D01*
X132102344Y-79798333D02*
X132060011Y-79713667D01*
X132060011Y-79713667D02*
X131975344Y-79671333D01*
X131975344Y-79671333D02*
X131933011Y-79671333D01*
X131933011Y-79671333D02*
X131848344Y-79713667D01*
X131848344Y-79713667D02*
X131806011Y-79798333D01*
X131806011Y-79798333D02*
X131806011Y-79925333D01*
X131806011Y-79925333D02*
X131763677Y-80010000D01*
X131763677Y-80010000D02*
X131679011Y-80052333D01*
X131679011Y-80052333D02*
X131636677Y-80052333D01*
X131636677Y-80052333D02*
X131552011Y-80010000D01*
X131552011Y-80010000D02*
X131509677Y-79925333D01*
X131509677Y-79925333D02*
X131509677Y-79798333D01*
X131509677Y-79798333D02*
X131552011Y-79713667D01*
X132102344Y-79290333D02*
X131509677Y-79290333D01*
X131213344Y-79290333D02*
X131255677Y-79332666D01*
X131255677Y-79332666D02*
X131298011Y-79290333D01*
X131298011Y-79290333D02*
X131255677Y-79248000D01*
X131255677Y-79248000D02*
X131213344Y-79290333D01*
X131213344Y-79290333D02*
X131298011Y-79290333D01*
X132060011Y-78909333D02*
X132102344Y-78824667D01*
X132102344Y-78824667D02*
X132102344Y-78655333D01*
X132102344Y-78655333D02*
X132060011Y-78570667D01*
X132060011Y-78570667D02*
X131975344Y-78528333D01*
X131975344Y-78528333D02*
X131933011Y-78528333D01*
X131933011Y-78528333D02*
X131848344Y-78570667D01*
X131848344Y-78570667D02*
X131806011Y-78655333D01*
X131806011Y-78655333D02*
X131806011Y-78782333D01*
X131806011Y-78782333D02*
X131763677Y-78867000D01*
X131763677Y-78867000D02*
X131679011Y-78909333D01*
X131679011Y-78909333D02*
X131636677Y-78909333D01*
X131636677Y-78909333D02*
X131552011Y-78867000D01*
X131552011Y-78867000D02*
X131509677Y-78782333D01*
X131509677Y-78782333D02*
X131509677Y-78655333D01*
X131509677Y-78655333D02*
X131552011Y-78570667D01*
X131509677Y-77554667D02*
X132102344Y-77343000D01*
X132102344Y-77343000D02*
X131509677Y-77131333D01*
X131213344Y-76877334D02*
X131213344Y-76327000D01*
X131213344Y-76327000D02*
X131552011Y-76623334D01*
X131552011Y-76623334D02*
X131552011Y-76496334D01*
X131552011Y-76496334D02*
X131594344Y-76411667D01*
X131594344Y-76411667D02*
X131636677Y-76369334D01*
X131636677Y-76369334D02*
X131721344Y-76327000D01*
X131721344Y-76327000D02*
X131933011Y-76327000D01*
X131933011Y-76327000D02*
X132017677Y-76369334D01*
X132017677Y-76369334D02*
X132060011Y-76411667D01*
X132060011Y-76411667D02*
X132102344Y-76496334D01*
X132102344Y-76496334D02*
X132102344Y-76750334D01*
X132102344Y-76750334D02*
X132060011Y-76835000D01*
X132060011Y-76835000D02*
X132017677Y-76877334D01*
X132017677Y-75946000D02*
X132060011Y-75903667D01*
X132060011Y-75903667D02*
X132102344Y-75946000D01*
X132102344Y-75946000D02*
X132060011Y-75988333D01*
X132060011Y-75988333D02*
X132017677Y-75946000D01*
X132017677Y-75946000D02*
X132102344Y-75946000D01*
X131213344Y-75353334D02*
X131213344Y-75268667D01*
X131213344Y-75268667D02*
X131255677Y-75184000D01*
X131255677Y-75184000D02*
X131298011Y-75141667D01*
X131298011Y-75141667D02*
X131382677Y-75099334D01*
X131382677Y-75099334D02*
X131552011Y-75057000D01*
X131552011Y-75057000D02*
X131763677Y-75057000D01*
X131763677Y-75057000D02*
X131933011Y-75099334D01*
X131933011Y-75099334D02*
X132017677Y-75141667D01*
X132017677Y-75141667D02*
X132060011Y-75184000D01*
X132060011Y-75184000D02*
X132102344Y-75268667D01*
X132102344Y-75268667D02*
X132102344Y-75353334D01*
X132102344Y-75353334D02*
X132060011Y-75438000D01*
X132060011Y-75438000D02*
X132017677Y-75480334D01*
X132017677Y-75480334D02*
X131933011Y-75522667D01*
X131933011Y-75522667D02*
X131763677Y-75565000D01*
X131763677Y-75565000D02*
X131552011Y-75565000D01*
X131552011Y-75565000D02*
X131382677Y-75522667D01*
X131382677Y-75522667D02*
X131298011Y-75480334D01*
X131298011Y-75480334D02*
X131255677Y-75438000D01*
X131255677Y-75438000D02*
X131213344Y-75353334D01*
X132102344Y-73998667D02*
X131213344Y-73998667D01*
X132102344Y-73575334D02*
X131213344Y-73575334D01*
X131213344Y-73575334D02*
X131213344Y-73363667D01*
X131213344Y-73363667D02*
X131255677Y-73236667D01*
X131255677Y-73236667D02*
X131340344Y-73152001D01*
X131340344Y-73152001D02*
X131425011Y-73109667D01*
X131425011Y-73109667D02*
X131594344Y-73067334D01*
X131594344Y-73067334D02*
X131721344Y-73067334D01*
X131721344Y-73067334D02*
X131890677Y-73109667D01*
X131890677Y-73109667D02*
X131975344Y-73152001D01*
X131975344Y-73152001D02*
X132060011Y-73236667D01*
X132060011Y-73236667D02*
X132102344Y-73363667D01*
X132102344Y-73363667D02*
X132102344Y-73575334D01*
X131636677Y-72009001D02*
X131636677Y-71331668D01*
X131890677Y-71331668D02*
X131890677Y-72009001D01*
X131213344Y-70061668D02*
X131213344Y-69977001D01*
X131213344Y-69977001D02*
X131255677Y-69892334D01*
X131255677Y-69892334D02*
X131298011Y-69850001D01*
X131298011Y-69850001D02*
X131382677Y-69807668D01*
X131382677Y-69807668D02*
X131552011Y-69765334D01*
X131552011Y-69765334D02*
X131763677Y-69765334D01*
X131763677Y-69765334D02*
X131933011Y-69807668D01*
X131933011Y-69807668D02*
X132017677Y-69850001D01*
X132017677Y-69850001D02*
X132060011Y-69892334D01*
X132060011Y-69892334D02*
X132102344Y-69977001D01*
X132102344Y-69977001D02*
X132102344Y-70061668D01*
X132102344Y-70061668D02*
X132060011Y-70146334D01*
X132060011Y-70146334D02*
X132017677Y-70188668D01*
X132017677Y-70188668D02*
X131933011Y-70231001D01*
X131933011Y-70231001D02*
X131763677Y-70273334D01*
X131763677Y-70273334D02*
X131552011Y-70273334D01*
X131552011Y-70273334D02*
X131382677Y-70231001D01*
X131382677Y-70231001D02*
X131298011Y-70188668D01*
X131298011Y-70188668D02*
X131255677Y-70146334D01*
X131255677Y-70146334D02*
X131213344Y-70061668D01*
X132102344Y-69469001D02*
X131509677Y-69003334D01*
X131509677Y-69469001D02*
X132102344Y-69003334D01*
X131213344Y-68495334D02*
X131213344Y-68410667D01*
X131213344Y-68410667D02*
X131255677Y-68326000D01*
X131255677Y-68326000D02*
X131298011Y-68283667D01*
X131298011Y-68283667D02*
X131382677Y-68241334D01*
X131382677Y-68241334D02*
X131552011Y-68199000D01*
X131552011Y-68199000D02*
X131763677Y-68199000D01*
X131763677Y-68199000D02*
X131933011Y-68241334D01*
X131933011Y-68241334D02*
X132017677Y-68283667D01*
X132017677Y-68283667D02*
X132060011Y-68326000D01*
X132060011Y-68326000D02*
X132102344Y-68410667D01*
X132102344Y-68410667D02*
X132102344Y-68495334D01*
X132102344Y-68495334D02*
X132060011Y-68580000D01*
X132060011Y-68580000D02*
X132017677Y-68622334D01*
X132017677Y-68622334D02*
X131933011Y-68664667D01*
X131933011Y-68664667D02*
X131763677Y-68707000D01*
X131763677Y-68707000D02*
X131552011Y-68707000D01*
X131552011Y-68707000D02*
X131382677Y-68664667D01*
X131382677Y-68664667D02*
X131298011Y-68622334D01*
X131298011Y-68622334D02*
X131255677Y-68580000D01*
X131255677Y-68580000D02*
X131213344Y-68495334D01*
X132102344Y-67352333D02*
X132102344Y-67860333D01*
X132102344Y-67606333D02*
X131213344Y-67606333D01*
X131213344Y-67606333D02*
X131340344Y-67691000D01*
X131340344Y-67691000D02*
X131425011Y-67775667D01*
X131425011Y-67775667D02*
X131467344Y-67860333D01*
X132356344Y-137604496D02*
X131467344Y-137604496D01*
X132356344Y-137223496D02*
X131890677Y-137223496D01*
X131890677Y-137223496D02*
X131806011Y-137265829D01*
X131806011Y-137265829D02*
X131763677Y-137350496D01*
X131763677Y-137350496D02*
X131763677Y-137477496D01*
X131763677Y-137477496D02*
X131806011Y-137562163D01*
X131806011Y-137562163D02*
X131848344Y-137604496D01*
X131763677Y-136927163D02*
X131763677Y-136588496D01*
X131467344Y-136800163D02*
X132229344Y-136800163D01*
X132229344Y-136800163D02*
X132314011Y-136757830D01*
X132314011Y-136757830D02*
X132356344Y-136673163D01*
X132356344Y-136673163D02*
X132356344Y-136588496D01*
X131763677Y-136419163D02*
X131763677Y-136080496D01*
X131467344Y-136292163D02*
X132229344Y-136292163D01*
X132229344Y-136292163D02*
X132314011Y-136249830D01*
X132314011Y-136249830D02*
X132356344Y-136165163D01*
X132356344Y-136165163D02*
X132356344Y-136080496D01*
X131763677Y-135784163D02*
X132652677Y-135784163D01*
X131806011Y-135784163D02*
X131763677Y-135699496D01*
X131763677Y-135699496D02*
X131763677Y-135530163D01*
X131763677Y-135530163D02*
X131806011Y-135445496D01*
X131806011Y-135445496D02*
X131848344Y-135403163D01*
X131848344Y-135403163D02*
X131933011Y-135360830D01*
X131933011Y-135360830D02*
X132187011Y-135360830D01*
X132187011Y-135360830D02*
X132271677Y-135403163D01*
X132271677Y-135403163D02*
X132314011Y-135445496D01*
X132314011Y-135445496D02*
X132356344Y-135530163D01*
X132356344Y-135530163D02*
X132356344Y-135699496D01*
X132356344Y-135699496D02*
X132314011Y-135784163D01*
X132314011Y-135022163D02*
X132356344Y-134937497D01*
X132356344Y-134937497D02*
X132356344Y-134768163D01*
X132356344Y-134768163D02*
X132314011Y-134683497D01*
X132314011Y-134683497D02*
X132229344Y-134641163D01*
X132229344Y-134641163D02*
X132187011Y-134641163D01*
X132187011Y-134641163D02*
X132102344Y-134683497D01*
X132102344Y-134683497D02*
X132060011Y-134768163D01*
X132060011Y-134768163D02*
X132060011Y-134895163D01*
X132060011Y-134895163D02*
X132017677Y-134979830D01*
X132017677Y-134979830D02*
X131933011Y-135022163D01*
X131933011Y-135022163D02*
X131890677Y-135022163D01*
X131890677Y-135022163D02*
X131806011Y-134979830D01*
X131806011Y-134979830D02*
X131763677Y-134895163D01*
X131763677Y-134895163D02*
X131763677Y-134768163D01*
X131763677Y-134768163D02*
X131806011Y-134683497D01*
X132271677Y-134260163D02*
X132314011Y-134217830D01*
X132314011Y-134217830D02*
X132356344Y-134260163D01*
X132356344Y-134260163D02*
X132314011Y-134302496D01*
X132314011Y-134302496D02*
X132271677Y-134260163D01*
X132271677Y-134260163D02*
X132356344Y-134260163D01*
X131806011Y-134260163D02*
X131848344Y-134217830D01*
X131848344Y-134217830D02*
X131890677Y-134260163D01*
X131890677Y-134260163D02*
X131848344Y-134302496D01*
X131848344Y-134302496D02*
X131806011Y-134260163D01*
X131806011Y-134260163D02*
X131890677Y-134260163D01*
X131425011Y-133201830D02*
X132568011Y-133963830D01*
X131425011Y-132270497D02*
X132568011Y-133032497D01*
X131763677Y-131593164D02*
X132483344Y-131593164D01*
X132483344Y-131593164D02*
X132568011Y-131635497D01*
X132568011Y-131635497D02*
X132610344Y-131677831D01*
X132610344Y-131677831D02*
X132652677Y-131762497D01*
X132652677Y-131762497D02*
X132652677Y-131889497D01*
X132652677Y-131889497D02*
X132610344Y-131974164D01*
X132314011Y-131593164D02*
X132356344Y-131677831D01*
X132356344Y-131677831D02*
X132356344Y-131847164D01*
X132356344Y-131847164D02*
X132314011Y-131931831D01*
X132314011Y-131931831D02*
X132271677Y-131974164D01*
X132271677Y-131974164D02*
X132187011Y-132016497D01*
X132187011Y-132016497D02*
X131933011Y-132016497D01*
X131933011Y-132016497D02*
X131848344Y-131974164D01*
X131848344Y-131974164D02*
X131806011Y-131931831D01*
X131806011Y-131931831D02*
X131763677Y-131847164D01*
X131763677Y-131847164D02*
X131763677Y-131677831D01*
X131763677Y-131677831D02*
X131806011Y-131593164D01*
X132356344Y-131169831D02*
X131763677Y-131169831D01*
X131467344Y-131169831D02*
X131509677Y-131212164D01*
X131509677Y-131212164D02*
X131552011Y-131169831D01*
X131552011Y-131169831D02*
X131509677Y-131127498D01*
X131509677Y-131127498D02*
X131467344Y-131169831D01*
X131467344Y-131169831D02*
X131552011Y-131169831D01*
X131763677Y-130873498D02*
X131763677Y-130534831D01*
X131467344Y-130746498D02*
X132229344Y-130746498D01*
X132229344Y-130746498D02*
X132314011Y-130704165D01*
X132314011Y-130704165D02*
X132356344Y-130619498D01*
X132356344Y-130619498D02*
X132356344Y-130534831D01*
X132356344Y-130238498D02*
X131467344Y-130238498D01*
X132356344Y-129857498D02*
X131890677Y-129857498D01*
X131890677Y-129857498D02*
X131806011Y-129899831D01*
X131806011Y-129899831D02*
X131763677Y-129984498D01*
X131763677Y-129984498D02*
X131763677Y-130111498D01*
X131763677Y-130111498D02*
X131806011Y-130196165D01*
X131806011Y-130196165D02*
X131848344Y-130238498D01*
X131763677Y-129053165D02*
X132356344Y-129053165D01*
X131763677Y-129434165D02*
X132229344Y-129434165D01*
X132229344Y-129434165D02*
X132314011Y-129391832D01*
X132314011Y-129391832D02*
X132356344Y-129307165D01*
X132356344Y-129307165D02*
X132356344Y-129180165D01*
X132356344Y-129180165D02*
X132314011Y-129095498D01*
X132314011Y-129095498D02*
X132271677Y-129053165D01*
X132356344Y-128629832D02*
X131467344Y-128629832D01*
X131806011Y-128629832D02*
X131763677Y-128545165D01*
X131763677Y-128545165D02*
X131763677Y-128375832D01*
X131763677Y-128375832D02*
X131806011Y-128291165D01*
X131806011Y-128291165D02*
X131848344Y-128248832D01*
X131848344Y-128248832D02*
X131933011Y-128206499D01*
X131933011Y-128206499D02*
X132187011Y-128206499D01*
X132187011Y-128206499D02*
X132271677Y-128248832D01*
X132271677Y-128248832D02*
X132314011Y-128291165D01*
X132314011Y-128291165D02*
X132356344Y-128375832D01*
X132356344Y-128375832D02*
X132356344Y-128545165D01*
X132356344Y-128545165D02*
X132314011Y-128629832D01*
X132271677Y-127825499D02*
X132314011Y-127783166D01*
X132314011Y-127783166D02*
X132356344Y-127825499D01*
X132356344Y-127825499D02*
X132314011Y-127867832D01*
X132314011Y-127867832D02*
X132271677Y-127825499D01*
X132271677Y-127825499D02*
X132356344Y-127825499D01*
X132314011Y-127021166D02*
X132356344Y-127105833D01*
X132356344Y-127105833D02*
X132356344Y-127275166D01*
X132356344Y-127275166D02*
X132314011Y-127359833D01*
X132314011Y-127359833D02*
X132271677Y-127402166D01*
X132271677Y-127402166D02*
X132187011Y-127444499D01*
X132187011Y-127444499D02*
X131933011Y-127444499D01*
X131933011Y-127444499D02*
X131848344Y-127402166D01*
X131848344Y-127402166D02*
X131806011Y-127359833D01*
X131806011Y-127359833D02*
X131763677Y-127275166D01*
X131763677Y-127275166D02*
X131763677Y-127105833D01*
X131763677Y-127105833D02*
X131806011Y-127021166D01*
X132356344Y-126513166D02*
X132314011Y-126597833D01*
X132314011Y-126597833D02*
X132271677Y-126640166D01*
X132271677Y-126640166D02*
X132187011Y-126682499D01*
X132187011Y-126682499D02*
X131933011Y-126682499D01*
X131933011Y-126682499D02*
X131848344Y-126640166D01*
X131848344Y-126640166D02*
X131806011Y-126597833D01*
X131806011Y-126597833D02*
X131763677Y-126513166D01*
X131763677Y-126513166D02*
X131763677Y-126386166D01*
X131763677Y-126386166D02*
X131806011Y-126301499D01*
X131806011Y-126301499D02*
X131848344Y-126259166D01*
X131848344Y-126259166D02*
X131933011Y-126216833D01*
X131933011Y-126216833D02*
X132187011Y-126216833D01*
X132187011Y-126216833D02*
X132271677Y-126259166D01*
X132271677Y-126259166D02*
X132314011Y-126301499D01*
X132314011Y-126301499D02*
X132356344Y-126386166D01*
X132356344Y-126386166D02*
X132356344Y-126513166D01*
X132356344Y-125835833D02*
X131763677Y-125835833D01*
X131848344Y-125835833D02*
X131806011Y-125793500D01*
X131806011Y-125793500D02*
X131763677Y-125708833D01*
X131763677Y-125708833D02*
X131763677Y-125581833D01*
X131763677Y-125581833D02*
X131806011Y-125497166D01*
X131806011Y-125497166D02*
X131890677Y-125454833D01*
X131890677Y-125454833D02*
X132356344Y-125454833D01*
X131890677Y-125454833D02*
X131806011Y-125412500D01*
X131806011Y-125412500D02*
X131763677Y-125327833D01*
X131763677Y-125327833D02*
X131763677Y-125200833D01*
X131763677Y-125200833D02*
X131806011Y-125116166D01*
X131806011Y-125116166D02*
X131890677Y-125073833D01*
X131890677Y-125073833D02*
X132356344Y-125073833D01*
X131425011Y-124015500D02*
X132568011Y-124777500D01*
X132356344Y-123338167D02*
X131467344Y-123338167D01*
X132314011Y-123338167D02*
X132356344Y-123422834D01*
X132356344Y-123422834D02*
X132356344Y-123592167D01*
X132356344Y-123592167D02*
X132314011Y-123676834D01*
X132314011Y-123676834D02*
X132271677Y-123719167D01*
X132271677Y-123719167D02*
X132187011Y-123761500D01*
X132187011Y-123761500D02*
X131933011Y-123761500D01*
X131933011Y-123761500D02*
X131848344Y-123719167D01*
X131848344Y-123719167D02*
X131806011Y-123676834D01*
X131806011Y-123676834D02*
X131763677Y-123592167D01*
X131763677Y-123592167D02*
X131763677Y-123422834D01*
X131763677Y-123422834D02*
X131806011Y-123338167D01*
X132356344Y-122914834D02*
X131467344Y-122914834D01*
X131806011Y-122914834D02*
X131763677Y-122830167D01*
X131763677Y-122830167D02*
X131763677Y-122660834D01*
X131763677Y-122660834D02*
X131806011Y-122576167D01*
X131806011Y-122576167D02*
X131848344Y-122533834D01*
X131848344Y-122533834D02*
X131933011Y-122491501D01*
X131933011Y-122491501D02*
X132187011Y-122491501D01*
X132187011Y-122491501D02*
X132271677Y-122533834D01*
X132271677Y-122533834D02*
X132314011Y-122576167D01*
X132314011Y-122576167D02*
X132356344Y-122660834D01*
X132356344Y-122660834D02*
X132356344Y-122830167D01*
X132356344Y-122830167D02*
X132314011Y-122914834D01*
X132017677Y-122110501D02*
X132017677Y-121433168D01*
X132314011Y-120671167D02*
X132356344Y-120755834D01*
X132356344Y-120755834D02*
X132356344Y-120925167D01*
X132356344Y-120925167D02*
X132314011Y-121009834D01*
X132314011Y-121009834D02*
X132229344Y-121052167D01*
X132229344Y-121052167D02*
X131890677Y-121052167D01*
X131890677Y-121052167D02*
X131806011Y-121009834D01*
X131806011Y-121009834D02*
X131763677Y-120925167D01*
X131763677Y-120925167D02*
X131763677Y-120755834D01*
X131763677Y-120755834D02*
X131806011Y-120671167D01*
X131806011Y-120671167D02*
X131890677Y-120628834D01*
X131890677Y-120628834D02*
X131975344Y-120628834D01*
X131975344Y-120628834D02*
X132060011Y-121052167D01*
X132356344Y-120120834D02*
X132314011Y-120205501D01*
X132314011Y-120205501D02*
X132229344Y-120247834D01*
X132229344Y-120247834D02*
X131467344Y-120247834D01*
X132314011Y-119443500D02*
X132356344Y-119528167D01*
X132356344Y-119528167D02*
X132356344Y-119697500D01*
X132356344Y-119697500D02*
X132314011Y-119782167D01*
X132314011Y-119782167D02*
X132229344Y-119824500D01*
X132229344Y-119824500D02*
X131890677Y-119824500D01*
X131890677Y-119824500D02*
X131806011Y-119782167D01*
X131806011Y-119782167D02*
X131763677Y-119697500D01*
X131763677Y-119697500D02*
X131763677Y-119528167D01*
X131763677Y-119528167D02*
X131806011Y-119443500D01*
X131806011Y-119443500D02*
X131890677Y-119401167D01*
X131890677Y-119401167D02*
X131975344Y-119401167D01*
X131975344Y-119401167D02*
X132060011Y-119824500D01*
X132314011Y-118639167D02*
X132356344Y-118723834D01*
X132356344Y-118723834D02*
X132356344Y-118893167D01*
X132356344Y-118893167D02*
X132314011Y-118977834D01*
X132314011Y-118977834D02*
X132271677Y-119020167D01*
X132271677Y-119020167D02*
X132187011Y-119062500D01*
X132187011Y-119062500D02*
X131933011Y-119062500D01*
X131933011Y-119062500D02*
X131848344Y-119020167D01*
X131848344Y-119020167D02*
X131806011Y-118977834D01*
X131806011Y-118977834D02*
X131763677Y-118893167D01*
X131763677Y-118893167D02*
X131763677Y-118723834D01*
X131763677Y-118723834D02*
X131806011Y-118639167D01*
X131763677Y-118385167D02*
X131763677Y-118046500D01*
X131467344Y-118258167D02*
X132229344Y-118258167D01*
X132229344Y-118258167D02*
X132314011Y-118215834D01*
X132314011Y-118215834D02*
X132356344Y-118131167D01*
X132356344Y-118131167D02*
X132356344Y-118046500D01*
X132356344Y-117750167D02*
X131763677Y-117750167D01*
X131933011Y-117750167D02*
X131848344Y-117707834D01*
X131848344Y-117707834D02*
X131806011Y-117665500D01*
X131806011Y-117665500D02*
X131763677Y-117580834D01*
X131763677Y-117580834D02*
X131763677Y-117496167D01*
X132356344Y-117072834D02*
X132314011Y-117157501D01*
X132314011Y-117157501D02*
X132271677Y-117199834D01*
X132271677Y-117199834D02*
X132187011Y-117242167D01*
X132187011Y-117242167D02*
X131933011Y-117242167D01*
X131933011Y-117242167D02*
X131848344Y-117199834D01*
X131848344Y-117199834D02*
X131806011Y-117157501D01*
X131806011Y-117157501D02*
X131763677Y-117072834D01*
X131763677Y-117072834D02*
X131763677Y-116945834D01*
X131763677Y-116945834D02*
X131806011Y-116861167D01*
X131806011Y-116861167D02*
X131848344Y-116818834D01*
X131848344Y-116818834D02*
X131933011Y-116776501D01*
X131933011Y-116776501D02*
X132187011Y-116776501D01*
X132187011Y-116776501D02*
X132271677Y-116818834D01*
X132271677Y-116818834D02*
X132314011Y-116861167D01*
X132314011Y-116861167D02*
X132356344Y-116945834D01*
X132356344Y-116945834D02*
X132356344Y-117072834D01*
X131763677Y-116395501D02*
X132356344Y-116395501D01*
X131848344Y-116395501D02*
X131806011Y-116353168D01*
X131806011Y-116353168D02*
X131763677Y-116268501D01*
X131763677Y-116268501D02*
X131763677Y-116141501D01*
X131763677Y-116141501D02*
X131806011Y-116056834D01*
X131806011Y-116056834D02*
X131890677Y-116014501D01*
X131890677Y-116014501D02*
X132356344Y-116014501D01*
X132356344Y-115591168D02*
X131763677Y-115591168D01*
X131467344Y-115591168D02*
X131509677Y-115633501D01*
X131509677Y-115633501D02*
X131552011Y-115591168D01*
X131552011Y-115591168D02*
X131509677Y-115548835D01*
X131509677Y-115548835D02*
X131467344Y-115591168D01*
X131467344Y-115591168D02*
X131552011Y-115591168D01*
X132314011Y-114786835D02*
X132356344Y-114871502D01*
X132356344Y-114871502D02*
X132356344Y-115040835D01*
X132356344Y-115040835D02*
X132314011Y-115125502D01*
X132314011Y-115125502D02*
X132271677Y-115167835D01*
X132271677Y-115167835D02*
X132187011Y-115210168D01*
X132187011Y-115210168D02*
X131933011Y-115210168D01*
X131933011Y-115210168D02*
X131848344Y-115167835D01*
X131848344Y-115167835D02*
X131806011Y-115125502D01*
X131806011Y-115125502D02*
X131763677Y-115040835D01*
X131763677Y-115040835D02*
X131763677Y-114871502D01*
X131763677Y-114871502D02*
X131806011Y-114786835D01*
X132314011Y-114448168D02*
X132356344Y-114363502D01*
X132356344Y-114363502D02*
X132356344Y-114194168D01*
X132356344Y-114194168D02*
X132314011Y-114109502D01*
X132314011Y-114109502D02*
X132229344Y-114067168D01*
X132229344Y-114067168D02*
X132187011Y-114067168D01*
X132187011Y-114067168D02*
X132102344Y-114109502D01*
X132102344Y-114109502D02*
X132060011Y-114194168D01*
X132060011Y-114194168D02*
X132060011Y-114321168D01*
X132060011Y-114321168D02*
X132017677Y-114405835D01*
X132017677Y-114405835D02*
X131933011Y-114448168D01*
X131933011Y-114448168D02*
X131890677Y-114448168D01*
X131890677Y-114448168D02*
X131806011Y-114405835D01*
X131806011Y-114405835D02*
X131763677Y-114321168D01*
X131763677Y-114321168D02*
X131763677Y-114194168D01*
X131763677Y-114194168D02*
X131806011Y-114109502D01*
X131425011Y-113051168D02*
X132568011Y-113813168D01*
X131467344Y-112754835D02*
X132187011Y-112754835D01*
X132187011Y-112754835D02*
X132271677Y-112712502D01*
X132271677Y-112712502D02*
X132314011Y-112670168D01*
X132314011Y-112670168D02*
X132356344Y-112585502D01*
X132356344Y-112585502D02*
X132356344Y-112416168D01*
X132356344Y-112416168D02*
X132314011Y-112331502D01*
X132314011Y-112331502D02*
X132271677Y-112289168D01*
X132271677Y-112289168D02*
X132187011Y-112246835D01*
X132187011Y-112246835D02*
X131467344Y-112246835D01*
X132356344Y-111823502D02*
X131467344Y-111823502D01*
X131467344Y-111823502D02*
X132102344Y-111527169D01*
X132102344Y-111527169D02*
X131467344Y-111230835D01*
X131467344Y-111230835D02*
X132356344Y-111230835D01*
X132356344Y-110807502D02*
X131467344Y-110807502D01*
X131467344Y-110807502D02*
X131467344Y-110595835D01*
X131467344Y-110595835D02*
X131509677Y-110468835D01*
X131509677Y-110468835D02*
X131594344Y-110384169D01*
X131594344Y-110384169D02*
X131679011Y-110341835D01*
X131679011Y-110341835D02*
X131848344Y-110299502D01*
X131848344Y-110299502D02*
X131975344Y-110299502D01*
X131975344Y-110299502D02*
X132144677Y-110341835D01*
X132144677Y-110341835D02*
X132229344Y-110384169D01*
X132229344Y-110384169D02*
X132314011Y-110468835D01*
X132314011Y-110468835D02*
X132356344Y-110595835D01*
X132356344Y-110595835D02*
X132356344Y-110807502D01*
X131763677Y-110003169D02*
X132356344Y-109791502D01*
X132356344Y-109791502D02*
X131763677Y-109579835D01*
X131467344Y-109325836D02*
X131467344Y-108775502D01*
X131467344Y-108775502D02*
X131806011Y-109071836D01*
X131806011Y-109071836D02*
X131806011Y-108944836D01*
X131806011Y-108944836D02*
X131848344Y-108860169D01*
X131848344Y-108860169D02*
X131890677Y-108817836D01*
X131890677Y-108817836D02*
X131975344Y-108775502D01*
X131975344Y-108775502D02*
X132187011Y-108775502D01*
X132187011Y-108775502D02*
X132271677Y-108817836D01*
X132271677Y-108817836D02*
X132314011Y-108860169D01*
X132314011Y-108860169D02*
X132356344Y-108944836D01*
X132356344Y-108944836D02*
X132356344Y-109198836D01*
X132356344Y-109198836D02*
X132314011Y-109283502D01*
X132314011Y-109283502D02*
X132271677Y-109325836D01*
X132017677Y-108394502D02*
X132017677Y-107717169D01*
X132356344Y-107293835D02*
X131467344Y-107293835D01*
X132017677Y-107209168D02*
X132356344Y-106955168D01*
X131763677Y-106955168D02*
X132102344Y-107293835D01*
X132356344Y-106574168D02*
X131763677Y-106574168D01*
X131467344Y-106574168D02*
X131509677Y-106616501D01*
X131509677Y-106616501D02*
X131552011Y-106574168D01*
X131552011Y-106574168D02*
X131509677Y-106531835D01*
X131509677Y-106531835D02*
X131467344Y-106574168D01*
X131467344Y-106574168D02*
X131552011Y-106574168D01*
X132314011Y-105769835D02*
X132356344Y-105854502D01*
X132356344Y-105854502D02*
X132356344Y-106023835D01*
X132356344Y-106023835D02*
X132314011Y-106108502D01*
X132314011Y-106108502D02*
X132271677Y-106150835D01*
X132271677Y-106150835D02*
X132187011Y-106193168D01*
X132187011Y-106193168D02*
X131933011Y-106193168D01*
X131933011Y-106193168D02*
X131848344Y-106150835D01*
X131848344Y-106150835D02*
X131806011Y-106108502D01*
X131806011Y-106108502D02*
X131763677Y-106023835D01*
X131763677Y-106023835D02*
X131763677Y-105854502D01*
X131763677Y-105854502D02*
X131806011Y-105769835D01*
X132356344Y-105007835D02*
X131890677Y-105007835D01*
X131890677Y-105007835D02*
X131806011Y-105050168D01*
X131806011Y-105050168D02*
X131763677Y-105134835D01*
X131763677Y-105134835D02*
X131763677Y-105304168D01*
X131763677Y-105304168D02*
X131806011Y-105388835D01*
X132314011Y-105007835D02*
X132356344Y-105092502D01*
X132356344Y-105092502D02*
X132356344Y-105304168D01*
X132356344Y-105304168D02*
X132314011Y-105388835D01*
X132314011Y-105388835D02*
X132229344Y-105431168D01*
X132229344Y-105431168D02*
X132144677Y-105431168D01*
X132144677Y-105431168D02*
X132060011Y-105388835D01*
X132060011Y-105388835D02*
X132017677Y-105304168D01*
X132017677Y-105304168D02*
X132017677Y-105092502D01*
X132017677Y-105092502D02*
X131975344Y-105007835D01*
X132356344Y-104203502D02*
X131467344Y-104203502D01*
X132314011Y-104203502D02*
X132356344Y-104288169D01*
X132356344Y-104288169D02*
X132356344Y-104457502D01*
X132356344Y-104457502D02*
X132314011Y-104542169D01*
X132314011Y-104542169D02*
X132271677Y-104584502D01*
X132271677Y-104584502D02*
X132187011Y-104626835D01*
X132187011Y-104626835D02*
X131933011Y-104626835D01*
X131933011Y-104626835D02*
X131848344Y-104584502D01*
X131848344Y-104584502D02*
X131806011Y-104542169D01*
X131806011Y-104542169D02*
X131763677Y-104457502D01*
X131763677Y-104457502D02*
X131763677Y-104288169D01*
X131763677Y-104288169D02*
X131806011Y-104203502D01*
D11*
X152802166Y-62376702D02*
X152505833Y-61953369D01*
X152294166Y-62376702D02*
X152294166Y-61487702D01*
X152294166Y-61487702D02*
X152632833Y-61487702D01*
X152632833Y-61487702D02*
X152717500Y-61530035D01*
X152717500Y-61530035D02*
X152759833Y-61572369D01*
X152759833Y-61572369D02*
X152802166Y-61657035D01*
X152802166Y-61657035D02*
X152802166Y-61784035D01*
X152802166Y-61784035D02*
X152759833Y-61868702D01*
X152759833Y-61868702D02*
X152717500Y-61911035D01*
X152717500Y-61911035D02*
X152632833Y-61953369D01*
X152632833Y-61953369D02*
X152294166Y-61953369D01*
X153648833Y-62376702D02*
X153140833Y-62376702D01*
X153394833Y-62376702D02*
X153394833Y-61487702D01*
X153394833Y-61487702D02*
X153310166Y-61614702D01*
X153310166Y-61614702D02*
X153225500Y-61699369D01*
X153225500Y-61699369D02*
X153140833Y-61741702D01*
X154199167Y-61487702D02*
X154283833Y-61487702D01*
X154283833Y-61487702D02*
X154368500Y-61530035D01*
X154368500Y-61530035D02*
X154410833Y-61572369D01*
X154410833Y-61572369D02*
X154453167Y-61657035D01*
X154453167Y-61657035D02*
X154495500Y-61826369D01*
X154495500Y-61826369D02*
X154495500Y-62038035D01*
X154495500Y-62038035D02*
X154453167Y-62207369D01*
X154453167Y-62207369D02*
X154410833Y-62292035D01*
X154410833Y-62292035D02*
X154368500Y-62334369D01*
X154368500Y-62334369D02*
X154283833Y-62376702D01*
X154283833Y-62376702D02*
X154199167Y-62376702D01*
X154199167Y-62376702D02*
X154114500Y-62334369D01*
X154114500Y-62334369D02*
X154072167Y-62292035D01*
X154072167Y-62292035D02*
X154029833Y-62207369D01*
X154029833Y-62207369D02*
X153987500Y-62038035D01*
X153987500Y-62038035D02*
X153987500Y-61826369D01*
X153987500Y-61826369D02*
X154029833Y-61657035D01*
X154029833Y-61657035D02*
X154072167Y-61572369D01*
X154072167Y-61572369D02*
X154114500Y-61530035D01*
X154114500Y-61530035D02*
X154199167Y-61487702D01*
X155342167Y-62376702D02*
X154834167Y-62376702D01*
X155088167Y-62376702D02*
X155088167Y-61487702D01*
X155088167Y-61487702D02*
X155003500Y-61614702D01*
X155003500Y-61614702D02*
X154918834Y-61699369D01*
X154918834Y-61699369D02*
X154834167Y-61741702D01*
X152802166Y-59455702D02*
X152505833Y-59032369D01*
X152294166Y-59455702D02*
X152294166Y-58566702D01*
X152294166Y-58566702D02*
X152632833Y-58566702D01*
X152632833Y-58566702D02*
X152717500Y-58609035D01*
X152717500Y-58609035D02*
X152759833Y-58651369D01*
X152759833Y-58651369D02*
X152802166Y-58736035D01*
X152802166Y-58736035D02*
X152802166Y-58863035D01*
X152802166Y-58863035D02*
X152759833Y-58947702D01*
X152759833Y-58947702D02*
X152717500Y-58990035D01*
X152717500Y-58990035D02*
X152632833Y-59032369D01*
X152632833Y-59032369D02*
X152294166Y-59032369D01*
X153648833Y-59455702D02*
X153140833Y-59455702D01*
X153394833Y-59455702D02*
X153394833Y-58566702D01*
X153394833Y-58566702D02*
X153310166Y-58693702D01*
X153310166Y-58693702D02*
X153225500Y-58778369D01*
X153225500Y-58778369D02*
X153140833Y-58820702D01*
X154199167Y-58566702D02*
X154283833Y-58566702D01*
X154283833Y-58566702D02*
X154368500Y-58609035D01*
X154368500Y-58609035D02*
X154410833Y-58651369D01*
X154410833Y-58651369D02*
X154453167Y-58736035D01*
X154453167Y-58736035D02*
X154495500Y-58905369D01*
X154495500Y-58905369D02*
X154495500Y-59117035D01*
X154495500Y-59117035D02*
X154453167Y-59286369D01*
X154453167Y-59286369D02*
X154410833Y-59371035D01*
X154410833Y-59371035D02*
X154368500Y-59413369D01*
X154368500Y-59413369D02*
X154283833Y-59455702D01*
X154283833Y-59455702D02*
X154199167Y-59455702D01*
X154199167Y-59455702D02*
X154114500Y-59413369D01*
X154114500Y-59413369D02*
X154072167Y-59371035D01*
X154072167Y-59371035D02*
X154029833Y-59286369D01*
X154029833Y-59286369D02*
X153987500Y-59117035D01*
X153987500Y-59117035D02*
X153987500Y-58905369D01*
X153987500Y-58905369D02*
X154029833Y-58736035D01*
X154029833Y-58736035D02*
X154072167Y-58651369D01*
X154072167Y-58651369D02*
X154114500Y-58609035D01*
X154114500Y-58609035D02*
X154199167Y-58566702D01*
X154834167Y-58651369D02*
X154876500Y-58609035D01*
X154876500Y-58609035D02*
X154961167Y-58566702D01*
X154961167Y-58566702D02*
X155172834Y-58566702D01*
X155172834Y-58566702D02*
X155257500Y-58609035D01*
X155257500Y-58609035D02*
X155299834Y-58651369D01*
X155299834Y-58651369D02*
X155342167Y-58736035D01*
X155342167Y-58736035D02*
X155342167Y-58820702D01*
X155342167Y-58820702D02*
X155299834Y-58947702D01*
X155299834Y-58947702D02*
X154791834Y-59455702D01*
X154791834Y-59455702D02*
X155342167Y-59455702D01*
X134174035Y-68982166D02*
X134216369Y-69024499D01*
X134216369Y-69024499D02*
X134258702Y-69151499D01*
X134258702Y-69151499D02*
X134258702Y-69236166D01*
X134258702Y-69236166D02*
X134216369Y-69363166D01*
X134216369Y-69363166D02*
X134131702Y-69447833D01*
X134131702Y-69447833D02*
X134047035Y-69490166D01*
X134047035Y-69490166D02*
X133877702Y-69532499D01*
X133877702Y-69532499D02*
X133750702Y-69532499D01*
X133750702Y-69532499D02*
X133581369Y-69490166D01*
X133581369Y-69490166D02*
X133496702Y-69447833D01*
X133496702Y-69447833D02*
X133412035Y-69363166D01*
X133412035Y-69363166D02*
X133369702Y-69236166D01*
X133369702Y-69236166D02*
X133369702Y-69151499D01*
X133369702Y-69151499D02*
X133412035Y-69024499D01*
X133412035Y-69024499D02*
X133454369Y-68982166D01*
X133369702Y-68431833D02*
X133369702Y-68262499D01*
X133369702Y-68262499D02*
X133412035Y-68177833D01*
X133412035Y-68177833D02*
X133496702Y-68093166D01*
X133496702Y-68093166D02*
X133666035Y-68050833D01*
X133666035Y-68050833D02*
X133962369Y-68050833D01*
X133962369Y-68050833D02*
X134131702Y-68093166D01*
X134131702Y-68093166D02*
X134216369Y-68177833D01*
X134216369Y-68177833D02*
X134258702Y-68262499D01*
X134258702Y-68262499D02*
X134258702Y-68431833D01*
X134258702Y-68431833D02*
X134216369Y-68516499D01*
X134216369Y-68516499D02*
X134131702Y-68601166D01*
X134131702Y-68601166D02*
X133962369Y-68643499D01*
X133962369Y-68643499D02*
X133666035Y-68643499D01*
X133666035Y-68643499D02*
X133496702Y-68601166D01*
X133496702Y-68601166D02*
X133412035Y-68516499D01*
X133412035Y-68516499D02*
X133369702Y-68431833D01*
X134258702Y-67669833D02*
X133369702Y-67669833D01*
X133369702Y-67669833D02*
X134258702Y-67161833D01*
X134258702Y-67161833D02*
X133369702Y-67161833D01*
X134258702Y-66272833D02*
X134258702Y-66780833D01*
X134258702Y-66526833D02*
X133369702Y-66526833D01*
X133369702Y-66526833D02*
X133496702Y-66611500D01*
X133496702Y-66611500D02*
X133581369Y-66696167D01*
X133581369Y-66696167D02*
X133623702Y-66780833D01*
X133369702Y-65722500D02*
X133369702Y-65637833D01*
X133369702Y-65637833D02*
X133412035Y-65553166D01*
X133412035Y-65553166D02*
X133454369Y-65510833D01*
X133454369Y-65510833D02*
X133539035Y-65468500D01*
X133539035Y-65468500D02*
X133708369Y-65426166D01*
X133708369Y-65426166D02*
X133920035Y-65426166D01*
X133920035Y-65426166D02*
X134089369Y-65468500D01*
X134089369Y-65468500D02*
X134174035Y-65510833D01*
X134174035Y-65510833D02*
X134216369Y-65553166D01*
X134216369Y-65553166D02*
X134258702Y-65637833D01*
X134258702Y-65637833D02*
X134258702Y-65722500D01*
X134258702Y-65722500D02*
X134216369Y-65807166D01*
X134216369Y-65807166D02*
X134174035Y-65849500D01*
X134174035Y-65849500D02*
X134089369Y-65891833D01*
X134089369Y-65891833D02*
X133920035Y-65934166D01*
X133920035Y-65934166D02*
X133708369Y-65934166D01*
X133708369Y-65934166D02*
X133539035Y-65891833D01*
X133539035Y-65891833D02*
X133454369Y-65849500D01*
X133454369Y-65849500D02*
X133412035Y-65807166D01*
X133412035Y-65807166D02*
X133369702Y-65722500D01*
X134258702Y-64579499D02*
X134258702Y-65087499D01*
X134258702Y-64833499D02*
X133369702Y-64833499D01*
X133369702Y-64833499D02*
X133496702Y-64918166D01*
X133496702Y-64918166D02*
X133581369Y-65002833D01*
X133581369Y-65002833D02*
X133623702Y-65087499D01*
D12*
X140335000Y-61595000D02*
X140335000Y-149225000D01*
X140335000Y-61595000D02*
X149225000Y-61595000D01*
X140335000Y-149225000D02*
X149225000Y-149225000D01*
X149225000Y-149225000D02*
X149225000Y-61595000D01*
X153670000Y-62992000D02*
X153670000Y-63754000D01*
X153670000Y-60071000D02*
X153670000Y-60833000D01*
D13*
X144727476Y-58889184D02*
X144728680Y-58913021D01*
X144729771Y-58950754D01*
X144730725Y-59000720D01*
X144731516Y-59061257D01*
X144732116Y-59130701D01*
X144732501Y-59207391D01*
X144732644Y-59289665D01*
X144732644Y-59707220D01*
X144431288Y-59707220D01*
X144361189Y-59707140D01*
X144296865Y-59706912D01*
X144240265Y-59706556D01*
X144193337Y-59706090D01*
X144158029Y-59705532D01*
X144136291Y-59704903D01*
X144129932Y-59704308D01*
X144136291Y-59698168D01*
X144153456Y-59683898D01*
X144178563Y-59663837D01*
X144199703Y-59647314D01*
X144304247Y-59557147D01*
X144402199Y-59454664D01*
X144491537Y-59342688D01*
X144570238Y-59224041D01*
X144636277Y-59101547D01*
X144687631Y-58978028D01*
X144695048Y-58956243D01*
X144706507Y-58923352D01*
X144716667Y-58897724D01*
X144724013Y-58883018D01*
X144726187Y-58880904D01*
X144727476Y-58889184D01*
G36*
X144727476Y-58889184D02*
G01*
X144728680Y-58913021D01*
X144729771Y-58950754D01*
X144730725Y-59000720D01*
X144731516Y-59061257D01*
X144732116Y-59130701D01*
X144732501Y-59207391D01*
X144732644Y-59289665D01*
X144732644Y-59707220D01*
X144431288Y-59707220D01*
X144361189Y-59707140D01*
X144296865Y-59706912D01*
X144240265Y-59706556D01*
X144193337Y-59706090D01*
X144158029Y-59705532D01*
X144136291Y-59704903D01*
X144129932Y-59704308D01*
X144136291Y-59698168D01*
X144153456Y-59683898D01*
X144178563Y-59663837D01*
X144199703Y-59647314D01*
X144304247Y-59557147D01*
X144402199Y-59454664D01*
X144491537Y-59342688D01*
X144570238Y-59224041D01*
X144636277Y-59101547D01*
X144687631Y-58978028D01*
X144695048Y-58956243D01*
X144706507Y-58923352D01*
X144716667Y-58897724D01*
X144724013Y-58883018D01*
X144726187Y-58880904D01*
X144727476Y-58889184D01*
G37*
X138983204Y-56601081D02*
X140793492Y-56603254D01*
X140795735Y-56979949D01*
X140796093Y-57058619D01*
X140796212Y-57131720D01*
X140796105Y-57197509D01*
X140795785Y-57254244D01*
X140795264Y-57300181D01*
X140794555Y-57333579D01*
X140793672Y-57352693D01*
X140792972Y-57356644D01*
X140784784Y-57351268D01*
X140766978Y-57336849D01*
X140742657Y-57315950D01*
X140728420Y-57303331D01*
X140617416Y-57214004D01*
X140494397Y-57133101D01*
X140363253Y-57062701D01*
X140227875Y-57004885D01*
X140092151Y-56961732D01*
X140087177Y-56960445D01*
X139979167Y-56937798D01*
X139862950Y-56922468D01*
X139743779Y-56914728D01*
X139626911Y-56914847D01*
X139517599Y-56923097D01*
X139476136Y-56928901D01*
X139315430Y-56963229D01*
X139161772Y-57012630D01*
X139015982Y-57076357D01*
X138878884Y-57153667D01*
X138751299Y-57243813D01*
X138634049Y-57346050D01*
X138527956Y-57459632D01*
X138433843Y-57583815D01*
X138352530Y-57717853D01*
X138284841Y-57861000D01*
X138231597Y-58012511D01*
X138215305Y-58072196D01*
X138197614Y-58148950D01*
X138185035Y-58220519D01*
X138177082Y-58291906D01*
X138173266Y-58368111D01*
X138173098Y-58454136D01*
X138174023Y-58495263D01*
X138181722Y-58625760D01*
X138197794Y-58745069D01*
X138223341Y-58857611D01*
X138259466Y-58967809D01*
X138307271Y-59080085D01*
X138332957Y-59132600D01*
X138409575Y-59268283D01*
X138496066Y-59391470D01*
X138594424Y-59504595D01*
X138706641Y-59610092D01*
X138759903Y-59653916D01*
X138827196Y-59707220D01*
X137172916Y-59707220D01*
X137172916Y-56598909D01*
X138983204Y-56601081D01*
G36*
X138983204Y-56601081D02*
G01*
X140793492Y-56603254D01*
X140795735Y-56979949D01*
X140796093Y-57058619D01*
X140796212Y-57131720D01*
X140796105Y-57197509D01*
X140795785Y-57254244D01*
X140795264Y-57300181D01*
X140794555Y-57333579D01*
X140793672Y-57352693D01*
X140792972Y-57356644D01*
X140784784Y-57351268D01*
X140766978Y-57336849D01*
X140742657Y-57315950D01*
X140728420Y-57303331D01*
X140617416Y-57214004D01*
X140494397Y-57133101D01*
X140363253Y-57062701D01*
X140227875Y-57004885D01*
X140092151Y-56961732D01*
X140087177Y-56960445D01*
X139979167Y-56937798D01*
X139862950Y-56922468D01*
X139743779Y-56914728D01*
X139626911Y-56914847D01*
X139517599Y-56923097D01*
X139476136Y-56928901D01*
X139315430Y-56963229D01*
X139161772Y-57012630D01*
X139015982Y-57076357D01*
X138878884Y-57153667D01*
X138751299Y-57243813D01*
X138634049Y-57346050D01*
X138527956Y-57459632D01*
X138433843Y-57583815D01*
X138352530Y-57717853D01*
X138284841Y-57861000D01*
X138231597Y-58012511D01*
X138215305Y-58072196D01*
X138197614Y-58148950D01*
X138185035Y-58220519D01*
X138177082Y-58291906D01*
X138173266Y-58368111D01*
X138173098Y-58454136D01*
X138174023Y-58495263D01*
X138181722Y-58625760D01*
X138197794Y-58745069D01*
X138223341Y-58857611D01*
X138259466Y-58967809D01*
X138307271Y-59080085D01*
X138332957Y-59132600D01*
X138409575Y-59268283D01*
X138496066Y-59391470D01*
X138594424Y-59504595D01*
X138706641Y-59610092D01*
X138759903Y-59653916D01*
X138827196Y-59707220D01*
X137172916Y-59707220D01*
X137172916Y-56598909D01*
X138983204Y-56601081D01*
G37*
X144732644Y-57304983D02*
X144732590Y-57413580D01*
X144732432Y-57517077D01*
X144732179Y-57614201D01*
X144731840Y-57703680D01*
X144731421Y-57784240D01*
X144730933Y-57854609D01*
X144730382Y-57913512D01*
X144729777Y-57959679D01*
X144729127Y-57991834D01*
X144728440Y-58008706D01*
X144728069Y-58011017D01*
X144721478Y-58004316D01*
X144719710Y-58000254D01*
X144699331Y-57942836D01*
X144682993Y-57898232D01*
X144669328Y-57862906D01*
X144656967Y-57833323D01*
X144644541Y-57805949D01*
X144644284Y-57805403D01*
X144570053Y-57666041D01*
X144483126Y-57535311D01*
X144385096Y-57415313D01*
X144277559Y-57308146D01*
X144246170Y-57280900D01*
X144116230Y-57181796D01*
X143980591Y-57098538D01*
X143838441Y-57030795D01*
X143688971Y-56978235D01*
X143531371Y-56940526D01*
X143364833Y-56917335D01*
X143358262Y-56916730D01*
X143215841Y-56912035D01*
X143069867Y-56922728D01*
X142922947Y-56948120D01*
X142777690Y-56987519D01*
X142636705Y-57040235D01*
X142502600Y-57105577D01*
X142393418Y-57172251D01*
X142354032Y-57199978D01*
X142311373Y-57231780D01*
X142269335Y-57264587D01*
X142231810Y-57295326D01*
X142202692Y-57320924D01*
X142192644Y-57330689D01*
X142184471Y-57339209D01*
X142177703Y-57345512D01*
X142172207Y-57348247D01*
X142167852Y-57346064D01*
X142164506Y-57337611D01*
X142162035Y-57321537D01*
X142160308Y-57296492D01*
X142159193Y-57261126D01*
X142158557Y-57214085D01*
X142158268Y-57154021D01*
X142158195Y-57079583D01*
X142158203Y-56989418D01*
X142158204Y-56978851D01*
X142158204Y-56598949D01*
X144732644Y-56598949D01*
X144732644Y-57304983D01*
G36*
X144732644Y-57304983D02*
G01*
X144732590Y-57413580D01*
X144732432Y-57517077D01*
X144732179Y-57614201D01*
X144731840Y-57703680D01*
X144731421Y-57784240D01*
X144730933Y-57854609D01*
X144730382Y-57913512D01*
X144729777Y-57959679D01*
X144729127Y-57991834D01*
X144728440Y-58008706D01*
X144728069Y-58011017D01*
X144721478Y-58004316D01*
X144719710Y-58000254D01*
X144699331Y-57942836D01*
X144682993Y-57898232D01*
X144669328Y-57862906D01*
X144656967Y-57833323D01*
X144644541Y-57805949D01*
X144644284Y-57805403D01*
X144570053Y-57666041D01*
X144483126Y-57535311D01*
X144385096Y-57415313D01*
X144277559Y-57308146D01*
X144246170Y-57280900D01*
X144116230Y-57181796D01*
X143980591Y-57098538D01*
X143838441Y-57030795D01*
X143688971Y-56978235D01*
X143531371Y-56940526D01*
X143364833Y-56917335D01*
X143358262Y-56916730D01*
X143215841Y-56912035D01*
X143069867Y-56922728D01*
X142922947Y-56948120D01*
X142777690Y-56987519D01*
X142636705Y-57040235D01*
X142502600Y-57105577D01*
X142393418Y-57172251D01*
X142354032Y-57199978D01*
X142311373Y-57231780D01*
X142269335Y-57264587D01*
X142231810Y-57295326D01*
X142202692Y-57320924D01*
X142192644Y-57330689D01*
X142184471Y-57339209D01*
X142177703Y-57345512D01*
X142172207Y-57348247D01*
X142167852Y-57346064D01*
X142164506Y-57337611D01*
X142162035Y-57321537D01*
X142160308Y-57296492D01*
X142159193Y-57261126D01*
X142158557Y-57214085D01*
X142158268Y-57154021D01*
X142158195Y-57079583D01*
X142158203Y-56989418D01*
X142158204Y-56978851D01*
X142158204Y-56598949D01*
X144732644Y-56598949D01*
X144732644Y-57304983D01*
G37*
X139822605Y-57362056D02*
X139949795Y-57383557D01*
X140072346Y-57419508D01*
X140189168Y-57469218D01*
X140299169Y-57531995D01*
X140401260Y-57607148D01*
X140494348Y-57693984D01*
X140577344Y-57791811D01*
X140649155Y-57899938D01*
X140708692Y-58017673D01*
X140754864Y-58144324D01*
X140781545Y-58252102D01*
X140787638Y-58296530D01*
X140791434Y-58353235D01*
X140792985Y-58417434D01*
X140792343Y-58484343D01*
X140789561Y-58549180D01*
X140784691Y-58607163D01*
X140777786Y-58653508D01*
X140777102Y-58656780D01*
X140739223Y-58792660D01*
X140685653Y-58922275D01*
X140617065Y-59044037D01*
X140605570Y-59061457D01*
X140570339Y-59108287D01*
X140524836Y-59160664D01*
X140473053Y-59214609D01*
X140418983Y-59266139D01*
X140366617Y-59311274D01*
X140320734Y-59345508D01*
X140203489Y-59413912D01*
X140079546Y-59467484D01*
X139950764Y-59505805D01*
X139819001Y-59528455D01*
X139686114Y-59535016D01*
X139553962Y-59525067D01*
X139536407Y-59522457D01*
X139442158Y-59503717D01*
X139353793Y-59477364D01*
X139264189Y-59441120D01*
X139226441Y-59423361D01*
X139108938Y-59357109D01*
X139003056Y-59279195D01*
X138909120Y-59190901D01*
X138827454Y-59093510D01*
X138758385Y-58988307D01*
X138702237Y-58876574D01*
X138659335Y-58759594D01*
X138630005Y-58638652D01*
X138614571Y-58515030D01*
X138613358Y-58390011D01*
X138626693Y-58264879D01*
X138654898Y-58140918D01*
X138698301Y-58019410D01*
X138757226Y-57901638D01*
X138817410Y-57808678D01*
X138898474Y-57709951D01*
X138992029Y-57620357D01*
X139095653Y-57541562D01*
X139206925Y-57475231D01*
X139323425Y-57423030D01*
X139424111Y-57391178D01*
X139558672Y-57365175D01*
X139691867Y-57355698D01*
X139822605Y-57362056D01*
G36*
X139822605Y-57362056D02*
G01*
X139949795Y-57383557D01*
X140072346Y-57419508D01*
X140189168Y-57469218D01*
X140299169Y-57531995D01*
X140401260Y-57607148D01*
X140494348Y-57693984D01*
X140577344Y-57791811D01*
X140649155Y-57899938D01*
X140708692Y-58017673D01*
X140754864Y-58144324D01*
X140781545Y-58252102D01*
X140787638Y-58296530D01*
X140791434Y-58353235D01*
X140792985Y-58417434D01*
X140792343Y-58484343D01*
X140789561Y-58549180D01*
X140784691Y-58607163D01*
X140777786Y-58653508D01*
X140777102Y-58656780D01*
X140739223Y-58792660D01*
X140685653Y-58922275D01*
X140617065Y-59044037D01*
X140605570Y-59061457D01*
X140570339Y-59108287D01*
X140524836Y-59160664D01*
X140473053Y-59214609D01*
X140418983Y-59266139D01*
X140366617Y-59311274D01*
X140320734Y-59345508D01*
X140203489Y-59413912D01*
X140079546Y-59467484D01*
X139950764Y-59505805D01*
X139819001Y-59528455D01*
X139686114Y-59535016D01*
X139553962Y-59525067D01*
X139536407Y-59522457D01*
X139442158Y-59503717D01*
X139353793Y-59477364D01*
X139264189Y-59441120D01*
X139226441Y-59423361D01*
X139108938Y-59357109D01*
X139003056Y-59279195D01*
X138909120Y-59190901D01*
X138827454Y-59093510D01*
X138758385Y-58988307D01*
X138702237Y-58876574D01*
X138659335Y-58759594D01*
X138630005Y-58638652D01*
X138614571Y-58515030D01*
X138613358Y-58390011D01*
X138626693Y-58264879D01*
X138654898Y-58140918D01*
X138698301Y-58019410D01*
X138757226Y-57901638D01*
X138817410Y-57808678D01*
X138898474Y-57709951D01*
X138992029Y-57620357D01*
X139095653Y-57541562D01*
X139206925Y-57475231D01*
X139323425Y-57423030D01*
X139424111Y-57391178D01*
X139558672Y-57365175D01*
X139691867Y-57355698D01*
X139822605Y-57362056D01*
G37*
X143308310Y-57361901D02*
X143355779Y-57362943D01*
X143393564Y-57365001D01*
X143425428Y-57368389D01*
X143455139Y-57373418D01*
X143486461Y-57380403D01*
X143492780Y-57381946D01*
X143576119Y-57404958D01*
X143650428Y-57431387D01*
X143723896Y-57464327D01*
X143761455Y-57483458D01*
X143875870Y-57553157D01*
X143979759Y-57635794D01*
X144072247Y-57730045D01*
X144152458Y-57834583D01*
X144219516Y-57948084D01*
X144272545Y-58069223D01*
X144310668Y-58196675D01*
X144333011Y-58329115D01*
X144335099Y-58351118D01*
X144338258Y-58486962D01*
X144325016Y-58620169D01*
X144296002Y-58749426D01*
X144251845Y-58873420D01*
X144193172Y-58990839D01*
X144120614Y-59100368D01*
X144034798Y-59200696D01*
X143936353Y-59290508D01*
X143857925Y-59347978D01*
X143749906Y-59412609D01*
X143640798Y-59462600D01*
X143525594Y-59500080D01*
X143466949Y-59514190D01*
X143436507Y-59519062D01*
X143394391Y-59523498D01*
X143344767Y-59527300D01*
X143291796Y-59530271D01*
X143239642Y-59532212D01*
X143192469Y-59532927D01*
X143154439Y-59532217D01*
X143131153Y-59530143D01*
X143111777Y-59526950D01*
X143081964Y-59522122D01*
X143049356Y-59516894D01*
X142940166Y-59491786D01*
X142829608Y-59451879D01*
X142721068Y-59398923D01*
X142617934Y-59334669D01*
X142523592Y-59260870D01*
X142484948Y-59225051D01*
X142393124Y-59123671D01*
X142315994Y-59013684D01*
X142253241Y-58894526D01*
X142204549Y-58765636D01*
X142183850Y-58691220D01*
X142173600Y-58637039D01*
X142165910Y-58571212D01*
X142161017Y-58499160D01*
X142159164Y-58426301D01*
X142160588Y-58358053D01*
X142165531Y-58299836D01*
X142166277Y-58294432D01*
X142194210Y-58158705D01*
X142237609Y-58030291D01*
X142296232Y-57909683D01*
X142369840Y-57797370D01*
X142458194Y-57693842D01*
X142461585Y-57690349D01*
X142560058Y-57599503D01*
X142664215Y-57523802D01*
X142776183Y-57462023D01*
X142898086Y-57412942D01*
X142991437Y-57385233D01*
X143025540Y-57376729D01*
X143054829Y-57370522D01*
X143083116Y-57366257D01*
X143114211Y-57363584D01*
X143151926Y-57362150D01*
X143200072Y-57361602D01*
X143247390Y-57361564D01*
X143308310Y-57361901D01*
G36*
X143308310Y-57361901D02*
G01*
X143355779Y-57362943D01*
X143393564Y-57365001D01*
X143425428Y-57368389D01*
X143455139Y-57373418D01*
X143486461Y-57380403D01*
X143492780Y-57381946D01*
X143576119Y-57404958D01*
X143650428Y-57431387D01*
X143723896Y-57464327D01*
X143761455Y-57483458D01*
X143875870Y-57553157D01*
X143979759Y-57635794D01*
X144072247Y-57730045D01*
X144152458Y-57834583D01*
X144219516Y-57948084D01*
X144272545Y-58069223D01*
X144310668Y-58196675D01*
X144333011Y-58329115D01*
X144335099Y-58351118D01*
X144338258Y-58486962D01*
X144325016Y-58620169D01*
X144296002Y-58749426D01*
X144251845Y-58873420D01*
X144193172Y-58990839D01*
X144120614Y-59100368D01*
X144034798Y-59200696D01*
X143936353Y-59290508D01*
X143857925Y-59347978D01*
X143749906Y-59412609D01*
X143640798Y-59462600D01*
X143525594Y-59500080D01*
X143466949Y-59514190D01*
X143436507Y-59519062D01*
X143394391Y-59523498D01*
X143344767Y-59527300D01*
X143291796Y-59530271D01*
X143239642Y-59532212D01*
X143192469Y-59532927D01*
X143154439Y-59532217D01*
X143131153Y-59530143D01*
X143111777Y-59526950D01*
X143081964Y-59522122D01*
X143049356Y-59516894D01*
X142940166Y-59491786D01*
X142829608Y-59451879D01*
X142721068Y-59398923D01*
X142617934Y-59334669D01*
X142523592Y-59260870D01*
X142484948Y-59225051D01*
X142393124Y-59123671D01*
X142315994Y-59013684D01*
X142253241Y-58894526D01*
X142204549Y-58765636D01*
X142183850Y-58691220D01*
X142173600Y-58637039D01*
X142165910Y-58571212D01*
X142161017Y-58499160D01*
X142159164Y-58426301D01*
X142160588Y-58358053D01*
X142165531Y-58299836D01*
X142166277Y-58294432D01*
X142194210Y-58158705D01*
X142237609Y-58030291D01*
X142296232Y-57909683D01*
X142369840Y-57797370D01*
X142458194Y-57693842D01*
X142461585Y-57690349D01*
X142560058Y-57599503D01*
X142664215Y-57523802D01*
X142776183Y-57462023D01*
X142898086Y-57412942D01*
X142991437Y-57385233D01*
X143025540Y-57376729D01*
X143054829Y-57370522D01*
X143083116Y-57366257D01*
X143114211Y-57363584D01*
X143151926Y-57362150D01*
X143200072Y-57361602D01*
X143247390Y-57361564D01*
X143308310Y-57361901D01*
G37*
X141710475Y-57549322D02*
X141710500Y-57706135D01*
X141710597Y-57846792D01*
X141710797Y-57972361D01*
X141711131Y-58083906D01*
X141711630Y-58182493D01*
X141712326Y-58269187D01*
X141713250Y-58345054D01*
X141714434Y-58411159D01*
X141715909Y-58468569D01*
X141717705Y-58518348D01*
X141719855Y-58561562D01*
X141722390Y-58599277D01*
X141725340Y-58632558D01*
X141728738Y-58662471D01*
X141732615Y-58690081D01*
X141737001Y-58716454D01*
X141741929Y-58742655D01*
X141746162Y-58763626D01*
X141778071Y-58886723D01*
X141822772Y-59012031D01*
X141878262Y-59135321D01*
X141942537Y-59252363D01*
X142013594Y-59358926D01*
X142050616Y-59406442D01*
X142086159Y-59447047D01*
X142130259Y-59493628D01*
X142178455Y-59541771D01*
X142226285Y-59587063D01*
X142269290Y-59625091D01*
X142283051Y-59636410D01*
X142311611Y-59659400D01*
X142336071Y-59679323D01*
X142352514Y-59692980D01*
X142355930Y-59695937D01*
X142355551Y-59697790D01*
X142349458Y-59699437D01*
X142336783Y-59700890D01*
X142316657Y-59702160D01*
X142288214Y-59703257D01*
X142250584Y-59704193D01*
X142202901Y-59704980D01*
X142144296Y-59705627D01*
X142073902Y-59706147D01*
X141990851Y-59706550D01*
X141894275Y-59706847D01*
X141783306Y-59707051D01*
X141657076Y-59707170D01*
X141514718Y-59707218D01*
X141475252Y-59707220D01*
X140581966Y-59707220D01*
X140667640Y-59638307D01*
X140787245Y-59531154D01*
X140894736Y-59412242D01*
X140989268Y-59282830D01*
X141069995Y-59144182D01*
X141136073Y-58997558D01*
X141176973Y-58878218D01*
X141184978Y-58851563D01*
X141192158Y-58827645D01*
X141198563Y-58805433D01*
X141204240Y-58783900D01*
X141209239Y-58762016D01*
X141213608Y-58738753D01*
X141217397Y-58713081D01*
X141220655Y-58683972D01*
X141223430Y-58650396D01*
X141225772Y-58611326D01*
X141227728Y-58565731D01*
X141229349Y-58512584D01*
X141230682Y-58450854D01*
X141231777Y-58379514D01*
X141232683Y-58297535D01*
X141233449Y-58203887D01*
X141234123Y-58097542D01*
X141234754Y-57977470D01*
X141235392Y-57842644D01*
X141236084Y-57692033D01*
X141236384Y-57627864D01*
X141241221Y-56603254D01*
X141710475Y-56598672D01*
X141710475Y-57549322D01*
G36*
X141710475Y-57549322D02*
G01*
X141710500Y-57706135D01*
X141710597Y-57846792D01*
X141710797Y-57972361D01*
X141711131Y-58083906D01*
X141711630Y-58182493D01*
X141712326Y-58269187D01*
X141713250Y-58345054D01*
X141714434Y-58411159D01*
X141715909Y-58468569D01*
X141717705Y-58518348D01*
X141719855Y-58561562D01*
X141722390Y-58599277D01*
X141725340Y-58632558D01*
X141728738Y-58662471D01*
X141732615Y-58690081D01*
X141737001Y-58716454D01*
X141741929Y-58742655D01*
X141746162Y-58763626D01*
X141778071Y-58886723D01*
X141822772Y-59012031D01*
X141878262Y-59135321D01*
X141942537Y-59252363D01*
X142013594Y-59358926D01*
X142050616Y-59406442D01*
X142086159Y-59447047D01*
X142130259Y-59493628D01*
X142178455Y-59541771D01*
X142226285Y-59587063D01*
X142269290Y-59625091D01*
X142283051Y-59636410D01*
X142311611Y-59659400D01*
X142336071Y-59679323D01*
X142352514Y-59692980D01*
X142355930Y-59695937D01*
X142355551Y-59697790D01*
X142349458Y-59699437D01*
X142336783Y-59700890D01*
X142316657Y-59702160D01*
X142288214Y-59703257D01*
X142250584Y-59704193D01*
X142202901Y-59704980D01*
X142144296Y-59705627D01*
X142073902Y-59706147D01*
X141990851Y-59706550D01*
X141894275Y-59706847D01*
X141783306Y-59707051D01*
X141657076Y-59707170D01*
X141514718Y-59707218D01*
X141475252Y-59707220D01*
X140581966Y-59707220D01*
X140667640Y-59638307D01*
X140787245Y-59531154D01*
X140894736Y-59412242D01*
X140989268Y-59282830D01*
X141069995Y-59144182D01*
X141136073Y-58997558D01*
X141176973Y-58878218D01*
X141184978Y-58851563D01*
X141192158Y-58827645D01*
X141198563Y-58805433D01*
X141204240Y-58783900D01*
X141209239Y-58762016D01*
X141213608Y-58738753D01*
X141217397Y-58713081D01*
X141220655Y-58683972D01*
X141223430Y-58650396D01*
X141225772Y-58611326D01*
X141227728Y-58565731D01*
X141229349Y-58512584D01*
X141230682Y-58450854D01*
X141231777Y-58379514D01*
X141232683Y-58297535D01*
X141233449Y-58203887D01*
X141234123Y-58097542D01*
X141234754Y-57977470D01*
X141235392Y-57842644D01*
X141236084Y-57692033D01*
X141236384Y-57627864D01*
X141241221Y-56603254D01*
X141710475Y-56598672D01*
X141710475Y-57549322D01*
G37*
D12*
X134620000Y-64770000D02*
X134620000Y-146050000D01*
X134620000Y-67310000D02*
X137160000Y-67310000D01*
X134620000Y-146050000D02*
X137160000Y-146050000D01*
X137160000Y-64770000D02*
X134620000Y-64770000D01*
X137160000Y-146050000D02*
X137160000Y-64770000D01*
X152400000Y-64770000D02*
X152400000Y-146050000D01*
X152400000Y-67310000D02*
X154940000Y-67310000D01*
X152400000Y-146050000D02*
X154940000Y-146050000D01*
X154940000Y-64770000D02*
X152400000Y-64770000D01*
X154940000Y-146050000D02*
X154940000Y-64770000D01*
M02*
