M48
; DRILL file {KiCad (6.0.5)} date Tue Aug 23 15:00:08 2022
; FORMAT={-:-/ absolute / inch / decimal}
; #@! TF.CreationDate,2022-08-23T15:00:08-04:00
; #@! TF.GenerationSoftware,Kicad,Pcbnew,(6.0.5)
; #@! TF.FileFunction,MixedPlating,1,2
FMAT,2
INCH
; #@! TA.AperFunction,Plated,PTH,ViaDrill
T1C0.0100
; #@! TA.AperFunction,Plated,PTH,ComponentDrill
T2C0.0400
%
G90
G05
T1
X5.167Y-3.649
X5.168Y-3.15
X5.182Y-3.35
X5.1956Y-4.8996
X5.196Y-3.55
X5.196Y-3.6
X5.21Y-5.84
X5.224Y-3.535
X5.254Y-5.1
X5.277Y-5.0
X5.296Y-4.441
X5.408Y-3.85
X5.429Y-4.349
X5.465Y-5.285
X5.465Y-5.4
X5.465Y-5.5
X5.466Y-4.6
X5.475Y-3.0
X5.475Y-3.105
X5.48Y-4.3
X5.494Y-4.2
X5.515Y-4.0
X5.67Y-3.745
X5.675Y-4.97
X5.685Y-3.621
X5.691Y-5.2
X5.693Y-5.3
X5.699Y-4.25
X5.7Y-3.2
X5.7015Y-5.05
X5.7123Y-3.3365
X5.714Y-3.549
X5.714Y-4.113
X5.715Y-4.7
X5.715Y-5.1
X5.73Y-2.875
X5.731Y-4.064
X5.735Y-3.245
X5.776Y-2.355
X5.887Y-4.4
X5.901Y-4.299
X5.915Y-4.2
X5.929Y-4.1
X5.935Y-3.1
X5.935Y-3.2
X5.953Y-4.939
X5.965Y-2.5
X6.096Y-5.05
X6.125Y-3.745
X6.13Y-4.565
T2
X5.35Y-2.6
X5.35Y-2.7
X5.35Y-2.8
X5.35Y-2.9
X5.35Y-3.0
X5.35Y-3.1
X5.35Y-3.2
X5.35Y-3.3
X5.35Y-3.4
X5.35Y-3.5
X5.35Y-3.6
X5.35Y-3.7
X5.35Y-3.8
X5.35Y-3.9
X5.35Y-4.0
X5.35Y-4.1
X5.35Y-4.2
X5.35Y-4.3
X5.35Y-4.4
X5.35Y-4.5
X5.35Y-4.6
X5.35Y-4.7
X5.35Y-4.8
X5.35Y-4.9
X5.35Y-5.0
X5.35Y-5.1
X5.35Y-5.2
X5.35Y-5.3
X5.35Y-5.4
X5.35Y-5.5
X5.35Y-5.6
X5.35Y-5.7
X5.6Y-2.6
X5.6Y-2.7
X5.6Y-2.8
X5.6Y-2.9
X5.6Y-3.0
X5.6Y-3.1
X5.6Y-3.2
X5.6Y-3.3
X5.6Y-3.4
X5.6Y-3.5
X5.6Y-3.6
X5.6Y-3.7
X5.6Y-3.8
X5.6Y-3.9
X5.6Y-4.0
X5.6Y-4.1
X5.6Y-4.2
X5.6Y-4.3
X5.6Y-4.4
X5.6Y-4.5
X5.6Y-4.6
X5.6Y-4.7
X5.6Y-4.8
X5.6Y-4.9
X5.6Y-5.0
X5.6Y-5.1
X5.6Y-5.2
X5.6Y-5.3
X5.6Y-5.4
X5.6Y-5.5
X5.6Y-5.6
X5.6Y-5.7
X5.8Y-2.6
X5.8Y-2.7
X5.8Y-2.8
X5.8Y-2.9
X5.8Y-3.0
X5.8Y-3.1
X5.8Y-3.2
X5.8Y-3.3
X5.8Y-3.4
X5.8Y-3.5
X5.8Y-3.6
X5.8Y-3.7
X5.8Y-3.8
X5.8Y-3.9
X5.8Y-4.0
X5.8Y-4.1
X5.8Y-4.2
X5.8Y-4.3
X5.8Y-4.4
X5.8Y-4.5
X5.8Y-4.6
X5.8Y-4.7
X5.8Y-4.8
X5.8Y-4.9
X5.8Y-5.0
X5.8Y-5.1
X5.8Y-5.2
X5.8Y-5.3
X5.8Y-5.4
X5.8Y-5.5
X5.8Y-5.6
X5.8Y-5.7
X6.05Y-2.6
X6.05Y-2.7
X6.05Y-2.8
X6.05Y-2.9
X6.05Y-3.0
X6.05Y-3.1
X6.05Y-3.2
X6.05Y-3.3
X6.05Y-3.4
X6.05Y-3.5
X6.05Y-3.6
X6.05Y-3.7
X6.05Y-3.8
X6.05Y-3.9
X6.05Y-4.0
X6.05Y-4.1
X6.05Y-4.2
X6.05Y-4.3
X6.05Y-4.4
X6.05Y-4.5
X6.05Y-4.6
X6.05Y-4.7
X6.05Y-4.8
X6.05Y-4.9
X6.05Y-5.0
X6.05Y-5.1
X6.05Y-5.2
X6.05Y-5.3
X6.05Y-5.4
X6.05Y-5.5
X6.05Y-5.6
X6.05Y-5.7
T0
M30
