G04 #@! TF.GenerationSoftware,KiCad,Pcbnew,(6.0.5)*
G04 #@! TF.CreationDate,2022-08-23T14:59:46-04:00*
G04 #@! TF.ProjectId,genesis-umd,67656e65-7369-4732-9d75-6d642e6b6963,2.2*
G04 #@! TF.SameCoordinates,Original*
G04 #@! TF.FileFunction,Legend,Top*
G04 #@! TF.FilePolarity,Positive*
%FSLAX46Y46*%
G04 Gerber Fmt 4.6, Leading zero omitted, Abs format (unit mm)*
G04 Created by KiCad (PCBNEW (6.0.5)) date 2022-08-23 14:59:46*
%MOMM*%
%LPD*%
G01*
G04 APERTURE LIST*
%ADD10C,0.152400*%
%ADD11C,0.203200*%
%ADD12C,0.010000*%
%ADD13C,0.254000*%
G04 APERTURE END LIST*
D10*
X137752666Y-60981166D02*
X137752666Y-60092166D01*
X137752666Y-60938833D02*
X137668000Y-60981166D01*
X137498666Y-60981166D01*
X137414000Y-60938833D01*
X137371666Y-60896500D01*
X137329333Y-60811833D01*
X137329333Y-60557833D01*
X137371666Y-60473166D01*
X137414000Y-60430833D01*
X137498666Y-60388500D01*
X137668000Y-60388500D01*
X137752666Y-60430833D01*
X138176000Y-60981166D02*
X138176000Y-60092166D01*
X138176000Y-60430833D02*
X138260666Y-60388500D01*
X138430000Y-60388500D01*
X138514666Y-60430833D01*
X138557000Y-60473166D01*
X138599333Y-60557833D01*
X138599333Y-60811833D01*
X138557000Y-60896500D01*
X138514666Y-60938833D01*
X138430000Y-60981166D01*
X138260666Y-60981166D01*
X138176000Y-60938833D01*
X139657666Y-60515500D02*
X139954000Y-60515500D01*
X140081000Y-60981166D02*
X139657666Y-60981166D01*
X139657666Y-60092166D01*
X140081000Y-60092166D01*
X140589000Y-60981166D02*
X140504333Y-60938833D01*
X140462000Y-60854166D01*
X140462000Y-60092166D01*
X141266333Y-60938833D02*
X141181666Y-60981166D01*
X141012333Y-60981166D01*
X140927666Y-60938833D01*
X140885333Y-60854166D01*
X140885333Y-60515500D01*
X140927666Y-60430833D01*
X141012333Y-60388500D01*
X141181666Y-60388500D01*
X141266333Y-60430833D01*
X141308666Y-60515500D01*
X141308666Y-60600166D01*
X140885333Y-60684833D01*
X142070666Y-60938833D02*
X141986000Y-60981166D01*
X141816666Y-60981166D01*
X141732000Y-60938833D01*
X141689666Y-60896500D01*
X141647333Y-60811833D01*
X141647333Y-60557833D01*
X141689666Y-60473166D01*
X141732000Y-60430833D01*
X141816666Y-60388500D01*
X141986000Y-60388500D01*
X142070666Y-60430833D01*
X142324666Y-60388500D02*
X142663333Y-60388500D01*
X142451666Y-60092166D02*
X142451666Y-60854166D01*
X142494000Y-60938833D01*
X142578666Y-60981166D01*
X142663333Y-60981166D01*
X142959666Y-60981166D02*
X142959666Y-60388500D01*
X142959666Y-60557833D02*
X143002000Y-60473166D01*
X143044333Y-60430833D01*
X143129000Y-60388500D01*
X143213666Y-60388500D01*
X143637000Y-60981166D02*
X143552333Y-60938833D01*
X143510000Y-60896500D01*
X143467666Y-60811833D01*
X143467666Y-60557833D01*
X143510000Y-60473166D01*
X143552333Y-60430833D01*
X143637000Y-60388500D01*
X143764000Y-60388500D01*
X143848666Y-60430833D01*
X143891000Y-60473166D01*
X143933333Y-60557833D01*
X143933333Y-60811833D01*
X143891000Y-60896500D01*
X143848666Y-60938833D01*
X143764000Y-60981166D01*
X143637000Y-60981166D01*
X144314333Y-60388500D02*
X144314333Y-60981166D01*
X144314333Y-60473166D02*
X144356666Y-60430833D01*
X144441333Y-60388500D01*
X144568333Y-60388500D01*
X144653000Y-60430833D01*
X144695333Y-60515500D01*
X144695333Y-60981166D01*
X145118666Y-60981166D02*
X145118666Y-60388500D01*
X145118666Y-60092166D02*
X145076333Y-60134500D01*
X145118666Y-60176833D01*
X145161000Y-60134500D01*
X145118666Y-60092166D01*
X145118666Y-60176833D01*
X145923000Y-60938833D02*
X145838333Y-60981166D01*
X145669000Y-60981166D01*
X145584333Y-60938833D01*
X145542000Y-60896500D01*
X145499666Y-60811833D01*
X145499666Y-60557833D01*
X145542000Y-60473166D01*
X145584333Y-60430833D01*
X145669000Y-60388500D01*
X145838333Y-60388500D01*
X145923000Y-60430833D01*
X146261666Y-60938833D02*
X146346333Y-60981166D01*
X146515666Y-60981166D01*
X146600333Y-60938833D01*
X146642666Y-60854166D01*
X146642666Y-60811833D01*
X146600333Y-60727166D01*
X146515666Y-60684833D01*
X146388666Y-60684833D01*
X146304000Y-60642500D01*
X146261666Y-60557833D01*
X146261666Y-60515500D01*
X146304000Y-60430833D01*
X146388666Y-60388500D01*
X146515666Y-60388500D01*
X146600333Y-60430833D01*
X131254500Y-82761666D02*
X131212166Y-82846333D01*
X131212166Y-82973333D01*
X131254500Y-83100333D01*
X131339166Y-83185000D01*
X131423833Y-83227333D01*
X131593166Y-83269666D01*
X131720166Y-83269666D01*
X131889500Y-83227333D01*
X131974166Y-83185000D01*
X132058833Y-83100333D01*
X132101166Y-82973333D01*
X132101166Y-82888666D01*
X132058833Y-82761666D01*
X132016500Y-82719333D01*
X131720166Y-82719333D01*
X131720166Y-82888666D01*
X132058833Y-81999666D02*
X132101166Y-82084333D01*
X132101166Y-82253666D01*
X132058833Y-82338333D01*
X131974166Y-82380666D01*
X131635500Y-82380666D01*
X131550833Y-82338333D01*
X131508500Y-82253666D01*
X131508500Y-82084333D01*
X131550833Y-81999666D01*
X131635500Y-81957333D01*
X131720166Y-81957333D01*
X131804833Y-82380666D01*
X131508500Y-81576333D02*
X132101166Y-81576333D01*
X131593166Y-81576333D02*
X131550833Y-81534000D01*
X131508500Y-81449333D01*
X131508500Y-81322333D01*
X131550833Y-81237666D01*
X131635500Y-81195333D01*
X132101166Y-81195333D01*
X132058833Y-80433333D02*
X132101166Y-80518000D01*
X132101166Y-80687333D01*
X132058833Y-80772000D01*
X131974166Y-80814333D01*
X131635500Y-80814333D01*
X131550833Y-80772000D01*
X131508500Y-80687333D01*
X131508500Y-80518000D01*
X131550833Y-80433333D01*
X131635500Y-80391000D01*
X131720166Y-80391000D01*
X131804833Y-80814333D01*
X132058833Y-80052333D02*
X132101166Y-79967666D01*
X132101166Y-79798333D01*
X132058833Y-79713666D01*
X131974166Y-79671333D01*
X131931833Y-79671333D01*
X131847166Y-79713666D01*
X131804833Y-79798333D01*
X131804833Y-79925333D01*
X131762500Y-80010000D01*
X131677833Y-80052333D01*
X131635500Y-80052333D01*
X131550833Y-80010000D01*
X131508500Y-79925333D01*
X131508500Y-79798333D01*
X131550833Y-79713666D01*
X132101166Y-79290333D02*
X131508500Y-79290333D01*
X131212166Y-79290333D02*
X131254500Y-79332666D01*
X131296833Y-79290333D01*
X131254500Y-79248000D01*
X131212166Y-79290333D01*
X131296833Y-79290333D01*
X132058833Y-78909333D02*
X132101166Y-78824666D01*
X132101166Y-78655333D01*
X132058833Y-78570666D01*
X131974166Y-78528333D01*
X131931833Y-78528333D01*
X131847166Y-78570666D01*
X131804833Y-78655333D01*
X131804833Y-78782333D01*
X131762500Y-78867000D01*
X131677833Y-78909333D01*
X131635500Y-78909333D01*
X131550833Y-78867000D01*
X131508500Y-78782333D01*
X131508500Y-78655333D01*
X131550833Y-78570666D01*
X131508500Y-77554666D02*
X132101166Y-77343000D01*
X131508500Y-77131333D01*
X131212166Y-76877333D02*
X131212166Y-76327000D01*
X131550833Y-76623333D01*
X131550833Y-76496333D01*
X131593166Y-76411666D01*
X131635500Y-76369333D01*
X131720166Y-76327000D01*
X131931833Y-76327000D01*
X132016500Y-76369333D01*
X132058833Y-76411666D01*
X132101166Y-76496333D01*
X132101166Y-76750333D01*
X132058833Y-76835000D01*
X132016500Y-76877333D01*
X132016500Y-75946000D02*
X132058833Y-75903666D01*
X132101166Y-75946000D01*
X132058833Y-75988333D01*
X132016500Y-75946000D01*
X132101166Y-75946000D01*
X131212166Y-75353333D02*
X131212166Y-75268666D01*
X131254500Y-75184000D01*
X131296833Y-75141666D01*
X131381500Y-75099333D01*
X131550833Y-75057000D01*
X131762500Y-75057000D01*
X131931833Y-75099333D01*
X132016500Y-75141666D01*
X132058833Y-75184000D01*
X132101166Y-75268666D01*
X132101166Y-75353333D01*
X132058833Y-75438000D01*
X132016500Y-75480333D01*
X131931833Y-75522666D01*
X131762500Y-75565000D01*
X131550833Y-75565000D01*
X131381500Y-75522666D01*
X131296833Y-75480333D01*
X131254500Y-75438000D01*
X131212166Y-75353333D01*
X132101166Y-73998666D02*
X131212166Y-73998666D01*
X132101166Y-73575333D02*
X131212166Y-73575333D01*
X131212166Y-73363666D01*
X131254500Y-73236666D01*
X131339166Y-73152000D01*
X131423833Y-73109666D01*
X131593166Y-73067333D01*
X131720166Y-73067333D01*
X131889500Y-73109666D01*
X131974166Y-73152000D01*
X132058833Y-73236666D01*
X132101166Y-73363666D01*
X132101166Y-73575333D01*
X131635500Y-72009000D02*
X131635500Y-71331666D01*
X131889500Y-71331666D02*
X131889500Y-72009000D01*
X131212166Y-70061666D02*
X131212166Y-69977000D01*
X131254500Y-69892333D01*
X131296833Y-69850000D01*
X131381500Y-69807666D01*
X131550833Y-69765333D01*
X131762500Y-69765333D01*
X131931833Y-69807666D01*
X132016500Y-69850000D01*
X132058833Y-69892333D01*
X132101166Y-69977000D01*
X132101166Y-70061666D01*
X132058833Y-70146333D01*
X132016500Y-70188666D01*
X131931833Y-70231000D01*
X131762500Y-70273333D01*
X131550833Y-70273333D01*
X131381500Y-70231000D01*
X131296833Y-70188666D01*
X131254500Y-70146333D01*
X131212166Y-70061666D01*
X132101166Y-69469000D02*
X131508500Y-69003333D01*
X131508500Y-69469000D02*
X132101166Y-69003333D01*
X131212166Y-68495333D02*
X131212166Y-68410666D01*
X131254500Y-68326000D01*
X131296833Y-68283666D01*
X131381500Y-68241333D01*
X131550833Y-68199000D01*
X131762500Y-68199000D01*
X131931833Y-68241333D01*
X132016500Y-68283666D01*
X132058833Y-68326000D01*
X132101166Y-68410666D01*
X132101166Y-68495333D01*
X132058833Y-68580000D01*
X132016500Y-68622333D01*
X131931833Y-68664666D01*
X131762500Y-68707000D01*
X131550833Y-68707000D01*
X131381500Y-68664666D01*
X131296833Y-68622333D01*
X131254500Y-68580000D01*
X131212166Y-68495333D01*
X132101166Y-67352333D02*
X132101166Y-67860333D01*
X132101166Y-67606333D02*
X131212166Y-67606333D01*
X131339166Y-67691000D01*
X131423833Y-67775666D01*
X131466166Y-67860333D01*
X132355166Y-137604500D02*
X131466166Y-137604500D01*
X132355166Y-137223500D02*
X131889500Y-137223500D01*
X131804833Y-137265833D01*
X131762500Y-137350500D01*
X131762500Y-137477500D01*
X131804833Y-137562166D01*
X131847166Y-137604500D01*
X131762500Y-136927166D02*
X131762500Y-136588500D01*
X131466166Y-136800166D02*
X132228166Y-136800166D01*
X132312833Y-136757833D01*
X132355166Y-136673166D01*
X132355166Y-136588500D01*
X131762500Y-136419166D02*
X131762500Y-136080500D01*
X131466166Y-136292166D02*
X132228166Y-136292166D01*
X132312833Y-136249833D01*
X132355166Y-136165166D01*
X132355166Y-136080500D01*
X131762500Y-135784166D02*
X132651500Y-135784166D01*
X131804833Y-135784166D02*
X131762500Y-135699500D01*
X131762500Y-135530166D01*
X131804833Y-135445500D01*
X131847166Y-135403166D01*
X131931833Y-135360833D01*
X132185833Y-135360833D01*
X132270500Y-135403166D01*
X132312833Y-135445500D01*
X132355166Y-135530166D01*
X132355166Y-135699500D01*
X132312833Y-135784166D01*
X132312833Y-135022166D02*
X132355166Y-134937500D01*
X132355166Y-134768166D01*
X132312833Y-134683500D01*
X132228166Y-134641166D01*
X132185833Y-134641166D01*
X132101166Y-134683500D01*
X132058833Y-134768166D01*
X132058833Y-134895166D01*
X132016500Y-134979833D01*
X131931833Y-135022166D01*
X131889500Y-135022166D01*
X131804833Y-134979833D01*
X131762500Y-134895166D01*
X131762500Y-134768166D01*
X131804833Y-134683500D01*
X132270500Y-134260166D02*
X132312833Y-134217833D01*
X132355166Y-134260166D01*
X132312833Y-134302500D01*
X132270500Y-134260166D01*
X132355166Y-134260166D01*
X131804833Y-134260166D02*
X131847166Y-134217833D01*
X131889500Y-134260166D01*
X131847166Y-134302500D01*
X131804833Y-134260166D01*
X131889500Y-134260166D01*
X131423833Y-133201833D02*
X132566833Y-133963833D01*
X131423833Y-132270500D02*
X132566833Y-133032500D01*
X131762500Y-131593166D02*
X132482166Y-131593166D01*
X132566833Y-131635500D01*
X132609166Y-131677833D01*
X132651500Y-131762500D01*
X132651500Y-131889500D01*
X132609166Y-131974166D01*
X132312833Y-131593166D02*
X132355166Y-131677833D01*
X132355166Y-131847166D01*
X132312833Y-131931833D01*
X132270500Y-131974166D01*
X132185833Y-132016500D01*
X131931833Y-132016500D01*
X131847166Y-131974166D01*
X131804833Y-131931833D01*
X131762500Y-131847166D01*
X131762500Y-131677833D01*
X131804833Y-131593166D01*
X132355166Y-131169833D02*
X131762500Y-131169833D01*
X131466166Y-131169833D02*
X131508500Y-131212166D01*
X131550833Y-131169833D01*
X131508500Y-131127500D01*
X131466166Y-131169833D01*
X131550833Y-131169833D01*
X131762500Y-130873500D02*
X131762500Y-130534833D01*
X131466166Y-130746500D02*
X132228166Y-130746500D01*
X132312833Y-130704166D01*
X132355166Y-130619500D01*
X132355166Y-130534833D01*
X132355166Y-130238500D02*
X131466166Y-130238500D01*
X132355166Y-129857500D02*
X131889500Y-129857500D01*
X131804833Y-129899833D01*
X131762500Y-129984500D01*
X131762500Y-130111500D01*
X131804833Y-130196166D01*
X131847166Y-130238500D01*
X131762500Y-129053166D02*
X132355166Y-129053166D01*
X131762500Y-129434166D02*
X132228166Y-129434166D01*
X132312833Y-129391833D01*
X132355166Y-129307166D01*
X132355166Y-129180166D01*
X132312833Y-129095500D01*
X132270500Y-129053166D01*
X132355166Y-128629833D02*
X131466166Y-128629833D01*
X131804833Y-128629833D02*
X131762500Y-128545166D01*
X131762500Y-128375833D01*
X131804833Y-128291166D01*
X131847166Y-128248833D01*
X131931833Y-128206500D01*
X132185833Y-128206500D01*
X132270500Y-128248833D01*
X132312833Y-128291166D01*
X132355166Y-128375833D01*
X132355166Y-128545166D01*
X132312833Y-128629833D01*
X132270500Y-127825500D02*
X132312833Y-127783166D01*
X132355166Y-127825500D01*
X132312833Y-127867833D01*
X132270500Y-127825500D01*
X132355166Y-127825500D01*
X132312833Y-127021166D02*
X132355166Y-127105833D01*
X132355166Y-127275166D01*
X132312833Y-127359833D01*
X132270500Y-127402166D01*
X132185833Y-127444500D01*
X131931833Y-127444500D01*
X131847166Y-127402166D01*
X131804833Y-127359833D01*
X131762500Y-127275166D01*
X131762500Y-127105833D01*
X131804833Y-127021166D01*
X132355166Y-126513166D02*
X132312833Y-126597833D01*
X132270500Y-126640166D01*
X132185833Y-126682500D01*
X131931833Y-126682500D01*
X131847166Y-126640166D01*
X131804833Y-126597833D01*
X131762500Y-126513166D01*
X131762500Y-126386166D01*
X131804833Y-126301500D01*
X131847166Y-126259166D01*
X131931833Y-126216833D01*
X132185833Y-126216833D01*
X132270500Y-126259166D01*
X132312833Y-126301500D01*
X132355166Y-126386166D01*
X132355166Y-126513166D01*
X132355166Y-125835833D02*
X131762500Y-125835833D01*
X131847166Y-125835833D02*
X131804833Y-125793500D01*
X131762500Y-125708833D01*
X131762500Y-125581833D01*
X131804833Y-125497166D01*
X131889500Y-125454833D01*
X132355166Y-125454833D01*
X131889500Y-125454833D02*
X131804833Y-125412500D01*
X131762500Y-125327833D01*
X131762500Y-125200833D01*
X131804833Y-125116166D01*
X131889500Y-125073833D01*
X132355166Y-125073833D01*
X131423833Y-124015500D02*
X132566833Y-124777500D01*
X132355166Y-123338166D02*
X131466166Y-123338166D01*
X132312833Y-123338166D02*
X132355166Y-123422833D01*
X132355166Y-123592166D01*
X132312833Y-123676833D01*
X132270500Y-123719166D01*
X132185833Y-123761500D01*
X131931833Y-123761500D01*
X131847166Y-123719166D01*
X131804833Y-123676833D01*
X131762500Y-123592166D01*
X131762500Y-123422833D01*
X131804833Y-123338166D01*
X132355166Y-122914833D02*
X131466166Y-122914833D01*
X131804833Y-122914833D02*
X131762500Y-122830166D01*
X131762500Y-122660833D01*
X131804833Y-122576166D01*
X131847166Y-122533833D01*
X131931833Y-122491500D01*
X132185833Y-122491500D01*
X132270500Y-122533833D01*
X132312833Y-122576166D01*
X132355166Y-122660833D01*
X132355166Y-122830166D01*
X132312833Y-122914833D01*
X132016500Y-122110500D02*
X132016500Y-121433166D01*
X132312833Y-120671166D02*
X132355166Y-120755833D01*
X132355166Y-120925166D01*
X132312833Y-121009833D01*
X132228166Y-121052166D01*
X131889500Y-121052166D01*
X131804833Y-121009833D01*
X131762500Y-120925166D01*
X131762500Y-120755833D01*
X131804833Y-120671166D01*
X131889500Y-120628833D01*
X131974166Y-120628833D01*
X132058833Y-121052166D01*
X132355166Y-120120833D02*
X132312833Y-120205500D01*
X132228166Y-120247833D01*
X131466166Y-120247833D01*
X132312833Y-119443500D02*
X132355166Y-119528166D01*
X132355166Y-119697500D01*
X132312833Y-119782166D01*
X132228166Y-119824500D01*
X131889500Y-119824500D01*
X131804833Y-119782166D01*
X131762500Y-119697500D01*
X131762500Y-119528166D01*
X131804833Y-119443500D01*
X131889500Y-119401166D01*
X131974166Y-119401166D01*
X132058833Y-119824500D01*
X132312833Y-118639166D02*
X132355166Y-118723833D01*
X132355166Y-118893166D01*
X132312833Y-118977833D01*
X132270500Y-119020166D01*
X132185833Y-119062500D01*
X131931833Y-119062500D01*
X131847166Y-119020166D01*
X131804833Y-118977833D01*
X131762500Y-118893166D01*
X131762500Y-118723833D01*
X131804833Y-118639166D01*
X131762500Y-118385166D02*
X131762500Y-118046500D01*
X131466166Y-118258166D02*
X132228166Y-118258166D01*
X132312833Y-118215833D01*
X132355166Y-118131166D01*
X132355166Y-118046500D01*
X132355166Y-117750166D02*
X131762500Y-117750166D01*
X131931833Y-117750166D02*
X131847166Y-117707833D01*
X131804833Y-117665500D01*
X131762500Y-117580833D01*
X131762500Y-117496166D01*
X132355166Y-117072833D02*
X132312833Y-117157500D01*
X132270500Y-117199833D01*
X132185833Y-117242166D01*
X131931833Y-117242166D01*
X131847166Y-117199833D01*
X131804833Y-117157500D01*
X131762500Y-117072833D01*
X131762500Y-116945833D01*
X131804833Y-116861166D01*
X131847166Y-116818833D01*
X131931833Y-116776500D01*
X132185833Y-116776500D01*
X132270500Y-116818833D01*
X132312833Y-116861166D01*
X132355166Y-116945833D01*
X132355166Y-117072833D01*
X131762500Y-116395500D02*
X132355166Y-116395500D01*
X131847166Y-116395500D02*
X131804833Y-116353166D01*
X131762500Y-116268500D01*
X131762500Y-116141500D01*
X131804833Y-116056833D01*
X131889500Y-116014500D01*
X132355166Y-116014500D01*
X132355166Y-115591166D02*
X131762500Y-115591166D01*
X131466166Y-115591166D02*
X131508500Y-115633500D01*
X131550833Y-115591166D01*
X131508500Y-115548833D01*
X131466166Y-115591166D01*
X131550833Y-115591166D01*
X132312833Y-114786833D02*
X132355166Y-114871500D01*
X132355166Y-115040833D01*
X132312833Y-115125500D01*
X132270500Y-115167833D01*
X132185833Y-115210166D01*
X131931833Y-115210166D01*
X131847166Y-115167833D01*
X131804833Y-115125500D01*
X131762500Y-115040833D01*
X131762500Y-114871500D01*
X131804833Y-114786833D01*
X132312833Y-114448166D02*
X132355166Y-114363500D01*
X132355166Y-114194166D01*
X132312833Y-114109500D01*
X132228166Y-114067166D01*
X132185833Y-114067166D01*
X132101166Y-114109500D01*
X132058833Y-114194166D01*
X132058833Y-114321166D01*
X132016500Y-114405833D01*
X131931833Y-114448166D01*
X131889500Y-114448166D01*
X131804833Y-114405833D01*
X131762500Y-114321166D01*
X131762500Y-114194166D01*
X131804833Y-114109500D01*
X131423833Y-113051166D02*
X132566833Y-113813166D01*
X131466166Y-112754833D02*
X132185833Y-112754833D01*
X132270500Y-112712500D01*
X132312833Y-112670166D01*
X132355166Y-112585500D01*
X132355166Y-112416166D01*
X132312833Y-112331500D01*
X132270500Y-112289166D01*
X132185833Y-112246833D01*
X131466166Y-112246833D01*
X132355166Y-111823500D02*
X131466166Y-111823500D01*
X132101166Y-111527166D01*
X131466166Y-111230833D01*
X132355166Y-111230833D01*
X132355166Y-110807500D02*
X131466166Y-110807500D01*
X131466166Y-110595833D01*
X131508500Y-110468833D01*
X131593166Y-110384166D01*
X131677833Y-110341833D01*
X131847166Y-110299500D01*
X131974166Y-110299500D01*
X132143500Y-110341833D01*
X132228166Y-110384166D01*
X132312833Y-110468833D01*
X132355166Y-110595833D01*
X132355166Y-110807500D01*
X131762500Y-110003166D02*
X132355166Y-109791500D01*
X131762500Y-109579833D01*
X131466166Y-109325833D02*
X131466166Y-108775500D01*
X131804833Y-109071833D01*
X131804833Y-108944833D01*
X131847166Y-108860166D01*
X131889500Y-108817833D01*
X131974166Y-108775500D01*
X132185833Y-108775500D01*
X132270500Y-108817833D01*
X132312833Y-108860166D01*
X132355166Y-108944833D01*
X132355166Y-109198833D01*
X132312833Y-109283500D01*
X132270500Y-109325833D01*
X132016500Y-108394500D02*
X132016500Y-107717166D01*
X132355166Y-107293833D02*
X131466166Y-107293833D01*
X132016500Y-107209166D02*
X132355166Y-106955166D01*
X131762500Y-106955166D02*
X132101166Y-107293833D01*
X132355166Y-106574166D02*
X131762500Y-106574166D01*
X131466166Y-106574166D02*
X131508500Y-106616500D01*
X131550833Y-106574166D01*
X131508500Y-106531833D01*
X131466166Y-106574166D01*
X131550833Y-106574166D01*
X132312833Y-105769833D02*
X132355166Y-105854500D01*
X132355166Y-106023833D01*
X132312833Y-106108500D01*
X132270500Y-106150833D01*
X132185833Y-106193166D01*
X131931833Y-106193166D01*
X131847166Y-106150833D01*
X131804833Y-106108500D01*
X131762500Y-106023833D01*
X131762500Y-105854500D01*
X131804833Y-105769833D01*
X132355166Y-105007833D02*
X131889500Y-105007833D01*
X131804833Y-105050166D01*
X131762500Y-105134833D01*
X131762500Y-105304166D01*
X131804833Y-105388833D01*
X132312833Y-105007833D02*
X132355166Y-105092500D01*
X132355166Y-105304166D01*
X132312833Y-105388833D01*
X132228166Y-105431166D01*
X132143500Y-105431166D01*
X132058833Y-105388833D01*
X132016500Y-105304166D01*
X132016500Y-105092500D01*
X131974166Y-105007833D01*
X132355166Y-104203500D02*
X131466166Y-104203500D01*
X132312833Y-104203500D02*
X132355166Y-104288166D01*
X132355166Y-104457500D01*
X132312833Y-104542166D01*
X132270500Y-104584500D01*
X132185833Y-104626833D01*
X131931833Y-104626833D01*
X131847166Y-104584500D01*
X131804833Y-104542166D01*
X131762500Y-104457500D01*
X131762500Y-104288166D01*
X131804833Y-104203500D01*
D11*
X152802166Y-62378166D02*
X152505833Y-61954833D01*
X152294166Y-62378166D02*
X152294166Y-61489166D01*
X152632833Y-61489166D01*
X152717500Y-61531500D01*
X152759833Y-61573833D01*
X152802166Y-61658500D01*
X152802166Y-61785500D01*
X152759833Y-61870166D01*
X152717500Y-61912500D01*
X152632833Y-61954833D01*
X152294166Y-61954833D01*
X153648833Y-62378166D02*
X153140833Y-62378166D01*
X153394833Y-62378166D02*
X153394833Y-61489166D01*
X153310166Y-61616166D01*
X153225500Y-61700833D01*
X153140833Y-61743166D01*
X154199166Y-61489166D02*
X154283833Y-61489166D01*
X154368500Y-61531500D01*
X154410833Y-61573833D01*
X154453166Y-61658500D01*
X154495500Y-61827833D01*
X154495500Y-62039500D01*
X154453166Y-62208833D01*
X154410833Y-62293500D01*
X154368500Y-62335833D01*
X154283833Y-62378166D01*
X154199166Y-62378166D01*
X154114500Y-62335833D01*
X154072166Y-62293500D01*
X154029833Y-62208833D01*
X153987500Y-62039500D01*
X153987500Y-61827833D01*
X154029833Y-61658500D01*
X154072166Y-61573833D01*
X154114500Y-61531500D01*
X154199166Y-61489166D01*
X155342166Y-62378166D02*
X154834166Y-62378166D01*
X155088166Y-62378166D02*
X155088166Y-61489166D01*
X155003500Y-61616166D01*
X154918833Y-61700833D01*
X154834166Y-61743166D01*
X152802166Y-59457166D02*
X152505833Y-59033833D01*
X152294166Y-59457166D02*
X152294166Y-58568166D01*
X152632833Y-58568166D01*
X152717500Y-58610500D01*
X152759833Y-58652833D01*
X152802166Y-58737500D01*
X152802166Y-58864500D01*
X152759833Y-58949166D01*
X152717500Y-58991500D01*
X152632833Y-59033833D01*
X152294166Y-59033833D01*
X153648833Y-59457166D02*
X153140833Y-59457166D01*
X153394833Y-59457166D02*
X153394833Y-58568166D01*
X153310166Y-58695166D01*
X153225500Y-58779833D01*
X153140833Y-58822166D01*
X154199166Y-58568166D02*
X154283833Y-58568166D01*
X154368500Y-58610500D01*
X154410833Y-58652833D01*
X154453166Y-58737500D01*
X154495500Y-58906833D01*
X154495500Y-59118500D01*
X154453166Y-59287833D01*
X154410833Y-59372500D01*
X154368500Y-59414833D01*
X154283833Y-59457166D01*
X154199166Y-59457166D01*
X154114500Y-59414833D01*
X154072166Y-59372500D01*
X154029833Y-59287833D01*
X153987500Y-59118500D01*
X153987500Y-58906833D01*
X154029833Y-58737500D01*
X154072166Y-58652833D01*
X154114500Y-58610500D01*
X154199166Y-58568166D01*
X154834166Y-58652833D02*
X154876500Y-58610500D01*
X154961166Y-58568166D01*
X155172833Y-58568166D01*
X155257500Y-58610500D01*
X155299833Y-58652833D01*
X155342166Y-58737500D01*
X155342166Y-58822166D01*
X155299833Y-58949166D01*
X154791833Y-59457166D01*
X155342166Y-59457166D01*
X134175500Y-68982166D02*
X134217833Y-69024500D01*
X134260166Y-69151500D01*
X134260166Y-69236166D01*
X134217833Y-69363166D01*
X134133166Y-69447833D01*
X134048500Y-69490166D01*
X133879166Y-69532500D01*
X133752166Y-69532500D01*
X133582833Y-69490166D01*
X133498166Y-69447833D01*
X133413500Y-69363166D01*
X133371166Y-69236166D01*
X133371166Y-69151500D01*
X133413500Y-69024500D01*
X133455833Y-68982166D01*
X133371166Y-68431833D02*
X133371166Y-68262500D01*
X133413500Y-68177833D01*
X133498166Y-68093166D01*
X133667500Y-68050833D01*
X133963833Y-68050833D01*
X134133166Y-68093166D01*
X134217833Y-68177833D01*
X134260166Y-68262500D01*
X134260166Y-68431833D01*
X134217833Y-68516500D01*
X134133166Y-68601166D01*
X133963833Y-68643500D01*
X133667500Y-68643500D01*
X133498166Y-68601166D01*
X133413500Y-68516500D01*
X133371166Y-68431833D01*
X134260166Y-67669833D02*
X133371166Y-67669833D01*
X134260166Y-67161833D01*
X133371166Y-67161833D01*
X134260166Y-66272833D02*
X134260166Y-66780833D01*
X134260166Y-66526833D02*
X133371166Y-66526833D01*
X133498166Y-66611500D01*
X133582833Y-66696166D01*
X133625166Y-66780833D01*
X133371166Y-65722500D02*
X133371166Y-65637833D01*
X133413500Y-65553166D01*
X133455833Y-65510833D01*
X133540500Y-65468500D01*
X133709833Y-65426166D01*
X133921500Y-65426166D01*
X134090833Y-65468500D01*
X134175500Y-65510833D01*
X134217833Y-65553166D01*
X134260166Y-65637833D01*
X134260166Y-65722500D01*
X134217833Y-65807166D01*
X134175500Y-65849500D01*
X134090833Y-65891833D01*
X133921500Y-65934166D01*
X133709833Y-65934166D01*
X133540500Y-65891833D01*
X133455833Y-65849500D01*
X133413500Y-65807166D01*
X133371166Y-65722500D01*
X134260166Y-64579500D02*
X134260166Y-65087500D01*
X134260166Y-64833500D02*
X133371166Y-64833500D01*
X133498166Y-64918166D01*
X133582833Y-65002833D01*
X133625166Y-65087500D01*
G36*
X139008604Y-56550281D02*
G01*
X140818892Y-56552454D01*
X140821135Y-56929149D01*
X140821493Y-57007819D01*
X140821612Y-57080920D01*
X140821505Y-57146709D01*
X140821185Y-57203444D01*
X140820664Y-57249381D01*
X140819955Y-57282779D01*
X140819072Y-57301893D01*
X140818372Y-57305844D01*
X140810184Y-57300468D01*
X140792378Y-57286049D01*
X140768057Y-57265150D01*
X140753820Y-57252531D01*
X140642816Y-57163204D01*
X140519797Y-57082301D01*
X140388653Y-57011901D01*
X140253275Y-56954085D01*
X140117551Y-56910932D01*
X140112577Y-56909645D01*
X140004567Y-56886998D01*
X139888350Y-56871668D01*
X139769179Y-56863928D01*
X139652311Y-56864047D01*
X139542999Y-56872297D01*
X139501536Y-56878101D01*
X139340830Y-56912429D01*
X139187172Y-56961830D01*
X139041382Y-57025557D01*
X138904284Y-57102867D01*
X138776699Y-57193013D01*
X138659449Y-57295250D01*
X138553356Y-57408832D01*
X138459243Y-57533015D01*
X138377930Y-57667053D01*
X138310241Y-57810200D01*
X138256997Y-57961711D01*
X138240705Y-58021396D01*
X138223014Y-58098150D01*
X138210435Y-58169719D01*
X138202482Y-58241106D01*
X138198666Y-58317311D01*
X138198498Y-58403336D01*
X138199423Y-58444463D01*
X138207122Y-58574960D01*
X138223194Y-58694269D01*
X138248741Y-58806811D01*
X138284866Y-58917009D01*
X138332671Y-59029285D01*
X138358357Y-59081800D01*
X138434975Y-59217483D01*
X138521466Y-59340670D01*
X138619824Y-59453795D01*
X138732041Y-59559292D01*
X138785303Y-59603116D01*
X138852596Y-59656420D01*
X137198316Y-59656420D01*
X137198316Y-56548109D01*
X139008604Y-56550281D01*
G37*
D12*
X139008604Y-56550281D02*
X140818892Y-56552454D01*
X140821135Y-56929149D01*
X140821493Y-57007819D01*
X140821612Y-57080920D01*
X140821505Y-57146709D01*
X140821185Y-57203444D01*
X140820664Y-57249381D01*
X140819955Y-57282779D01*
X140819072Y-57301893D01*
X140818372Y-57305844D01*
X140810184Y-57300468D01*
X140792378Y-57286049D01*
X140768057Y-57265150D01*
X140753820Y-57252531D01*
X140642816Y-57163204D01*
X140519797Y-57082301D01*
X140388653Y-57011901D01*
X140253275Y-56954085D01*
X140117551Y-56910932D01*
X140112577Y-56909645D01*
X140004567Y-56886998D01*
X139888350Y-56871668D01*
X139769179Y-56863928D01*
X139652311Y-56864047D01*
X139542999Y-56872297D01*
X139501536Y-56878101D01*
X139340830Y-56912429D01*
X139187172Y-56961830D01*
X139041382Y-57025557D01*
X138904284Y-57102867D01*
X138776699Y-57193013D01*
X138659449Y-57295250D01*
X138553356Y-57408832D01*
X138459243Y-57533015D01*
X138377930Y-57667053D01*
X138310241Y-57810200D01*
X138256997Y-57961711D01*
X138240705Y-58021396D01*
X138223014Y-58098150D01*
X138210435Y-58169719D01*
X138202482Y-58241106D01*
X138198666Y-58317311D01*
X138198498Y-58403336D01*
X138199423Y-58444463D01*
X138207122Y-58574960D01*
X138223194Y-58694269D01*
X138248741Y-58806811D01*
X138284866Y-58917009D01*
X138332671Y-59029285D01*
X138358357Y-59081800D01*
X138434975Y-59217483D01*
X138521466Y-59340670D01*
X138619824Y-59453795D01*
X138732041Y-59559292D01*
X138785303Y-59603116D01*
X138852596Y-59656420D01*
X137198316Y-59656420D01*
X137198316Y-56548109D01*
X139008604Y-56550281D01*
G36*
X141735875Y-57498522D02*
G01*
X141735900Y-57655335D01*
X141735997Y-57795992D01*
X141736197Y-57921561D01*
X141736531Y-58033106D01*
X141737030Y-58131693D01*
X141737726Y-58218387D01*
X141738650Y-58294254D01*
X141739834Y-58360359D01*
X141741309Y-58417769D01*
X141743105Y-58467548D01*
X141745255Y-58510762D01*
X141747790Y-58548477D01*
X141750740Y-58581758D01*
X141754138Y-58611671D01*
X141758015Y-58639281D01*
X141762401Y-58665654D01*
X141767329Y-58691855D01*
X141771562Y-58712826D01*
X141803471Y-58835923D01*
X141848172Y-58961231D01*
X141903662Y-59084521D01*
X141967937Y-59201563D01*
X142038994Y-59308126D01*
X142076016Y-59355642D01*
X142111559Y-59396247D01*
X142155659Y-59442828D01*
X142203855Y-59490971D01*
X142251685Y-59536263D01*
X142294690Y-59574291D01*
X142308451Y-59585610D01*
X142337011Y-59608600D01*
X142361471Y-59628523D01*
X142377914Y-59642180D01*
X142381330Y-59645137D01*
X142380951Y-59646990D01*
X142374858Y-59648637D01*
X142362183Y-59650090D01*
X142342057Y-59651360D01*
X142313614Y-59652457D01*
X142275984Y-59653393D01*
X142228301Y-59654180D01*
X142169696Y-59654827D01*
X142099302Y-59655347D01*
X142016251Y-59655750D01*
X141919675Y-59656047D01*
X141808706Y-59656251D01*
X141682476Y-59656370D01*
X141540118Y-59656418D01*
X141500652Y-59656420D01*
X140607366Y-59656420D01*
X140693040Y-59587507D01*
X140812645Y-59480354D01*
X140920136Y-59361442D01*
X141014668Y-59232030D01*
X141095395Y-59093382D01*
X141161473Y-58946758D01*
X141202373Y-58827418D01*
X141210378Y-58800763D01*
X141217558Y-58776845D01*
X141223963Y-58754633D01*
X141229640Y-58733100D01*
X141234639Y-58711216D01*
X141239008Y-58687953D01*
X141242797Y-58662281D01*
X141246055Y-58633172D01*
X141248830Y-58599596D01*
X141251172Y-58560526D01*
X141253128Y-58514931D01*
X141254749Y-58461784D01*
X141256082Y-58400054D01*
X141257177Y-58328714D01*
X141258083Y-58246735D01*
X141258849Y-58153087D01*
X141259523Y-58046742D01*
X141260154Y-57926670D01*
X141260792Y-57791844D01*
X141261484Y-57641233D01*
X141261784Y-57577064D01*
X141266621Y-56552454D01*
X141735875Y-56547872D01*
X141735875Y-57498522D01*
G37*
X141735875Y-57498522D02*
X141735900Y-57655335D01*
X141735997Y-57795992D01*
X141736197Y-57921561D01*
X141736531Y-58033106D01*
X141737030Y-58131693D01*
X141737726Y-58218387D01*
X141738650Y-58294254D01*
X141739834Y-58360359D01*
X141741309Y-58417769D01*
X141743105Y-58467548D01*
X141745255Y-58510762D01*
X141747790Y-58548477D01*
X141750740Y-58581758D01*
X141754138Y-58611671D01*
X141758015Y-58639281D01*
X141762401Y-58665654D01*
X141767329Y-58691855D01*
X141771562Y-58712826D01*
X141803471Y-58835923D01*
X141848172Y-58961231D01*
X141903662Y-59084521D01*
X141967937Y-59201563D01*
X142038994Y-59308126D01*
X142076016Y-59355642D01*
X142111559Y-59396247D01*
X142155659Y-59442828D01*
X142203855Y-59490971D01*
X142251685Y-59536263D01*
X142294690Y-59574291D01*
X142308451Y-59585610D01*
X142337011Y-59608600D01*
X142361471Y-59628523D01*
X142377914Y-59642180D01*
X142381330Y-59645137D01*
X142380951Y-59646990D01*
X142374858Y-59648637D01*
X142362183Y-59650090D01*
X142342057Y-59651360D01*
X142313614Y-59652457D01*
X142275984Y-59653393D01*
X142228301Y-59654180D01*
X142169696Y-59654827D01*
X142099302Y-59655347D01*
X142016251Y-59655750D01*
X141919675Y-59656047D01*
X141808706Y-59656251D01*
X141682476Y-59656370D01*
X141540118Y-59656418D01*
X141500652Y-59656420D01*
X140607366Y-59656420D01*
X140693040Y-59587507D01*
X140812645Y-59480354D01*
X140920136Y-59361442D01*
X141014668Y-59232030D01*
X141095395Y-59093382D01*
X141161473Y-58946758D01*
X141202373Y-58827418D01*
X141210378Y-58800763D01*
X141217558Y-58776845D01*
X141223963Y-58754633D01*
X141229640Y-58733100D01*
X141234639Y-58711216D01*
X141239008Y-58687953D01*
X141242797Y-58662281D01*
X141246055Y-58633172D01*
X141248830Y-58599596D01*
X141251172Y-58560526D01*
X141253128Y-58514931D01*
X141254749Y-58461784D01*
X141256082Y-58400054D01*
X141257177Y-58328714D01*
X141258083Y-58246735D01*
X141258849Y-58153087D01*
X141259523Y-58046742D01*
X141260154Y-57926670D01*
X141260792Y-57791844D01*
X141261484Y-57641233D01*
X141261784Y-57577064D01*
X141266621Y-56552454D01*
X141735875Y-56547872D01*
X141735875Y-57498522D01*
G36*
X144752876Y-58838384D02*
G01*
X144754080Y-58862221D01*
X144755171Y-58899954D01*
X144756125Y-58949920D01*
X144756916Y-59010457D01*
X144757516Y-59079901D01*
X144757901Y-59156591D01*
X144758044Y-59238865D01*
X144758044Y-59656420D01*
X144456688Y-59656420D01*
X144386589Y-59656340D01*
X144322265Y-59656112D01*
X144265665Y-59655756D01*
X144218737Y-59655290D01*
X144183429Y-59654732D01*
X144161691Y-59654103D01*
X144155332Y-59653508D01*
X144161691Y-59647368D01*
X144178856Y-59633098D01*
X144203963Y-59613037D01*
X144225103Y-59596514D01*
X144329647Y-59506347D01*
X144427599Y-59403864D01*
X144516937Y-59291888D01*
X144595638Y-59173241D01*
X144661677Y-59050747D01*
X144713031Y-58927228D01*
X144720448Y-58905443D01*
X144731907Y-58872552D01*
X144742067Y-58846924D01*
X144749413Y-58832218D01*
X144751587Y-58830104D01*
X144752876Y-58838384D01*
G37*
X144752876Y-58838384D02*
X144754080Y-58862221D01*
X144755171Y-58899954D01*
X144756125Y-58949920D01*
X144756916Y-59010457D01*
X144757516Y-59079901D01*
X144757901Y-59156591D01*
X144758044Y-59238865D01*
X144758044Y-59656420D01*
X144456688Y-59656420D01*
X144386589Y-59656340D01*
X144322265Y-59656112D01*
X144265665Y-59655756D01*
X144218737Y-59655290D01*
X144183429Y-59654732D01*
X144161691Y-59654103D01*
X144155332Y-59653508D01*
X144161691Y-59647368D01*
X144178856Y-59633098D01*
X144203963Y-59613037D01*
X144225103Y-59596514D01*
X144329647Y-59506347D01*
X144427599Y-59403864D01*
X144516937Y-59291888D01*
X144595638Y-59173241D01*
X144661677Y-59050747D01*
X144713031Y-58927228D01*
X144720448Y-58905443D01*
X144731907Y-58872552D01*
X144742067Y-58846924D01*
X144749413Y-58832218D01*
X144751587Y-58830104D01*
X144752876Y-58838384D01*
G36*
X139848005Y-57311256D02*
G01*
X139975195Y-57332757D01*
X140097746Y-57368708D01*
X140214568Y-57418418D01*
X140324569Y-57481195D01*
X140426660Y-57556348D01*
X140519748Y-57643184D01*
X140602744Y-57741011D01*
X140674555Y-57849138D01*
X140734092Y-57966873D01*
X140780264Y-58093524D01*
X140806945Y-58201302D01*
X140813038Y-58245730D01*
X140816834Y-58302435D01*
X140818385Y-58366634D01*
X140817743Y-58433543D01*
X140814961Y-58498380D01*
X140810091Y-58556363D01*
X140803186Y-58602708D01*
X140802502Y-58605980D01*
X140764623Y-58741860D01*
X140711053Y-58871475D01*
X140642465Y-58993237D01*
X140630970Y-59010657D01*
X140595739Y-59057487D01*
X140550236Y-59109864D01*
X140498453Y-59163809D01*
X140444383Y-59215339D01*
X140392017Y-59260474D01*
X140346134Y-59294708D01*
X140228889Y-59363112D01*
X140104946Y-59416684D01*
X139976164Y-59455005D01*
X139844401Y-59477655D01*
X139711514Y-59484216D01*
X139579362Y-59474267D01*
X139561807Y-59471657D01*
X139467558Y-59452917D01*
X139379193Y-59426564D01*
X139289589Y-59390320D01*
X139251841Y-59372561D01*
X139134338Y-59306309D01*
X139028456Y-59228395D01*
X138934520Y-59140101D01*
X138852854Y-59042710D01*
X138783785Y-58937507D01*
X138727637Y-58825774D01*
X138684735Y-58708794D01*
X138655405Y-58587852D01*
X138639971Y-58464230D01*
X138638758Y-58339211D01*
X138652093Y-58214079D01*
X138680298Y-58090118D01*
X138723701Y-57968610D01*
X138782626Y-57850838D01*
X138842810Y-57757878D01*
X138923874Y-57659151D01*
X139017429Y-57569557D01*
X139121053Y-57490762D01*
X139232325Y-57424431D01*
X139348825Y-57372230D01*
X139449511Y-57340378D01*
X139584072Y-57314375D01*
X139717267Y-57304898D01*
X139848005Y-57311256D01*
G37*
X139848005Y-57311256D02*
X139975195Y-57332757D01*
X140097746Y-57368708D01*
X140214568Y-57418418D01*
X140324569Y-57481195D01*
X140426660Y-57556348D01*
X140519748Y-57643184D01*
X140602744Y-57741011D01*
X140674555Y-57849138D01*
X140734092Y-57966873D01*
X140780264Y-58093524D01*
X140806945Y-58201302D01*
X140813038Y-58245730D01*
X140816834Y-58302435D01*
X140818385Y-58366634D01*
X140817743Y-58433543D01*
X140814961Y-58498380D01*
X140810091Y-58556363D01*
X140803186Y-58602708D01*
X140802502Y-58605980D01*
X140764623Y-58741860D01*
X140711053Y-58871475D01*
X140642465Y-58993237D01*
X140630970Y-59010657D01*
X140595739Y-59057487D01*
X140550236Y-59109864D01*
X140498453Y-59163809D01*
X140444383Y-59215339D01*
X140392017Y-59260474D01*
X140346134Y-59294708D01*
X140228889Y-59363112D01*
X140104946Y-59416684D01*
X139976164Y-59455005D01*
X139844401Y-59477655D01*
X139711514Y-59484216D01*
X139579362Y-59474267D01*
X139561807Y-59471657D01*
X139467558Y-59452917D01*
X139379193Y-59426564D01*
X139289589Y-59390320D01*
X139251841Y-59372561D01*
X139134338Y-59306309D01*
X139028456Y-59228395D01*
X138934520Y-59140101D01*
X138852854Y-59042710D01*
X138783785Y-58937507D01*
X138727637Y-58825774D01*
X138684735Y-58708794D01*
X138655405Y-58587852D01*
X138639971Y-58464230D01*
X138638758Y-58339211D01*
X138652093Y-58214079D01*
X138680298Y-58090118D01*
X138723701Y-57968610D01*
X138782626Y-57850838D01*
X138842810Y-57757878D01*
X138923874Y-57659151D01*
X139017429Y-57569557D01*
X139121053Y-57490762D01*
X139232325Y-57424431D01*
X139348825Y-57372230D01*
X139449511Y-57340378D01*
X139584072Y-57314375D01*
X139717267Y-57304898D01*
X139848005Y-57311256D01*
G36*
X143333710Y-57311101D02*
G01*
X143381179Y-57312143D01*
X143418964Y-57314201D01*
X143450828Y-57317589D01*
X143480539Y-57322618D01*
X143511861Y-57329603D01*
X143518180Y-57331146D01*
X143601519Y-57354158D01*
X143675828Y-57380587D01*
X143749296Y-57413527D01*
X143786855Y-57432658D01*
X143901270Y-57502357D01*
X144005159Y-57584994D01*
X144097647Y-57679245D01*
X144177858Y-57783783D01*
X144244916Y-57897284D01*
X144297945Y-58018423D01*
X144336068Y-58145875D01*
X144358411Y-58278315D01*
X144360499Y-58300318D01*
X144363658Y-58436162D01*
X144350416Y-58569369D01*
X144321402Y-58698626D01*
X144277245Y-58822620D01*
X144218572Y-58940039D01*
X144146014Y-59049568D01*
X144060198Y-59149896D01*
X143961753Y-59239708D01*
X143883325Y-59297178D01*
X143775306Y-59361809D01*
X143666198Y-59411800D01*
X143550994Y-59449280D01*
X143492349Y-59463390D01*
X143461907Y-59468262D01*
X143419791Y-59472698D01*
X143370167Y-59476500D01*
X143317196Y-59479471D01*
X143265042Y-59481412D01*
X143217869Y-59482127D01*
X143179839Y-59481417D01*
X143156553Y-59479343D01*
X143137177Y-59476150D01*
X143107364Y-59471322D01*
X143074756Y-59466094D01*
X142965566Y-59440986D01*
X142855008Y-59401079D01*
X142746468Y-59348123D01*
X142643334Y-59283869D01*
X142548992Y-59210070D01*
X142510348Y-59174251D01*
X142418524Y-59072871D01*
X142341394Y-58962884D01*
X142278641Y-58843726D01*
X142229949Y-58714836D01*
X142209250Y-58640420D01*
X142199000Y-58586239D01*
X142191310Y-58520412D01*
X142186417Y-58448360D01*
X142184564Y-58375501D01*
X142185988Y-58307253D01*
X142190931Y-58249036D01*
X142191677Y-58243632D01*
X142219610Y-58107905D01*
X142263009Y-57979491D01*
X142321632Y-57858883D01*
X142395240Y-57746570D01*
X142483594Y-57643042D01*
X142486985Y-57639549D01*
X142585458Y-57548703D01*
X142689615Y-57473002D01*
X142801583Y-57411223D01*
X142923486Y-57362142D01*
X143016837Y-57334433D01*
X143050940Y-57325929D01*
X143080229Y-57319722D01*
X143108516Y-57315457D01*
X143139611Y-57312784D01*
X143177326Y-57311350D01*
X143225472Y-57310802D01*
X143272790Y-57310764D01*
X143333710Y-57311101D01*
G37*
X143333710Y-57311101D02*
X143381179Y-57312143D01*
X143418964Y-57314201D01*
X143450828Y-57317589D01*
X143480539Y-57322618D01*
X143511861Y-57329603D01*
X143518180Y-57331146D01*
X143601519Y-57354158D01*
X143675828Y-57380587D01*
X143749296Y-57413527D01*
X143786855Y-57432658D01*
X143901270Y-57502357D01*
X144005159Y-57584994D01*
X144097647Y-57679245D01*
X144177858Y-57783783D01*
X144244916Y-57897284D01*
X144297945Y-58018423D01*
X144336068Y-58145875D01*
X144358411Y-58278315D01*
X144360499Y-58300318D01*
X144363658Y-58436162D01*
X144350416Y-58569369D01*
X144321402Y-58698626D01*
X144277245Y-58822620D01*
X144218572Y-58940039D01*
X144146014Y-59049568D01*
X144060198Y-59149896D01*
X143961753Y-59239708D01*
X143883325Y-59297178D01*
X143775306Y-59361809D01*
X143666198Y-59411800D01*
X143550994Y-59449280D01*
X143492349Y-59463390D01*
X143461907Y-59468262D01*
X143419791Y-59472698D01*
X143370167Y-59476500D01*
X143317196Y-59479471D01*
X143265042Y-59481412D01*
X143217869Y-59482127D01*
X143179839Y-59481417D01*
X143156553Y-59479343D01*
X143137177Y-59476150D01*
X143107364Y-59471322D01*
X143074756Y-59466094D01*
X142965566Y-59440986D01*
X142855008Y-59401079D01*
X142746468Y-59348123D01*
X142643334Y-59283869D01*
X142548992Y-59210070D01*
X142510348Y-59174251D01*
X142418524Y-59072871D01*
X142341394Y-58962884D01*
X142278641Y-58843726D01*
X142229949Y-58714836D01*
X142209250Y-58640420D01*
X142199000Y-58586239D01*
X142191310Y-58520412D01*
X142186417Y-58448360D01*
X142184564Y-58375501D01*
X142185988Y-58307253D01*
X142190931Y-58249036D01*
X142191677Y-58243632D01*
X142219610Y-58107905D01*
X142263009Y-57979491D01*
X142321632Y-57858883D01*
X142395240Y-57746570D01*
X142483594Y-57643042D01*
X142486985Y-57639549D01*
X142585458Y-57548703D01*
X142689615Y-57473002D01*
X142801583Y-57411223D01*
X142923486Y-57362142D01*
X143016837Y-57334433D01*
X143050940Y-57325929D01*
X143080229Y-57319722D01*
X143108516Y-57315457D01*
X143139611Y-57312784D01*
X143177326Y-57311350D01*
X143225472Y-57310802D01*
X143272790Y-57310764D01*
X143333710Y-57311101D01*
G36*
X144758044Y-57254183D02*
G01*
X144757990Y-57362780D01*
X144757832Y-57466277D01*
X144757579Y-57563401D01*
X144757240Y-57652880D01*
X144756821Y-57733440D01*
X144756333Y-57803809D01*
X144755782Y-57862712D01*
X144755177Y-57908879D01*
X144754527Y-57941034D01*
X144753840Y-57957906D01*
X144753469Y-57960217D01*
X144746878Y-57953516D01*
X144745110Y-57949454D01*
X144724731Y-57892036D01*
X144708393Y-57847432D01*
X144694728Y-57812106D01*
X144682367Y-57782523D01*
X144669941Y-57755149D01*
X144669684Y-57754603D01*
X144595453Y-57615241D01*
X144508526Y-57484511D01*
X144410496Y-57364513D01*
X144302959Y-57257346D01*
X144271570Y-57230100D01*
X144141630Y-57130996D01*
X144005991Y-57047738D01*
X143863841Y-56979995D01*
X143714371Y-56927435D01*
X143556771Y-56889726D01*
X143390233Y-56866535D01*
X143383662Y-56865930D01*
X143241241Y-56861235D01*
X143095267Y-56871928D01*
X142948347Y-56897320D01*
X142803090Y-56936719D01*
X142662105Y-56989435D01*
X142528000Y-57054777D01*
X142418818Y-57121451D01*
X142379432Y-57149178D01*
X142336773Y-57180980D01*
X142294735Y-57213787D01*
X142257210Y-57244526D01*
X142228092Y-57270124D01*
X142218044Y-57279889D01*
X142209871Y-57288409D01*
X142203103Y-57294712D01*
X142197607Y-57297447D01*
X142193252Y-57295264D01*
X142189906Y-57286811D01*
X142187435Y-57270737D01*
X142185708Y-57245692D01*
X142184593Y-57210326D01*
X142183957Y-57163285D01*
X142183668Y-57103221D01*
X142183595Y-57028783D01*
X142183603Y-56938618D01*
X142183604Y-56928051D01*
X142183604Y-56548149D01*
X144758044Y-56548149D01*
X144758044Y-57254183D01*
G37*
X144758044Y-57254183D02*
X144757990Y-57362780D01*
X144757832Y-57466277D01*
X144757579Y-57563401D01*
X144757240Y-57652880D01*
X144756821Y-57733440D01*
X144756333Y-57803809D01*
X144755782Y-57862712D01*
X144755177Y-57908879D01*
X144754527Y-57941034D01*
X144753840Y-57957906D01*
X144753469Y-57960217D01*
X144746878Y-57953516D01*
X144745110Y-57949454D01*
X144724731Y-57892036D01*
X144708393Y-57847432D01*
X144694728Y-57812106D01*
X144682367Y-57782523D01*
X144669941Y-57755149D01*
X144669684Y-57754603D01*
X144595453Y-57615241D01*
X144508526Y-57484511D01*
X144410496Y-57364513D01*
X144302959Y-57257346D01*
X144271570Y-57230100D01*
X144141630Y-57130996D01*
X144005991Y-57047738D01*
X143863841Y-56979995D01*
X143714371Y-56927435D01*
X143556771Y-56889726D01*
X143390233Y-56866535D01*
X143383662Y-56865930D01*
X143241241Y-56861235D01*
X143095267Y-56871928D01*
X142948347Y-56897320D01*
X142803090Y-56936719D01*
X142662105Y-56989435D01*
X142528000Y-57054777D01*
X142418818Y-57121451D01*
X142379432Y-57149178D01*
X142336773Y-57180980D01*
X142294735Y-57213787D01*
X142257210Y-57244526D01*
X142228092Y-57270124D01*
X142218044Y-57279889D01*
X142209871Y-57288409D01*
X142203103Y-57294712D01*
X142197607Y-57297447D01*
X142193252Y-57295264D01*
X142189906Y-57286811D01*
X142187435Y-57270737D01*
X142185708Y-57245692D01*
X142184593Y-57210326D01*
X142183957Y-57163285D01*
X142183668Y-57103221D01*
X142183595Y-57028783D01*
X142183603Y-56938618D01*
X142183604Y-56928051D01*
X142183604Y-56548149D01*
X144758044Y-56548149D01*
X144758044Y-57254183D01*
D13*
X149225000Y-149225000D02*
X149225000Y-61595000D01*
X140335000Y-149225000D02*
X149225000Y-149225000D01*
X140335000Y-61595000D02*
X149225000Y-61595000D01*
X140335000Y-61595000D02*
X140335000Y-149225000D01*
X153670000Y-62992000D02*
X153670000Y-63754000D01*
X153670000Y-60071000D02*
X153670000Y-60833000D01*
X134620000Y-67310000D02*
X137160000Y-67310000D01*
X134620000Y-146050000D02*
X137160000Y-146050000D01*
X154940000Y-146050000D02*
X154940000Y-64770000D01*
X152400000Y-146050000D02*
X154940000Y-146050000D01*
X137160000Y-64770000D02*
X134620000Y-64770000D01*
X154940000Y-64770000D02*
X152400000Y-64770000D01*
X152400000Y-64770000D02*
X152400000Y-146050000D01*
X137160000Y-146050000D02*
X137160000Y-64770000D01*
X152400000Y-67310000D02*
X154940000Y-67310000D01*
X134620000Y-64770000D02*
X134620000Y-146050000D01*
M02*
