G04 #@! TF.GenerationSoftware,KiCad,Pcbnew,(6.0.5)*
G04 #@! TF.CreationDate,2022-08-23T14:59:47-04:00*
G04 #@! TF.ProjectId,genesis-umd,67656e65-7369-4732-9d75-6d642e6b6963,2.2*
G04 #@! TF.SameCoordinates,Original*
G04 #@! TF.FileFunction,Soldermask,Bot*
G04 #@! TF.FilePolarity,Negative*
%FSLAX46Y46*%
G04 Gerber Fmt 4.6, Leading zero omitted, Abs format (unit mm)*
G04 Created by KiCad (PCBNEW (6.0.5)) date 2022-08-23 14:59:47*
%MOMM*%
%LPD*%
G01*
G04 APERTURE LIST*
G04 Aperture macros list*
%AMRoundRect*
0 Rectangle with rounded corners*
0 $1 Rounding radius*
0 $2 $3 $4 $5 $6 $7 $8 $9 X,Y pos of 4 corners*
0 Add a 4 corners polygon primitive as box body*
4,1,4,$2,$3,$4,$5,$6,$7,$8,$9,$2,$3,0*
0 Add four circle primitives for the rounded corners*
1,1,$1+$1,$2,$3*
1,1,$1+$1,$4,$5*
1,1,$1+$1,$6,$7*
1,1,$1+$1,$8,$9*
0 Add four rect primitives between the rounded corners*
20,1,$1+$1,$2,$3,$4,$5,0*
20,1,$1+$1,$4,$5,$6,$7,0*
20,1,$1+$1,$6,$7,$8,$9,0*
20,1,$1+$1,$8,$9,$2,$3,0*%
G04 Aperture macros list end*
%ADD10C,1.727200*%
%ADD11RoundRect,0.101600X0.500000X-0.400000X0.500000X0.400000X-0.500000X0.400000X-0.500000X-0.400000X0*%
%ADD12RoundRect,0.100000X-1.000000X-0.150000X1.000000X-0.150000X1.000000X0.150000X-1.000000X0.150000X0*%
G04 APERTURE END LIST*
D10*
X147320000Y-66040000D03*
X147320000Y-68580000D03*
X147320000Y-71120000D03*
X147320000Y-73660000D03*
X147320000Y-76200000D03*
X147320000Y-78740000D03*
X147320000Y-81280000D03*
X147320000Y-83820000D03*
X147320000Y-86360000D03*
X147320000Y-88900000D03*
X147320000Y-91440000D03*
X147320000Y-93980000D03*
X147320000Y-96520000D03*
X147320000Y-99060000D03*
X147320000Y-101600000D03*
X147320000Y-104140000D03*
X147320000Y-106680000D03*
X147320000Y-109220000D03*
X147320000Y-111760000D03*
X147320000Y-114300000D03*
X147320000Y-116840000D03*
X147320000Y-119380000D03*
X147320000Y-121920000D03*
X147320000Y-124460000D03*
X147320000Y-127000000D03*
X147320000Y-129540000D03*
X147320000Y-132080000D03*
X147320000Y-134620000D03*
X147320000Y-137160000D03*
X147320000Y-139700000D03*
X147320000Y-142240000D03*
X147320000Y-144780000D03*
X142240000Y-66040000D03*
X142240000Y-68580000D03*
X142240000Y-71120000D03*
X142240000Y-73660000D03*
X142240000Y-76200000D03*
X142240000Y-78740000D03*
X142240000Y-81280000D03*
X142240000Y-83820000D03*
X142240000Y-86360000D03*
X142240000Y-88900000D03*
X142240000Y-91440000D03*
X142240000Y-93980000D03*
X142240000Y-96520000D03*
X142240000Y-99060000D03*
X142240000Y-101600000D03*
X142240000Y-104140000D03*
X142240000Y-106680000D03*
X142240000Y-109220000D03*
X142240000Y-111760000D03*
X142240000Y-114300000D03*
X142240000Y-116840000D03*
X142240000Y-119380000D03*
X142240000Y-121920000D03*
X142240000Y-124460000D03*
X142240000Y-127000000D03*
X142240000Y-129540000D03*
X142240000Y-132080000D03*
X142240000Y-134620000D03*
X142240000Y-137160000D03*
X142240000Y-139700000D03*
X142240000Y-142240000D03*
X142240000Y-144780000D03*
X135890000Y-66040000D03*
X135890000Y-68580000D03*
X135890000Y-71120000D03*
X135890000Y-73660000D03*
X135890000Y-76200000D03*
X135890000Y-78740000D03*
X135890000Y-81280000D03*
X135890000Y-83820000D03*
X135890000Y-86360000D03*
X135890000Y-88900000D03*
X135890000Y-91440000D03*
X135890000Y-93980000D03*
X135890000Y-96520000D03*
X135890000Y-99060000D03*
X135890000Y-101600000D03*
X135890000Y-104140000D03*
X135890000Y-106680000D03*
X135890000Y-109220000D03*
X135890000Y-111760000D03*
X135890000Y-114300000D03*
X135890000Y-116840000D03*
X135890000Y-119380000D03*
X135890000Y-121920000D03*
X135890000Y-124460000D03*
X135890000Y-127000000D03*
X135890000Y-129540000D03*
X135890000Y-132080000D03*
X135890000Y-134620000D03*
X135890000Y-137160000D03*
X135890000Y-139700000D03*
X135890000Y-142240000D03*
X135890000Y-144780000D03*
X153670000Y-144780000D03*
X153670000Y-142240000D03*
X153670000Y-139700000D03*
X153670000Y-137160000D03*
X153670000Y-134620000D03*
X153670000Y-132080000D03*
X153670000Y-129540000D03*
X153670000Y-127000000D03*
X153670000Y-124460000D03*
X153670000Y-121920000D03*
X153670000Y-119380000D03*
X153670000Y-116840000D03*
X153670000Y-114300000D03*
X153670000Y-111760000D03*
X153670000Y-109220000D03*
X153670000Y-106680000D03*
X153670000Y-104140000D03*
X153670000Y-101600000D03*
X153670000Y-99060000D03*
X153670000Y-96520000D03*
X153670000Y-93980000D03*
X153670000Y-91440000D03*
X153670000Y-88900000D03*
X153670000Y-86360000D03*
X153670000Y-83820000D03*
X153670000Y-81280000D03*
X153670000Y-78740000D03*
X153670000Y-76200000D03*
X153670000Y-73660000D03*
X153670000Y-71120000D03*
X153670000Y-68580000D03*
X153670000Y-66040000D03*
D11*
X146685000Y-62849800D03*
X146685000Y-60949800D03*
D12*
X135890000Y-62865000D03*
X135890000Y-62215000D03*
X135890000Y-61565000D03*
X135890000Y-60915000D03*
X135890000Y-60265000D03*
X135890000Y-59615000D03*
X135890000Y-58965000D03*
X135890000Y-58315000D03*
X135890000Y-57665000D03*
X135890000Y-57015000D03*
X143690000Y-57015000D03*
X143690000Y-57665000D03*
X143690000Y-58315000D03*
X143690000Y-58965000D03*
X143690000Y-59615000D03*
X143690000Y-60265000D03*
X143690000Y-60915000D03*
X143690000Y-61565000D03*
X143690000Y-62215000D03*
X143690000Y-62865000D03*
G36*
X136952380Y-62442480D02*
G01*
X136951919Y-62443894D01*
X136912598Y-62490945D01*
X136903967Y-62559661D01*
X136933931Y-62622291D01*
X136942594Y-62629798D01*
X136943248Y-62631688D01*
X136941938Y-62633199D01*
X136940173Y-62632972D01*
X136927489Y-62624497D01*
X136889801Y-62617000D01*
X134890199Y-62617000D01*
X134852511Y-62624497D01*
X134830727Y-62639052D01*
X134828731Y-62639183D01*
X134827620Y-62637520D01*
X134828081Y-62636106D01*
X134867402Y-62589055D01*
X134876033Y-62520339D01*
X134846069Y-62457709D01*
X134837406Y-62450202D01*
X134836752Y-62448312D01*
X134838062Y-62446801D01*
X134839827Y-62447028D01*
X134852511Y-62455503D01*
X134890199Y-62463000D01*
X136889801Y-62463000D01*
X136927489Y-62455503D01*
X136949273Y-62440948D01*
X136951269Y-62440817D01*
X136952380Y-62442480D01*
G37*
G36*
X144752380Y-62442480D02*
G01*
X144751919Y-62443894D01*
X144712598Y-62490945D01*
X144703967Y-62559661D01*
X144733931Y-62622291D01*
X144742594Y-62629798D01*
X144743248Y-62631688D01*
X144741938Y-62633199D01*
X144740173Y-62632972D01*
X144727489Y-62624497D01*
X144689801Y-62617000D01*
X142690199Y-62617000D01*
X142652511Y-62624497D01*
X142630727Y-62639052D01*
X142628731Y-62639183D01*
X142627620Y-62637520D01*
X142628081Y-62636106D01*
X142667402Y-62589055D01*
X142676033Y-62520339D01*
X142646069Y-62457709D01*
X142637406Y-62450202D01*
X142636752Y-62448312D01*
X142638062Y-62446801D01*
X142639827Y-62447028D01*
X142652511Y-62455503D01*
X142690199Y-62463000D01*
X144689801Y-62463000D01*
X144727489Y-62455503D01*
X144749273Y-62440948D01*
X144751269Y-62440817D01*
X144752380Y-62442480D01*
G37*
G36*
X144752380Y-61792480D02*
G01*
X144751919Y-61793894D01*
X144712598Y-61840945D01*
X144703967Y-61909661D01*
X144733931Y-61972291D01*
X144742594Y-61979798D01*
X144743248Y-61981688D01*
X144741938Y-61983199D01*
X144740173Y-61982972D01*
X144727489Y-61974497D01*
X144689801Y-61967000D01*
X142690199Y-61967000D01*
X142652511Y-61974497D01*
X142630727Y-61989052D01*
X142628731Y-61989183D01*
X142627620Y-61987520D01*
X142628081Y-61986106D01*
X142667402Y-61939055D01*
X142676033Y-61870339D01*
X142646069Y-61807709D01*
X142637406Y-61800202D01*
X142636752Y-61798312D01*
X142638062Y-61796801D01*
X142639827Y-61797028D01*
X142652511Y-61805503D01*
X142690199Y-61813000D01*
X144689801Y-61813000D01*
X144727489Y-61805503D01*
X144749273Y-61790948D01*
X144751269Y-61790817D01*
X144752380Y-61792480D01*
G37*
G36*
X136952380Y-61792480D02*
G01*
X136951919Y-61793894D01*
X136912598Y-61840945D01*
X136903967Y-61909661D01*
X136933931Y-61972291D01*
X136942594Y-61979798D01*
X136943248Y-61981688D01*
X136941938Y-61983199D01*
X136940173Y-61982972D01*
X136927489Y-61974497D01*
X136889801Y-61967000D01*
X134890199Y-61967000D01*
X134852511Y-61974497D01*
X134830727Y-61989052D01*
X134828731Y-61989183D01*
X134827620Y-61987520D01*
X134828081Y-61986106D01*
X134867402Y-61939055D01*
X134876033Y-61870339D01*
X134846069Y-61807709D01*
X134837406Y-61800202D01*
X134836752Y-61798312D01*
X134838062Y-61796801D01*
X134839827Y-61797028D01*
X134852511Y-61805503D01*
X134890199Y-61813000D01*
X136889801Y-61813000D01*
X136927489Y-61805503D01*
X136949273Y-61790948D01*
X136951269Y-61790817D01*
X136952380Y-61792480D01*
G37*
G36*
X144752380Y-61142480D02*
G01*
X144751919Y-61143894D01*
X144712598Y-61190945D01*
X144703967Y-61259661D01*
X144733931Y-61322291D01*
X144742594Y-61329798D01*
X144743248Y-61331688D01*
X144741938Y-61333199D01*
X144740173Y-61332972D01*
X144727489Y-61324497D01*
X144689801Y-61317000D01*
X142690199Y-61317000D01*
X142652511Y-61324497D01*
X142630727Y-61339052D01*
X142628731Y-61339183D01*
X142627620Y-61337520D01*
X142628081Y-61336106D01*
X142667402Y-61289055D01*
X142676033Y-61220339D01*
X142646069Y-61157709D01*
X142637406Y-61150202D01*
X142636752Y-61148312D01*
X142638062Y-61146801D01*
X142639827Y-61147028D01*
X142652511Y-61155503D01*
X142690199Y-61163000D01*
X144689801Y-61163000D01*
X144727489Y-61155503D01*
X144749273Y-61140948D01*
X144751269Y-61140817D01*
X144752380Y-61142480D01*
G37*
G36*
X136952380Y-61142480D02*
G01*
X136951919Y-61143894D01*
X136912598Y-61190945D01*
X136903967Y-61259661D01*
X136933931Y-61322291D01*
X136942594Y-61329798D01*
X136943248Y-61331688D01*
X136941938Y-61333199D01*
X136940173Y-61332972D01*
X136927489Y-61324497D01*
X136889801Y-61317000D01*
X134890199Y-61317000D01*
X134852511Y-61324497D01*
X134830727Y-61339052D01*
X134828731Y-61339183D01*
X134827620Y-61337520D01*
X134828081Y-61336106D01*
X134867402Y-61289055D01*
X134876033Y-61220339D01*
X134846069Y-61157709D01*
X134837406Y-61150202D01*
X134836752Y-61148312D01*
X134838062Y-61146801D01*
X134839827Y-61147028D01*
X134852511Y-61155503D01*
X134890199Y-61163000D01*
X136889801Y-61163000D01*
X136927489Y-61155503D01*
X136949273Y-61140948D01*
X136951269Y-61140817D01*
X136952380Y-61142480D01*
G37*
G36*
X144752380Y-60492480D02*
G01*
X144751919Y-60493894D01*
X144712598Y-60540945D01*
X144703967Y-60609661D01*
X144733931Y-60672291D01*
X144742594Y-60679798D01*
X144743248Y-60681688D01*
X144741938Y-60683199D01*
X144740173Y-60682972D01*
X144727489Y-60674497D01*
X144689801Y-60667000D01*
X142690199Y-60667000D01*
X142652511Y-60674497D01*
X142630727Y-60689052D01*
X142628731Y-60689183D01*
X142627620Y-60687520D01*
X142628081Y-60686106D01*
X142667402Y-60639055D01*
X142676033Y-60570339D01*
X142646069Y-60507709D01*
X142637406Y-60500202D01*
X142636752Y-60498312D01*
X142638062Y-60496801D01*
X142639827Y-60497028D01*
X142652511Y-60505503D01*
X142690199Y-60513000D01*
X144689801Y-60513000D01*
X144727489Y-60505503D01*
X144749273Y-60490948D01*
X144751269Y-60490817D01*
X144752380Y-60492480D01*
G37*
G36*
X136952380Y-60492480D02*
G01*
X136951919Y-60493894D01*
X136912598Y-60540945D01*
X136903967Y-60609661D01*
X136933931Y-60672291D01*
X136942594Y-60679798D01*
X136943248Y-60681688D01*
X136941938Y-60683199D01*
X136940173Y-60682972D01*
X136927489Y-60674497D01*
X136889801Y-60667000D01*
X134890199Y-60667000D01*
X134852511Y-60674497D01*
X134830727Y-60689052D01*
X134828731Y-60689183D01*
X134827620Y-60687520D01*
X134828081Y-60686106D01*
X134867402Y-60639055D01*
X134876033Y-60570339D01*
X134846069Y-60507709D01*
X134837406Y-60500202D01*
X134836752Y-60498312D01*
X134838062Y-60496801D01*
X134839827Y-60497028D01*
X134852511Y-60505503D01*
X134890199Y-60513000D01*
X136889801Y-60513000D01*
X136927489Y-60505503D01*
X136949273Y-60490948D01*
X136951269Y-60490817D01*
X136952380Y-60492480D01*
G37*
G36*
X136952380Y-59842480D02*
G01*
X136951919Y-59843894D01*
X136912598Y-59890945D01*
X136903967Y-59959661D01*
X136933931Y-60022291D01*
X136942594Y-60029798D01*
X136943248Y-60031688D01*
X136941938Y-60033199D01*
X136940173Y-60032972D01*
X136927489Y-60024497D01*
X136889801Y-60017000D01*
X134890199Y-60017000D01*
X134852511Y-60024497D01*
X134830727Y-60039052D01*
X134828731Y-60039183D01*
X134827620Y-60037520D01*
X134828081Y-60036106D01*
X134867402Y-59989055D01*
X134876033Y-59920339D01*
X134846069Y-59857709D01*
X134837406Y-59850202D01*
X134836752Y-59848312D01*
X134838062Y-59846801D01*
X134839827Y-59847028D01*
X134852511Y-59855503D01*
X134890199Y-59863000D01*
X136889801Y-59863000D01*
X136927489Y-59855503D01*
X136949273Y-59840948D01*
X136951269Y-59840817D01*
X136952380Y-59842480D01*
G37*
G36*
X144752380Y-59842480D02*
G01*
X144751919Y-59843894D01*
X144712598Y-59890945D01*
X144703967Y-59959661D01*
X144733931Y-60022291D01*
X144742594Y-60029798D01*
X144743248Y-60031688D01*
X144741938Y-60033199D01*
X144740173Y-60032972D01*
X144727489Y-60024497D01*
X144689801Y-60017000D01*
X142690199Y-60017000D01*
X142652511Y-60024497D01*
X142630727Y-60039052D01*
X142628731Y-60039183D01*
X142627620Y-60037520D01*
X142628081Y-60036106D01*
X142667402Y-59989055D01*
X142676033Y-59920339D01*
X142646069Y-59857709D01*
X142637406Y-59850202D01*
X142636752Y-59848312D01*
X142638062Y-59846801D01*
X142639827Y-59847028D01*
X142652511Y-59855503D01*
X142690199Y-59863000D01*
X144689801Y-59863000D01*
X144727489Y-59855503D01*
X144749273Y-59840948D01*
X144751269Y-59840817D01*
X144752380Y-59842480D01*
G37*
G36*
X136952380Y-59192480D02*
G01*
X136951919Y-59193894D01*
X136912598Y-59240945D01*
X136903967Y-59309661D01*
X136933931Y-59372291D01*
X136942594Y-59379798D01*
X136943248Y-59381688D01*
X136941938Y-59383199D01*
X136940173Y-59382972D01*
X136927489Y-59374497D01*
X136889801Y-59367000D01*
X134890199Y-59367000D01*
X134852511Y-59374497D01*
X134830727Y-59389052D01*
X134828731Y-59389183D01*
X134827620Y-59387520D01*
X134828081Y-59386106D01*
X134867402Y-59339055D01*
X134876033Y-59270339D01*
X134846069Y-59207709D01*
X134837406Y-59200202D01*
X134836752Y-59198312D01*
X134838062Y-59196801D01*
X134839827Y-59197028D01*
X134852511Y-59205503D01*
X134890199Y-59213000D01*
X136889801Y-59213000D01*
X136927489Y-59205503D01*
X136949273Y-59190948D01*
X136951269Y-59190817D01*
X136952380Y-59192480D01*
G37*
G36*
X144752380Y-59192480D02*
G01*
X144751919Y-59193894D01*
X144712598Y-59240945D01*
X144703967Y-59309661D01*
X144733931Y-59372291D01*
X144742594Y-59379798D01*
X144743248Y-59381688D01*
X144741938Y-59383199D01*
X144740173Y-59382972D01*
X144727489Y-59374497D01*
X144689801Y-59367000D01*
X142690199Y-59367000D01*
X142652511Y-59374497D01*
X142630727Y-59389052D01*
X142628731Y-59389183D01*
X142627620Y-59387520D01*
X142628081Y-59386106D01*
X142667402Y-59339055D01*
X142676033Y-59270339D01*
X142646069Y-59207709D01*
X142637406Y-59200202D01*
X142636752Y-59198312D01*
X142638062Y-59196801D01*
X142639827Y-59197028D01*
X142652511Y-59205503D01*
X142690199Y-59213000D01*
X144689801Y-59213000D01*
X144727489Y-59205503D01*
X144749273Y-59190948D01*
X144751269Y-59190817D01*
X144752380Y-59192480D01*
G37*
G36*
X136952380Y-58542480D02*
G01*
X136951919Y-58543894D01*
X136912598Y-58590945D01*
X136903967Y-58659661D01*
X136933931Y-58722291D01*
X136942594Y-58729798D01*
X136943248Y-58731688D01*
X136941938Y-58733199D01*
X136940173Y-58732972D01*
X136927489Y-58724497D01*
X136889801Y-58717000D01*
X134890199Y-58717000D01*
X134852511Y-58724497D01*
X134830727Y-58739052D01*
X134828731Y-58739183D01*
X134827620Y-58737520D01*
X134828081Y-58736106D01*
X134867402Y-58689055D01*
X134876033Y-58620339D01*
X134846069Y-58557709D01*
X134837406Y-58550202D01*
X134836752Y-58548312D01*
X134838062Y-58546801D01*
X134839827Y-58547028D01*
X134852511Y-58555503D01*
X134890199Y-58563000D01*
X136889801Y-58563000D01*
X136927489Y-58555503D01*
X136949273Y-58540948D01*
X136951269Y-58540817D01*
X136952380Y-58542480D01*
G37*
G36*
X144752380Y-58542480D02*
G01*
X144751919Y-58543894D01*
X144712598Y-58590945D01*
X144703967Y-58659661D01*
X144733931Y-58722291D01*
X144742594Y-58729798D01*
X144743248Y-58731688D01*
X144741938Y-58733199D01*
X144740173Y-58732972D01*
X144727489Y-58724497D01*
X144689801Y-58717000D01*
X142690199Y-58717000D01*
X142652511Y-58724497D01*
X142630727Y-58739052D01*
X142628731Y-58739183D01*
X142627620Y-58737520D01*
X142628081Y-58736106D01*
X142667402Y-58689055D01*
X142676033Y-58620339D01*
X142646069Y-58557709D01*
X142637406Y-58550202D01*
X142636752Y-58548312D01*
X142638062Y-58546801D01*
X142639827Y-58547028D01*
X142652511Y-58555503D01*
X142690199Y-58563000D01*
X144689801Y-58563000D01*
X144727489Y-58555503D01*
X144749273Y-58540948D01*
X144751269Y-58540817D01*
X144752380Y-58542480D01*
G37*
G36*
X136952380Y-57892480D02*
G01*
X136951919Y-57893894D01*
X136912598Y-57940945D01*
X136903967Y-58009661D01*
X136933931Y-58072291D01*
X136942594Y-58079798D01*
X136943248Y-58081688D01*
X136941938Y-58083199D01*
X136940173Y-58082972D01*
X136927489Y-58074497D01*
X136889801Y-58067000D01*
X134890199Y-58067000D01*
X134852511Y-58074497D01*
X134830727Y-58089052D01*
X134828731Y-58089183D01*
X134827620Y-58087520D01*
X134828081Y-58086106D01*
X134867402Y-58039055D01*
X134876033Y-57970339D01*
X134846069Y-57907709D01*
X134837406Y-57900202D01*
X134836752Y-57898312D01*
X134838062Y-57896801D01*
X134839827Y-57897028D01*
X134852511Y-57905503D01*
X134890199Y-57913000D01*
X136889801Y-57913000D01*
X136927489Y-57905503D01*
X136949273Y-57890948D01*
X136951269Y-57890817D01*
X136952380Y-57892480D01*
G37*
G36*
X144752380Y-57892480D02*
G01*
X144751919Y-57893894D01*
X144712598Y-57940945D01*
X144703967Y-58009661D01*
X144733931Y-58072291D01*
X144742594Y-58079798D01*
X144743248Y-58081688D01*
X144741938Y-58083199D01*
X144740173Y-58082972D01*
X144727489Y-58074497D01*
X144689801Y-58067000D01*
X142690199Y-58067000D01*
X142652511Y-58074497D01*
X142630727Y-58089052D01*
X142628731Y-58089183D01*
X142627620Y-58087520D01*
X142628081Y-58086106D01*
X142667402Y-58039055D01*
X142676033Y-57970339D01*
X142646069Y-57907709D01*
X142637406Y-57900202D01*
X142636752Y-57898312D01*
X142638062Y-57896801D01*
X142639827Y-57897028D01*
X142652511Y-57905503D01*
X142690199Y-57913000D01*
X144689801Y-57913000D01*
X144727489Y-57905503D01*
X144749273Y-57890948D01*
X144751269Y-57890817D01*
X144752380Y-57892480D01*
G37*
G36*
X136952380Y-57242480D02*
G01*
X136951919Y-57243894D01*
X136912598Y-57290945D01*
X136903967Y-57359661D01*
X136933931Y-57422291D01*
X136942594Y-57429798D01*
X136943248Y-57431688D01*
X136941938Y-57433199D01*
X136940173Y-57432972D01*
X136927489Y-57424497D01*
X136889801Y-57417000D01*
X134890199Y-57417000D01*
X134852511Y-57424497D01*
X134830727Y-57439052D01*
X134828731Y-57439183D01*
X134827620Y-57437520D01*
X134828081Y-57436106D01*
X134867402Y-57389055D01*
X134876033Y-57320339D01*
X134846069Y-57257709D01*
X134837406Y-57250202D01*
X134836752Y-57248312D01*
X134838062Y-57246801D01*
X134839827Y-57247028D01*
X134852511Y-57255503D01*
X134890199Y-57263000D01*
X136889801Y-57263000D01*
X136927489Y-57255503D01*
X136949273Y-57240948D01*
X136951269Y-57240817D01*
X136952380Y-57242480D01*
G37*
G36*
X144752380Y-57242480D02*
G01*
X144751919Y-57243894D01*
X144712598Y-57290945D01*
X144703967Y-57359661D01*
X144733931Y-57422291D01*
X144742594Y-57429798D01*
X144743248Y-57431688D01*
X144741938Y-57433199D01*
X144740173Y-57432972D01*
X144727489Y-57424497D01*
X144689801Y-57417000D01*
X142690199Y-57417000D01*
X142652511Y-57424497D01*
X142630727Y-57439052D01*
X142628731Y-57439183D01*
X142627620Y-57437520D01*
X142628081Y-57436106D01*
X142667402Y-57389055D01*
X142676033Y-57320339D01*
X142646069Y-57257709D01*
X142637406Y-57250202D01*
X142636752Y-57248312D01*
X142638062Y-57246801D01*
X142639827Y-57247028D01*
X142652511Y-57255503D01*
X142690199Y-57263000D01*
X144689801Y-57263000D01*
X144727489Y-57255503D01*
X144749273Y-57240948D01*
X144751269Y-57240817D01*
X144752380Y-57242480D01*
G37*
M02*
